<svg width="1281" height="449" viewBox="0 0 1281 449" fill="none" xmlns="http://www.w3.org/2000/svg">
<g clip-path="url(#clip0_55_31019)">
<mask id="path-3-outside-1_55_31019" maskUnits="userSpaceOnUse" x="-123" y="34" width="1523" height="167" fill="black">
<rect fill="white" x="-123" y="34" width="1523" height="167"/>
<path d="M-122.29 197L-73.8898 38.6H-29.2298L19.1702 197H-11.6298L-54.7498 57.3H-49.0298L-91.4898 197H-122.29ZM-93.2498 164V136.06H-9.64982V164H-93.2498ZM23.486 197V38.6H120.286V68.52H53.406V102.84H107.086V132.76H53.406V197H23.486ZM192.726 200.3C176.886 200.3 163.209 196.853 151.696 189.96C140.256 183.067 131.419 173.423 125.186 161.03C119.026 148.637 115.946 134.227 115.946 117.8C115.946 101.373 119.026 86.9633 125.186 74.57C131.419 62.1767 140.256 52.5333 151.696 45.64C163.209 38.7467 176.886 35.3 192.726 35.3C208.566 35.3 222.206 38.7467 233.646 45.64C245.159 52.5333 253.996 62.1767 260.156 74.57C266.389 86.9633 269.506 101.373 269.506 117.8C269.506 134.227 266.389 148.637 260.156 161.03C253.996 173.423 245.159 183.067 233.646 189.96C222.206 196.853 208.566 200.3 192.726 200.3ZM192.726 172.14C202.773 172.287 211.133 170.123 217.806 165.65C224.479 161.177 229.466 154.833 232.766 146.62C236.139 138.407 237.826 128.8 237.826 117.8C237.826 106.8 236.139 97.2667 232.766 89.2C229.466 81.1333 224.479 74.8633 217.806 70.39C211.133 65.9167 202.773 63.6067 192.726 63.46C182.679 63.3133 174.319 65.4767 167.646 69.95C160.973 74.4233 155.949 80.7667 152.576 88.98C149.276 97.1933 147.626 106.8 147.626 117.8C147.626 128.8 149.276 138.333 152.576 146.4C155.949 154.467 160.973 160.737 167.646 165.21C174.319 169.683 182.679 171.993 192.726 172.14ZM372.688 200.3C356.848 200.3 343.171 196.853 331.658 189.96C320.218 183.067 311.381 173.423 305.148 161.03C298.988 148.637 295.908 134.227 295.908 117.8C295.908 101.373 298.988 86.9633 305.148 74.57C311.381 62.1767 320.218 52.5333 331.658 45.64C343.171 38.7467 356.848 35.3 372.688 35.3C390.875 35.3 406.128 39.81 418.448 48.83C430.841 57.85 439.568 70.06 444.628 85.46L414.488 93.82C411.555 84.2133 406.605 76.77 399.638 71.49C392.671 66.1367 383.688 63.46 372.688 63.46C362.641 63.46 354.245 65.6967 347.498 70.17C340.825 74.6433 335.801 80.95 332.428 89.09C329.054 97.23 327.368 106.8 327.368 117.8C327.368 128.8 329.054 138.37 332.428 146.51C335.801 154.65 340.825 160.957 347.498 165.43C354.245 169.903 362.641 172.14 372.688 172.14C383.688 172.14 392.671 169.463 399.638 164.11C406.605 158.757 411.555 151.313 414.488 141.78L444.628 150.14C439.568 165.54 430.841 177.75 418.448 186.77C406.128 195.79 390.875 200.3 372.688 200.3ZM485.508 197V132.54L431.388 38.6H466.368L500.688 98.22L535.008 38.6H569.988L515.868 132.54V197H485.508ZM569.963 197V38.6H633.323C644.616 38.6 653.746 40.8733 660.713 45.42C667.679 49.8933 672.776 55.54 676.003 62.36C679.229 69.18 680.843 76.0733 680.843 83.04C680.843 91.9133 678.826 99.2833 674.793 105.15C670.833 111.017 665.369 114.94 658.403 116.92V111.42C668.303 113.473 675.709 118.057 680.623 125.17C685.609 132.283 688.103 140.24 688.103 149.04C688.103 158.5 686.343 166.823 682.823 174.01C679.376 181.197 674.096 186.843 666.983 190.95C659.869 194.983 650.923 197 640.143 197H569.963ZM600.323 168.84H637.063C641.096 168.84 644.689 167.997 647.843 166.31C650.996 164.55 653.453 162.13 655.213 159.05C657.046 155.897 657.963 152.193 657.963 147.94C657.963 144.2 657.193 140.863 655.653 137.93C654.113 134.997 651.766 132.687 648.613 131C645.533 129.24 641.683 128.36 637.063 128.36H600.323V168.84ZM600.323 100.42H632.883C636.256 100.42 639.263 99.8333 641.903 98.66C644.543 97.4867 646.633 95.69 648.173 93.27C649.713 90.7767 650.483 87.5867 650.483 83.7C650.483 78.86 648.979 74.79 645.973 71.49C642.966 68.19 638.603 66.54 632.883 66.54H600.323V100.42ZM694.641 197V38.6H798.041V66.54H724.561V100.42H784.841V128.36H724.561V169.06H798.041V197H694.641ZM809.006 197V38.6H875.886C877.426 38.6 879.48 38.6733 882.046 38.82C884.686 38.8933 887.033 39.1133 889.086 39.48C898.546 40.9467 906.283 44.0633 912.296 48.83C918.383 53.5967 922.856 59.61 925.716 66.87C928.576 74.0567 930.006 82.0867 930.006 90.96C930.006 104.233 926.706 115.6 920.106 125.06C913.506 134.447 903.166 140.24 889.086 142.44L875.886 143.32H838.926V197H809.006ZM898.326 197L867.086 132.54L897.886 126.6L932.206 197H898.326ZM838.926 115.38H874.566C876.106 115.38 877.793 115.307 879.626 115.16C881.46 115.013 883.146 114.72 884.686 114.28C888.72 113.18 891.836 111.347 894.036 108.78C896.236 106.14 897.74 103.243 898.546 100.09C899.426 96.8633 899.866 93.82 899.866 90.96C899.866 88.1 899.426 85.0933 898.546 81.94C897.74 78.7133 896.236 75.8167 894.036 73.25C891.836 70.61 888.72 68.74 884.686 67.64C883.146 67.2 881.46 66.9067 879.626 66.76C877.793 66.6133 876.106 66.54 874.566 66.54H838.926V115.38ZM938.789 129.24V106.14H1004.79V129.24H938.789ZM1077.81 200.3C1066.08 200.3 1055.48 198.247 1046.02 194.14C1036.64 189.96 1028.9 184.02 1022.81 176.32C1016.8 168.547 1012.99 159.307 1011.37 148.6L1042.61 143.98C1044.81 153.073 1049.36 160.077 1056.25 164.99C1063.15 169.903 1070.99 172.36 1079.79 172.36C1084.71 172.36 1089.47 171.59 1094.09 170.05C1098.71 168.51 1102.49 166.237 1105.42 163.23C1108.43 160.223 1109.93 156.52 1109.93 152.12C1109.93 150.507 1109.68 148.967 1109.16 147.5C1108.72 145.96 1107.95 144.53 1106.85 143.21C1105.75 141.89 1104.18 140.643 1102.12 139.47C1100.14 138.297 1097.61 137.233 1094.53 136.28L1053.39 124.18C1050.31 123.3 1046.72 122.053 1042.61 120.44C1038.58 118.827 1034.66 116.517 1030.84 113.51C1027.03 110.503 1023.84 106.543 1021.27 101.63C1018.78 96.6433 1017.53 90.3733 1017.53 82.82C1017.53 72.1867 1020.21 63.35 1025.56 56.31C1030.92 49.27 1038.07 44.0267 1047.01 40.58C1055.96 37.1333 1065.86 35.4467 1076.71 35.52C1087.64 35.6667 1097.39 37.5367 1105.97 41.13C1114.55 44.7233 1121.74 49.9667 1127.53 56.86C1133.33 63.68 1137.51 72.04 1140.07 81.94L1107.73 87.44C1106.56 82.3067 1104.4 77.98 1101.24 74.46C1098.09 70.94 1094.31 68.2633 1089.91 66.43C1085.59 64.5967 1081.04 63.6067 1076.27 63.46C1071.58 63.3133 1067.14 63.9733 1062.96 65.44C1058.86 66.8333 1055.48 68.8867 1052.84 71.6C1050.28 74.3133 1048.99 77.54 1048.99 81.28C1048.99 84.7267 1050.06 87.55 1052.18 89.75C1054.31 91.8767 1056.99 93.6 1060.21 94.92C1063.44 96.24 1066.74 97.34 1070.11 98.22L1097.61 105.7C1101.72 106.8 1106.27 108.267 1111.25 110.1C1116.24 111.86 1121.01 114.353 1125.55 117.58C1130.17 120.733 1133.95 124.913 1136.88 130.12C1139.89 135.327 1141.39 141.927 1141.39 149.92C1141.39 158.427 1139.6 165.87 1136 172.25C1132.48 178.557 1127.72 183.8 1121.7 187.98C1115.69 192.087 1108.87 195.167 1101.24 197.22C1093.69 199.273 1085.88 200.3 1077.81 200.3ZM1150.17 197V38.6H1253.57V66.54H1180.09V100.42H1240.37V128.36H1180.09V169.06H1253.57V197H1150.17ZM1326.93 200.3C1311.09 200.3 1297.41 196.853 1285.9 189.96C1274.46 183.067 1265.62 173.423 1259.39 161.03C1253.23 148.637 1250.15 134.227 1250.15 117.8C1250.15 101.373 1253.23 86.9633 1259.39 74.57C1265.62 62.1767 1274.46 52.5333 1285.9 45.64C1297.41 38.7467 1311.09 35.3 1326.93 35.3C1345.12 35.3 1360.37 39.81 1372.69 48.83C1385.08 57.85 1393.81 70.06 1398.87 85.46L1368.73 93.82C1365.8 84.2133 1360.85 76.77 1353.88 71.49C1346.91 66.1367 1337.93 63.46 1326.93 63.46C1316.88 63.46 1308.49 65.6967 1301.74 70.17C1295.07 74.6433 1290.04 80.95 1286.67 89.09C1283.3 97.23 1281.61 106.8 1281.61 117.8C1281.61 128.8 1283.3 138.37 1286.67 146.51C1290.04 154.65 1295.07 160.957 1301.74 165.43C1308.49 169.903 1316.88 172.14 1326.93 172.14C1337.93 172.14 1346.91 169.463 1353.88 164.11C1360.85 158.757 1365.8 151.313 1368.73 141.78L1398.87 150.14C1393.81 165.54 1385.08 177.75 1372.69 186.77C1360.37 195.79 1345.12 200.3 1326.93 200.3Z"/>
</mask>
<path d="M-122.29 197L-73.8898 38.6H-29.2298L19.1702 197H-11.6298L-54.7498 57.3H-49.0298L-91.4898 197H-122.29ZM-93.2498 164V136.06H-9.64982V164H-93.2498ZM23.486 197V38.6H120.286V68.52H53.406V102.84H107.086V132.76H53.406V197H23.486ZM192.726 200.3C176.886 200.3 163.209 196.853 151.696 189.96C140.256 183.067 131.419 173.423 125.186 161.03C119.026 148.637 115.946 134.227 115.946 117.8C115.946 101.373 119.026 86.9633 125.186 74.57C131.419 62.1767 140.256 52.5333 151.696 45.64C163.209 38.7467 176.886 35.3 192.726 35.3C208.566 35.3 222.206 38.7467 233.646 45.64C245.159 52.5333 253.996 62.1767 260.156 74.57C266.389 86.9633 269.506 101.373 269.506 117.8C269.506 134.227 266.389 148.637 260.156 161.03C253.996 173.423 245.159 183.067 233.646 189.96C222.206 196.853 208.566 200.3 192.726 200.3ZM192.726 172.14C202.773 172.287 211.133 170.123 217.806 165.65C224.479 161.177 229.466 154.833 232.766 146.62C236.139 138.407 237.826 128.8 237.826 117.8C237.826 106.8 236.139 97.2667 232.766 89.2C229.466 81.1333 224.479 74.8633 217.806 70.39C211.133 65.9167 202.773 63.6067 192.726 63.46C182.679 63.3133 174.319 65.4767 167.646 69.95C160.973 74.4233 155.949 80.7667 152.576 88.98C149.276 97.1933 147.626 106.8 147.626 117.8C147.626 128.8 149.276 138.333 152.576 146.4C155.949 154.467 160.973 160.737 167.646 165.21C174.319 169.683 182.679 171.993 192.726 172.14ZM372.688 200.3C356.848 200.3 343.171 196.853 331.658 189.96C320.218 183.067 311.381 173.423 305.148 161.03C298.988 148.637 295.908 134.227 295.908 117.8C295.908 101.373 298.988 86.9633 305.148 74.57C311.381 62.1767 320.218 52.5333 331.658 45.64C343.171 38.7467 356.848 35.3 372.688 35.3C390.875 35.3 406.128 39.81 418.448 48.83C430.841 57.85 439.568 70.06 444.628 85.46L414.488 93.82C411.555 84.2133 406.605 76.77 399.638 71.49C392.671 66.1367 383.688 63.46 372.688 63.46C362.641 63.46 354.245 65.6967 347.498 70.17C340.825 74.6433 335.801 80.95 332.428 89.09C329.054 97.23 327.368 106.8 327.368 117.8C327.368 128.8 329.054 138.37 332.428 146.51C335.801 154.65 340.825 160.957 347.498 165.43C354.245 169.903 362.641 172.14 372.688 172.14C383.688 172.14 392.671 169.463 399.638 164.11C406.605 158.757 411.555 151.313 414.488 141.78L444.628 150.14C439.568 165.54 430.841 177.75 418.448 186.77C406.128 195.79 390.875 200.3 372.688 200.3ZM485.508 197V132.54L431.388 38.6H466.368L500.688 98.22L535.008 38.6H569.988L515.868 132.54V197H485.508ZM569.963 197V38.6H633.323C644.616 38.6 653.746 40.8733 660.713 45.42C667.679 49.8933 672.776 55.54 676.003 62.36C679.229 69.18 680.843 76.0733 680.843 83.04C680.843 91.9133 678.826 99.2833 674.793 105.15C670.833 111.017 665.369 114.94 658.403 116.92V111.42C668.303 113.473 675.709 118.057 680.623 125.17C685.609 132.283 688.103 140.24 688.103 149.04C688.103 158.5 686.343 166.823 682.823 174.01C679.376 181.197 674.096 186.843 666.983 190.95C659.869 194.983 650.923 197 640.143 197H569.963ZM600.323 168.84H637.063C641.096 168.84 644.689 167.997 647.843 166.31C650.996 164.55 653.453 162.13 655.213 159.05C657.046 155.897 657.963 152.193 657.963 147.94C657.963 144.2 657.193 140.863 655.653 137.93C654.113 134.997 651.766 132.687 648.613 131C645.533 129.24 641.683 128.36 637.063 128.36H600.323V168.84ZM600.323 100.42H632.883C636.256 100.42 639.263 99.8333 641.903 98.66C644.543 97.4867 646.633 95.69 648.173 93.27C649.713 90.7767 650.483 87.5867 650.483 83.7C650.483 78.86 648.979 74.79 645.973 71.49C642.966 68.19 638.603 66.54 632.883 66.54H600.323V100.42ZM694.641 197V38.6H798.041V66.54H724.561V100.42H784.841V128.36H724.561V169.06H798.041V197H694.641ZM809.006 197V38.6H875.886C877.426 38.6 879.48 38.6733 882.046 38.82C884.686 38.8933 887.033 39.1133 889.086 39.48C898.546 40.9467 906.283 44.0633 912.296 48.83C918.383 53.5967 922.856 59.61 925.716 66.87C928.576 74.0567 930.006 82.0867 930.006 90.96C930.006 104.233 926.706 115.6 920.106 125.06C913.506 134.447 903.166 140.24 889.086 142.44L875.886 143.32H838.926V197H809.006ZM898.326 197L867.086 132.54L897.886 126.6L932.206 197H898.326ZM838.926 115.38H874.566C876.106 115.38 877.793 115.307 879.626 115.16C881.46 115.013 883.146 114.72 884.686 114.28C888.72 113.18 891.836 111.347 894.036 108.78C896.236 106.14 897.74 103.243 898.546 100.09C899.426 96.8633 899.866 93.82 899.866 90.96C899.866 88.1 899.426 85.0933 898.546 81.94C897.74 78.7133 896.236 75.8167 894.036 73.25C891.836 70.61 888.72 68.74 884.686 67.64C883.146 67.2 881.46 66.9067 879.626 66.76C877.793 66.6133 876.106 66.54 874.566 66.54H838.926V115.38ZM938.789 129.24V106.14H1004.79V129.24H938.789ZM1077.81 200.3C1066.08 200.3 1055.48 198.247 1046.02 194.14C1036.64 189.96 1028.9 184.02 1022.81 176.32C1016.8 168.547 1012.99 159.307 1011.37 148.6L1042.61 143.98C1044.81 153.073 1049.36 160.077 1056.25 164.99C1063.15 169.903 1070.99 172.36 1079.79 172.36C1084.71 172.36 1089.47 171.59 1094.09 170.05C1098.71 168.51 1102.49 166.237 1105.42 163.23C1108.43 160.223 1109.93 156.52 1109.93 152.12C1109.93 150.507 1109.68 148.967 1109.16 147.5C1108.72 145.96 1107.95 144.53 1106.85 143.21C1105.75 141.89 1104.18 140.643 1102.12 139.47C1100.14 138.297 1097.61 137.233 1094.53 136.28L1053.39 124.18C1050.31 123.3 1046.72 122.053 1042.61 120.44C1038.58 118.827 1034.66 116.517 1030.84 113.51C1027.03 110.503 1023.84 106.543 1021.27 101.63C1018.78 96.6433 1017.53 90.3733 1017.53 82.82C1017.53 72.1867 1020.21 63.35 1025.56 56.31C1030.92 49.27 1038.07 44.0267 1047.01 40.58C1055.96 37.1333 1065.86 35.4467 1076.71 35.52C1087.64 35.6667 1097.39 37.5367 1105.97 41.13C1114.55 44.7233 1121.74 49.9667 1127.53 56.86C1133.33 63.68 1137.51 72.04 1140.07 81.94L1107.73 87.44C1106.56 82.3067 1104.4 77.98 1101.24 74.46C1098.09 70.94 1094.31 68.2633 1089.91 66.43C1085.59 64.5967 1081.04 63.6067 1076.27 63.46C1071.58 63.3133 1067.14 63.9733 1062.96 65.44C1058.86 66.8333 1055.48 68.8867 1052.84 71.6C1050.28 74.3133 1048.99 77.54 1048.99 81.28C1048.99 84.7267 1050.06 87.55 1052.18 89.75C1054.31 91.8767 1056.99 93.6 1060.21 94.92C1063.44 96.24 1066.74 97.34 1070.11 98.22L1097.61 105.7C1101.72 106.8 1106.27 108.267 1111.25 110.1C1116.24 111.86 1121.01 114.353 1125.55 117.58C1130.17 120.733 1133.95 124.913 1136.88 130.12C1139.89 135.327 1141.39 141.927 1141.39 149.92C1141.39 158.427 1139.6 165.87 1136 172.25C1132.48 178.557 1127.72 183.8 1121.7 187.98C1115.69 192.087 1108.87 195.167 1101.24 197.22C1093.69 199.273 1085.88 200.3 1077.81 200.3ZM1150.17 197V38.6H1253.57V66.54H1180.09V100.42H1240.37V128.36H1180.09V169.06H1253.57V197H1150.17ZM1326.93 200.3C1311.09 200.3 1297.41 196.853 1285.9 189.96C1274.46 183.067 1265.62 173.423 1259.39 161.03C1253.23 148.637 1250.15 134.227 1250.15 117.8C1250.15 101.373 1253.23 86.9633 1259.39 74.57C1265.62 62.1767 1274.46 52.5333 1285.9 45.64C1297.41 38.7467 1311.09 35.3 1326.93 35.3C1345.12 35.3 1360.37 39.81 1372.69 48.83C1385.08 57.85 1393.81 70.06 1398.87 85.46L1368.73 93.82C1365.8 84.2133 1360.85 76.77 1353.88 71.49C1346.91 66.1367 1337.93 63.46 1326.93 63.46C1316.88 63.46 1308.49 65.6967 1301.74 70.17C1295.07 74.6433 1290.04 80.95 1286.67 89.09C1283.3 97.23 1281.61 106.8 1281.61 117.8C1281.61 128.8 1283.3 138.37 1286.67 146.51C1290.04 154.65 1295.07 160.957 1301.74 165.43C1308.49 169.903 1316.88 172.14 1326.93 172.14C1337.93 172.14 1346.91 169.463 1353.88 164.11C1360.85 158.757 1365.8 151.313 1368.73 141.78L1398.87 150.14C1393.81 165.54 1385.08 177.75 1372.69 186.77C1360.37 195.79 1345.12 200.3 1326.93 200.3Z" fill="url(#paint0_linear_55_31019)"/>
<path d="M-122.29 197L-122.768 196.854L-122.965 197.5H-122.29V197ZM-73.8898 38.6V38.1H-74.2599L-74.368 38.4539L-73.8898 38.6ZM-29.2298 38.6L-28.7516 38.4539L-28.8598 38.1H-29.2298V38.6ZM19.1702 197V197.5H19.8458L19.6484 196.854L19.1702 197ZM-11.6298 197L-12.1076 197.147L-11.9988 197.5H-11.6298V197ZM-54.7498 57.3V56.8H-55.4274L-55.2276 57.4475L-54.7498 57.3ZM-49.0298 57.3L-48.5514 57.4454L-48.3553 56.8H-49.0298V57.3ZM-91.4898 197V197.5H-91.1192L-91.0114 197.145L-91.4898 197ZM-93.2498 164H-93.7498V164.5H-93.2498V164ZM-93.2498 136.06V135.56H-93.7498V136.06H-93.2498ZM-9.64982 136.06H-9.14982V135.56H-9.64982V136.06ZM-9.64982 164V164.5H-9.14982V164H-9.64982ZM-121.812 197.146L-73.4116 38.7461L-74.368 38.4539L-122.768 196.854L-121.812 197.146ZM-73.8898 39.1H-29.2298V38.1H-73.8898V39.1ZM-29.708 38.7461L18.692 197.146L19.6484 196.854L-28.7516 38.4539L-29.708 38.7461ZM19.1702 196.5H-11.6298V197.5H19.1702V196.5ZM-11.1521 196.853L-54.2721 57.1525L-55.2276 57.4475L-12.1076 197.147L-11.1521 196.853ZM-54.7498 57.8H-49.0298V56.8H-54.7498V57.8ZM-49.5082 57.1546L-91.9682 196.855L-91.0114 197.145L-48.5514 57.4454L-49.5082 57.1546ZM-91.4898 196.5H-122.29V197.5H-91.4898V196.5ZM-92.7498 164V136.06H-93.7498V164H-92.7498ZM-93.2498 136.56H-9.64982V135.56H-93.2498V136.56ZM-10.1498 136.06V164H-9.14982V136.06H-10.1498ZM-9.64982 163.5H-93.2498V164.5H-9.64982V163.5ZM23.486 197H22.986V197.5H23.486V197ZM23.486 38.6V38.1H22.986V38.6H23.486ZM120.286 38.6H120.786V38.1H120.286V38.6ZM120.286 68.52V69.02H120.786V68.52H120.286ZM53.406 68.52V68.02H52.906V68.52H53.406ZM53.406 102.84H52.906V103.34H53.406V102.84ZM107.086 102.84H107.586V102.34H107.086V102.84ZM107.086 132.76V133.26H107.586V132.76H107.086ZM53.406 132.76V132.26H52.906V132.76H53.406ZM53.406 197V197.5H53.906V197H53.406ZM23.986 197V38.6H22.986V197H23.986ZM23.486 39.1H120.286V38.1H23.486V39.1ZM119.786 38.6V68.52H120.786V38.6H119.786ZM120.286 68.02H53.406V69.02H120.286V68.02ZM52.906 68.52V102.84H53.906V68.52H52.906ZM53.406 103.34H107.086V102.34H53.406V103.34ZM106.586 102.84V132.76H107.586V102.84H106.586ZM107.086 132.26H53.406V133.26H107.086V132.26ZM52.906 132.76V197H53.906V132.76H52.906ZM53.406 196.5H23.486V197.5H53.406V196.5ZM151.696 189.96L151.438 190.388L151.439 190.389L151.696 189.96ZM125.186 161.03L124.738 161.253L124.739 161.255L125.186 161.03ZM125.186 74.57L124.739 74.3453L124.738 74.3475L125.186 74.57ZM151.696 45.64L151.439 45.211L151.438 45.2117L151.696 45.64ZM233.646 45.64L233.388 46.0683L233.389 46.069L233.646 45.64ZM260.156 74.57L259.708 74.7925L259.709 74.7947L260.156 74.57ZM260.156 161.03L259.709 160.805L259.708 160.807L260.156 161.03ZM233.646 189.96L233.389 189.531L233.388 189.532L233.646 189.96ZM192.726 172.14L192.719 172.64L192.726 172.14ZM217.806 165.65L218.085 166.065L217.806 165.65ZM232.766 146.62L232.304 146.43L232.302 146.434L232.766 146.62ZM232.766 89.2L232.303 89.3893L232.305 89.3929L232.766 89.2ZM217.806 70.39L218.085 69.9747L217.806 70.39ZM192.726 63.46L192.733 62.96L192.726 63.46ZM152.576 88.98L152.114 88.79L152.112 88.7936L152.576 88.98ZM152.576 146.4L152.113 146.589L152.115 146.593L152.576 146.4ZM167.646 165.21L167.368 165.625L167.646 165.21ZM192.726 199.8C176.96 199.8 163.376 196.37 151.953 189.531L151.439 190.389C163.043 197.337 176.812 200.8 192.726 200.8V199.8ZM151.954 189.532C140.598 182.689 131.825 173.118 125.633 160.805L124.739 161.255C131.013 173.729 139.914 183.444 151.438 190.388L151.954 189.532ZM125.634 160.807C119.514 148.495 116.446 134.164 116.446 117.8H115.446C115.446 134.29 118.538 148.778 124.738 161.253L125.634 160.807ZM116.446 117.8C116.446 101.436 119.514 87.1049 125.634 74.7925L124.738 74.3475C118.538 86.8217 115.446 101.31 115.446 117.8H116.446ZM125.633 74.7947C131.825 62.4822 140.598 52.9109 151.954 46.0683L151.438 45.2117C139.914 52.1557 131.013 61.8711 124.739 74.3453L125.633 74.7947ZM151.953 46.069C163.376 39.2299 176.96 35.8 192.726 35.8V34.8C176.812 34.8 163.043 38.2634 151.439 45.211L151.953 46.069ZM192.726 35.8C208.492 35.8 222.039 39.2299 233.388 46.0683L233.904 45.2117C222.373 38.2634 208.64 34.8 192.726 34.8V35.8ZM233.389 46.069C244.818 52.9116 253.59 62.482 259.708 74.7925L260.604 74.3475C254.403 61.8713 245.501 52.1551 233.903 45.211L233.389 46.069ZM259.709 74.7947C265.902 87.1066 269.006 101.437 269.006 117.8H270.006C270.006 101.31 266.877 86.8201 260.603 74.3453L259.709 74.7947ZM269.006 117.8C269.006 134.163 265.902 148.493 259.709 160.805L260.603 161.255C266.877 148.78 270.006 134.29 270.006 117.8H269.006ZM259.708 160.807C253.59 173.118 244.818 182.688 233.389 189.531L233.903 190.389C245.501 183.445 254.403 173.729 260.604 161.253L259.708 160.807ZM233.388 189.532C222.039 196.37 208.492 199.8 192.726 199.8V200.8C208.64 200.8 222.373 197.337 233.904 190.388L233.388 189.532ZM192.719 172.64C202.841 172.788 211.308 170.608 218.085 166.065L217.528 165.235C210.958 169.639 202.704 171.786 192.733 171.64L192.719 172.64ZM218.085 166.065C224.85 161.53 229.897 155.103 233.23 146.806L232.302 146.434C229.036 154.564 224.109 160.823 217.528 165.235L218.085 166.065ZM233.229 146.81C236.632 138.524 238.326 128.85 238.326 117.8H237.326C237.326 128.75 235.647 138.29 232.304 146.43L233.229 146.81ZM238.326 117.8C238.326 106.75 236.632 97.1484 233.227 89.0071L232.305 89.3929C235.647 97.3849 237.326 106.85 237.326 117.8H238.326ZM233.229 89.0107C229.895 80.8602 224.847 74.5081 218.085 69.9747L217.528 70.8053C224.111 75.2186 229.038 81.4065 232.303 89.3893L233.229 89.0107ZM218.085 69.9747C211.313 65.4355 202.853 63.1078 192.733 62.96L192.719 63.9599C202.693 64.1056 210.953 66.3979 217.528 70.8053L218.085 69.9747ZM192.733 62.96C182.611 62.8123 174.145 64.992 167.368 69.5347L167.925 70.3653C174.494 65.9613 182.748 63.8144 192.719 63.9599L192.733 62.96ZM167.368 69.5347C160.603 74.069 155.52 80.495 152.114 88.79L153.039 89.17C156.378 81.0383 161.342 74.7777 167.925 70.3653L167.368 69.5347ZM152.112 88.7936C148.783 97.0787 147.126 106.751 147.126 117.8H148.126C148.126 106.849 149.769 97.308 153.04 89.1664L152.112 88.7936ZM147.126 117.8C147.126 128.849 148.783 138.449 152.113 146.589L153.039 146.211C149.769 138.218 148.126 128.751 148.126 117.8H147.126ZM152.115 146.593C155.522 154.742 160.606 161.093 167.368 165.625L167.925 164.795C161.34 160.381 156.376 154.192 153.037 146.207L152.115 146.593ZM167.368 165.625C174.139 170.165 182.6 172.492 192.719 172.64L192.733 171.64C182.759 171.494 174.5 169.202 167.925 164.795L167.368 165.625ZM331.658 189.96L331.4 190.388L331.401 190.389L331.658 189.96ZM305.148 161.03L304.7 161.253L304.701 161.255L305.148 161.03ZM305.148 74.57L304.701 74.3453L304.7 74.3475L305.148 74.57ZM331.658 45.64L331.401 45.211L331.4 45.2117L331.658 45.64ZM418.448 48.83L418.152 49.2334L418.154 49.2343L418.448 48.83ZM444.628 85.46L444.761 85.9418L445.266 85.8017L445.103 85.3039L444.628 85.46ZM414.488 93.82L414.01 93.966L414.152 94.4321L414.621 94.3018L414.488 93.82ZM399.638 71.49L399.333 71.8865L399.336 71.8885L399.638 71.49ZM347.498 70.17L347.222 69.7533L347.219 69.7547L347.498 70.17ZM332.428 89.09L331.966 88.8986L332.428 89.09ZM332.428 146.51L331.966 146.701L332.428 146.51ZM347.498 165.43L347.219 165.845L347.222 165.847L347.498 165.43ZM399.638 164.11L399.333 163.714L399.638 164.11ZM414.488 141.78L414.621 141.298L414.153 141.168L414.01 141.633L414.488 141.78ZM444.628 150.14L445.103 150.296L445.266 149.798L444.761 149.658L444.628 150.14ZM418.448 186.77L418.154 186.366L418.152 186.367L418.448 186.77ZM372.688 199.8C356.922 199.8 343.337 196.37 331.915 189.531L331.401 190.389C343.005 197.337 356.774 200.8 372.688 200.8V199.8ZM331.916 189.532C320.56 182.689 311.787 173.118 305.595 160.805L304.701 161.255C310.975 173.729 319.876 183.444 331.4 190.388L331.916 189.532ZM305.596 160.807C299.476 148.495 296.408 134.164 296.408 117.8H295.408C295.408 134.29 298.5 148.778 304.7 161.253L305.596 160.807ZM296.408 117.8C296.408 101.436 299.476 87.1049 305.596 74.7925L304.7 74.3475C298.5 86.8217 295.408 101.31 295.408 117.8H296.408ZM305.595 74.7947C311.787 62.4822 320.56 52.9109 331.916 46.0683L331.4 45.2117C319.876 52.1557 310.975 61.8711 304.701 74.3453L305.595 74.7947ZM331.915 46.069C343.337 39.2299 356.922 35.8 372.688 35.8V34.8C356.774 34.8 343.005 38.2634 331.401 45.211L331.915 46.069ZM372.688 35.8C390.789 35.8 405.934 40.2875 418.152 49.2334L418.743 48.4266C406.322 39.3325 390.96 34.8 372.688 34.8V35.8ZM418.154 49.2343C430.457 58.1889 439.124 70.3096 444.153 85.6161L445.103 85.3039C440.012 69.8104 431.225 57.5111 418.742 48.4257L418.154 49.2343ZM444.494 84.9782L414.354 93.3382L414.621 94.3018L444.761 85.9418L444.494 84.9782ZM414.966 93.674C412.007 83.9823 407.002 76.4442 399.94 71.0915L399.336 71.8885C406.207 77.0958 411.102 84.4444 414.01 93.966L414.966 93.674ZM399.943 71.0935C392.868 65.6577 383.77 62.96 372.688 62.96V63.96C383.606 63.96 392.474 66.6157 399.333 71.8865L399.943 71.0935ZM372.688 62.96C362.567 62.96 354.068 65.2138 347.222 69.7533L347.774 70.5867C354.421 66.1795 362.716 63.96 372.688 63.96V62.96ZM347.219 69.7547C340.456 74.2882 335.373 80.6767 331.966 88.8986L332.89 89.2814C336.229 81.2233 341.193 74.9985 347.776 70.5853L347.219 69.7547ZM331.966 88.8986C328.562 97.1123 326.868 106.75 326.868 117.8H327.868C327.868 106.85 329.547 97.3477 332.89 89.2814L331.966 88.8986ZM326.868 117.8C326.868 128.85 328.562 138.488 331.966 146.701L332.89 146.319C329.547 138.252 327.868 128.75 327.868 117.8H326.868ZM331.966 146.701C335.373 154.923 340.456 161.312 347.219 165.845L347.776 165.015C341.193 160.602 336.229 154.377 332.89 146.319L331.966 146.701ZM347.222 165.847C354.068 170.386 362.567 172.64 372.688 172.64V171.64C362.716 171.64 354.421 169.421 347.774 165.013L347.222 165.847ZM372.688 172.64C383.77 172.64 392.868 169.942 399.943 164.506L399.333 163.714C392.474 168.984 383.606 171.64 372.688 171.64V172.64ZM399.943 164.506C407.002 159.082 412.006 151.546 414.966 141.927L414.01 141.633C411.103 151.081 406.207 158.432 399.333 163.714L399.943 164.506ZM414.354 142.262L444.494 150.622L444.761 149.658L414.621 141.298L414.354 142.262ZM444.153 149.984C439.124 165.29 430.457 177.411 418.154 186.366L418.742 187.174C431.225 178.089 440.012 165.79 445.103 150.296L444.153 149.984ZM418.152 186.367C405.934 195.313 390.789 199.8 372.688 199.8V200.8C390.96 200.8 406.322 196.267 418.743 187.173L418.152 186.367ZM485.508 197H485.008V197.5H485.508V197ZM485.508 132.54H486.008V132.406L485.942 132.29L485.508 132.54ZM431.388 38.6V38.1H430.523L430.955 38.8496L431.388 38.6ZM466.368 38.6L466.802 38.3505L466.657 38.1H466.368V38.6ZM500.688 98.22L500.255 98.4694L500.688 99.2222L501.122 98.4694L500.688 98.22ZM535.008 38.6V38.1H534.719L534.575 38.3505L535.008 38.6ZM569.988 38.6L570.422 38.8496L570.853 38.1H569.988V38.6ZM515.868 132.54L515.435 132.29L515.368 132.406V132.54H515.868ZM515.868 197V197.5H516.368V197H515.868ZM486.008 197V132.54H485.008V197H486.008ZM485.942 132.29L431.822 38.3504L430.955 38.8496L485.075 132.79L485.942 132.29ZM431.388 39.1H466.368V38.1H431.388V39.1ZM465.935 38.8494L500.255 98.4694L501.122 97.9706L466.802 38.3505L465.935 38.8494ZM501.122 98.4694L535.442 38.8494L534.575 38.3505L500.255 97.9706L501.122 98.4694ZM535.008 39.1H569.988V38.1H535.008V39.1ZM569.555 38.3504L515.435 132.29L516.302 132.79L570.422 38.8496L569.555 38.3504ZM515.368 132.54V197H516.368V132.54H515.368ZM515.868 196.5H485.508V197.5H515.868V196.5ZM569.963 197H569.463V197.5H569.963V197ZM569.963 38.6V38.1H569.463V38.6H569.963ZM660.713 45.42L660.439 45.8387L660.442 45.8407L660.713 45.42ZM676.003 62.36L676.454 62.1462L676.003 62.36ZM674.792 105.15L674.38 104.867L674.378 104.87L674.792 105.15ZM658.403 116.92H657.903V117.582L658.539 117.401L658.403 116.92ZM658.403 111.42L658.504 110.93L657.903 110.806V111.42H658.403ZM680.622 125.17L680.211 125.454L680.213 125.457L680.622 125.17ZM682.823 174.01L682.373 173.79L682.372 173.794L682.823 174.01ZM666.982 190.95L667.229 191.385L667.232 191.383L666.982 190.95ZM600.323 168.84H599.823V169.34H600.323V168.84ZM647.843 166.31L648.078 166.751L648.086 166.747L647.843 166.31ZM655.213 159.05L654.78 158.799L654.778 158.802L655.213 159.05ZM655.653 137.93L655.21 138.162L655.653 137.93ZM648.612 131L648.364 131.434L648.377 131.441L648.612 131ZM600.323 128.36V127.86H599.823V128.36H600.323ZM600.323 100.42H599.823V100.92H600.323V100.42ZM641.903 98.66L641.699 98.2031L641.903 98.66ZM648.172 93.27L648.594 93.5385L648.598 93.5327L648.172 93.27ZM645.972 71.49L645.603 71.8267L645.972 71.49ZM600.323 66.54V66.04H599.823V66.54H600.323ZM570.463 197V38.6H569.463V197H570.463ZM569.963 39.1H633.323V38.1H569.963V39.1ZM633.323 39.1C644.552 39.1 653.578 41.3609 660.439 45.8387L660.986 45.0013C653.914 40.3857 644.679 38.1 633.323 38.1V39.1ZM660.442 45.8407C667.338 50.2686 672.368 55.8466 675.551 62.5738L676.454 62.1462C673.184 55.2334 668.02 49.5181 660.983 44.9993L660.442 45.8407ZM675.551 62.5738C678.748 69.3326 680.343 76.1533 680.343 83.04H681.343C681.343 75.9934 679.71 69.0274 676.454 62.1462L675.551 62.5738ZM680.343 83.04C680.343 91.8372 678.344 99.1019 674.38 104.867L675.205 105.433C679.308 99.4647 681.343 91.9894 681.343 83.04H680.343ZM674.378 104.87C670.486 110.637 665.122 114.49 658.266 116.439L658.539 117.401C665.616 115.39 671.179 111.397 675.207 105.43L674.378 104.87ZM658.903 116.92V111.42H657.903V116.92H658.903ZM658.301 111.91C668.098 113.942 675.383 118.464 680.211 125.454L681.034 124.886C676.035 117.649 668.507 113.005 658.504 110.93L658.301 111.91ZM680.213 125.457C685.14 132.485 687.603 140.341 687.603 149.04H688.603C688.603 140.139 686.078 132.082 681.032 124.883L680.213 125.457ZM687.603 149.04C687.603 158.438 685.854 166.683 682.373 173.79L683.272 174.23C686.831 166.963 688.603 158.562 688.603 149.04H687.603ZM682.372 173.794C678.97 180.887 673.761 186.459 666.733 190.517L667.232 191.383C674.43 187.228 679.782 181.507 683.273 174.226L682.372 173.794ZM666.736 190.515C659.718 194.494 650.863 196.5 640.143 196.5V197.5C650.982 197.5 660.02 195.472 667.229 191.385L666.736 190.515ZM640.143 196.5H569.963V197.5H640.143V196.5ZM600.323 169.34H637.062V168.34H600.323V169.34ZM637.062 169.34C641.167 169.34 644.844 168.481 648.078 166.751L647.607 165.869C644.535 167.512 641.024 168.34 637.062 168.34V169.34ZM648.086 166.747C651.317 164.943 653.841 162.459 655.647 159.298L654.778 158.802C653.064 161.801 650.674 164.157 647.599 165.873L648.086 166.747ZM655.645 159.301C657.529 156.06 658.463 152.267 658.463 147.94H657.463C657.463 152.12 656.562 155.734 654.78 158.799L655.645 159.301ZM658.463 147.94C658.463 144.13 657.677 140.711 656.095 137.698L655.21 138.162C656.708 141.015 657.463 144.27 657.463 147.94H658.463ZM656.095 137.698C654.505 134.669 652.083 132.289 648.848 130.559L648.377 131.441C651.449 133.084 653.72 135.325 655.21 138.162L656.095 137.698ZM648.861 130.566C645.686 128.752 641.744 127.86 637.062 127.86V128.86C641.621 128.86 645.379 129.728 648.364 131.434L648.861 130.566ZM637.062 127.86H600.323V128.86H637.062V127.86ZM599.823 128.36V168.84H600.823V128.36H599.823ZM600.323 100.92H632.883V99.92H600.323V100.92ZM632.883 100.92C636.314 100.92 639.392 100.323 642.106 99.1169L641.699 98.2031C639.133 99.3436 636.198 99.92 632.883 99.92V100.92ZM642.106 99.1169C644.835 97.9039 647.001 96.042 648.594 93.5384L647.751 93.0016C646.264 95.338 644.25 97.0694 641.699 98.2031L642.106 99.1169ZM648.598 93.5327C650.2 90.9386 650.982 87.65 650.982 83.7H649.982C649.982 87.5234 649.225 90.6147 647.747 93.0072L648.598 93.5327ZM650.982 83.7C650.982 78.7468 649.44 74.5534 646.342 71.1533L645.603 71.8267C648.518 75.0266 649.982 78.9732 649.982 83.7H650.982ZM646.342 71.1533C643.216 67.7218 638.701 66.04 632.883 66.04V67.04C638.504 67.04 642.716 68.6582 645.603 71.8267L646.342 71.1533ZM632.883 66.04H600.323V67.04H632.883V66.04ZM599.823 66.54V100.42H600.823V66.54H599.823ZM694.641 197H694.141V197.5H694.641V197ZM694.641 38.6V38.1H694.141V38.6H694.641ZM798.041 38.6H798.541V38.1H798.041V38.6ZM798.041 66.54V67.04H798.541V66.54H798.041ZM724.561 66.54V66.04H724.061V66.54H724.561ZM724.561 100.42H724.061V100.92H724.561V100.42ZM784.841 100.42H785.341V99.92H784.841V100.42ZM784.841 128.36V128.86H785.341V128.36H784.841ZM724.561 128.36V127.86H724.061V128.36H724.561ZM724.561 169.06H724.061V169.56H724.561V169.06ZM798.041 169.06H798.541V168.56H798.041V169.06ZM798.041 197V197.5H798.541V197H798.041ZM695.141 197V38.6H694.141V197H695.141ZM694.641 39.1H798.041V38.1H694.641V39.1ZM797.541 38.6V66.54H798.541V38.6H797.541ZM798.041 66.04H724.561V67.04H798.041V66.04ZM724.061 66.54V100.42H725.061V66.54H724.061ZM724.561 100.92H784.841V99.92H724.561V100.92ZM784.341 100.42V128.36H785.341V100.42H784.341ZM784.841 127.86H724.561V128.86H784.841V127.86ZM724.061 128.36V169.06H725.061V128.36H724.061ZM724.561 169.56H798.041V168.56H724.561V169.56ZM797.541 169.06V197H798.541V169.06H797.541ZM798.041 196.5H694.641V197.5H798.041V196.5ZM809.006 197H808.506V197.5H809.006V197ZM809.006 38.6V38.1H808.506V38.6H809.006ZM882.046 38.82L882.018 39.3192L882.025 39.3196L882.032 39.3198L882.046 38.82ZM889.086 39.48L888.998 39.9723L889.01 39.9741L889.086 39.48ZM912.296 48.83L911.986 49.2218L911.988 49.2236L912.296 48.83ZM925.716 66.87L925.251 67.0533L925.252 67.0549L925.716 66.87ZM920.106 125.06L920.515 125.348L920.516 125.346L920.106 125.06ZM889.086 142.44L889.12 142.939L889.142 142.937L889.163 142.934L889.086 142.44ZM875.886 143.32V143.82H875.903L875.919 143.819L875.886 143.32ZM838.926 143.32V142.82H838.426V143.32H838.926ZM838.926 197V197.5H839.426V197H838.926ZM898.326 197L897.876 197.218L898.013 197.5H898.326V197ZM867.086 132.54L866.992 132.049L866.352 132.172L866.636 132.758L867.086 132.54ZM897.886 126.6L898.336 126.381L898.168 126.036L897.792 126.109L897.886 126.6ZM932.206 197V197.5H933.006L932.656 196.781L932.206 197ZM838.926 115.38H838.426V115.88H838.926V115.38ZM879.626 115.16L879.666 115.658L879.626 115.16ZM884.686 114.28L884.555 113.798L884.549 113.799L884.686 114.28ZM894.036 108.78L894.416 109.105L894.42 109.1L894.036 108.78ZM898.546 100.09L898.064 99.9584L898.062 99.9661L898.546 100.09ZM898.546 81.94L898.061 82.0613L898.065 82.0744L898.546 81.94ZM894.036 73.25L893.652 73.5701L893.657 73.5754L894.036 73.25ZM884.686 67.64L884.549 68.1208L884.555 68.1224L884.686 67.64ZM879.626 66.76L879.586 67.2584H879.586L879.626 66.76ZM838.926 66.54V66.04H838.426V66.54H838.926ZM809.506 197V38.6H808.506V197H809.506ZM809.006 39.1H875.886V38.1H809.006V39.1ZM875.886 39.1C877.413 39.1 879.455 39.1727 882.018 39.3192L882.075 38.3208C879.504 38.1739 877.44 38.1 875.886 38.1V39.1ZM882.032 39.3198C884.654 39.3926 886.975 39.6109 888.998 39.9722L889.174 38.9878C887.091 38.6158 884.719 38.394 882.06 38.3202L882.032 39.3198ZM889.01 39.9741C898.405 41.4307 906.055 44.5207 911.986 49.2218L912.607 48.4382C906.511 43.606 898.688 40.4626 889.163 38.9859L889.01 39.9741ZM911.988 49.2236C918.004 53.9349 922.423 59.8753 925.251 67.0533L926.182 66.6867C923.289 59.3447 918.762 53.2584 912.604 48.4363L911.988 49.2236ZM925.252 67.0549C928.085 74.1747 929.506 82.1408 929.506 90.96H930.506C930.506 82.0326 929.067 73.9386 926.181 66.6851L925.252 67.0549ZM929.506 90.96C929.506 104.147 926.229 115.41 919.696 124.774L920.516 125.346C927.183 115.79 930.506 104.32 930.506 90.96H929.506ZM919.697 124.772C913.193 134.022 902.99 139.762 889.009 141.946L889.163 142.934C903.343 140.718 913.819 134.871 920.515 125.348L919.697 124.772ZM889.053 141.941L875.853 142.821L875.919 143.819L889.12 142.939L889.053 141.941ZM875.886 142.82H838.926V143.82H875.886V142.82ZM838.426 143.32V197H839.426V143.32H838.426ZM838.926 196.5H809.006V197.5H838.926V196.5ZM898.776 196.782L867.536 132.322L866.636 132.758L897.876 197.218L898.776 196.782ZM867.181 133.031L897.981 127.091L897.792 126.109L866.992 132.049L867.181 133.031ZM897.437 126.819L931.757 197.219L932.656 196.781L898.336 126.381L897.437 126.819ZM932.206 196.5H898.326V197.5H932.206V196.5ZM838.926 115.88H874.566V114.88H838.926V115.88ZM874.566 115.88C876.122 115.88 877.822 115.806 879.666 115.658L879.586 114.662C877.764 114.807 876.091 114.88 874.566 114.88V115.88ZM879.666 115.658C881.528 115.509 883.247 115.211 884.824 114.761L884.549 113.799C883.045 114.229 881.391 114.517 879.586 114.662L879.666 115.658ZM884.818 114.762C888.925 113.642 892.137 111.764 894.416 109.105L893.657 108.455C891.536 110.929 888.515 112.718 884.555 113.798L884.818 114.762ZM894.42 109.1C896.665 106.406 898.205 103.443 899.031 100.214L898.062 99.9661C897.275 103.043 895.807 105.874 893.652 108.46L894.42 109.1ZM899.029 100.222C899.918 96.9591 900.366 93.8712 900.366 90.96H899.366C899.366 93.7688 898.934 96.7676 898.064 99.9584L899.029 100.222ZM900.366 90.96C900.366 88.0486 899.918 84.9965 899.028 81.8056L898.065 82.0744C898.934 85.1902 899.366 88.1514 899.366 90.96H900.366ZM899.031 81.8187C898.206 78.5155 896.666 75.5492 894.416 72.9246L893.657 73.5754C895.807 76.0841 897.274 78.9112 898.061 82.0613L899.031 81.8187ZM894.42 72.9299C892.142 70.1955 888.928 68.2786 884.818 67.1576L884.555 68.1224C888.511 69.2014 891.531 71.0245 893.652 73.5701L894.42 72.9299ZM884.824 67.1592C883.247 66.7089 881.528 66.4105 879.666 66.2616L879.586 67.2584C881.391 67.4028 883.045 67.6911 884.549 68.1208L884.824 67.1592ZM879.666 66.2616C877.822 66.1141 876.122 66.04 874.566 66.04V67.04C876.091 67.04 877.764 67.1126 879.586 67.2584L879.666 66.2616ZM874.566 66.04H838.926V67.04H874.566V66.04ZM838.426 66.54V115.38H839.426V66.54H838.426ZM938.789 129.24H938.289V129.74H938.789V129.24ZM938.789 106.14V105.64H938.289V106.14H938.789ZM1004.79 106.14H1005.29V105.64H1004.79V106.14ZM1004.79 129.24V129.74H1005.29V129.24H1004.79ZM939.289 129.24V106.14H938.289V129.24H939.289ZM938.789 106.64H1004.79V105.64H938.789V106.64ZM1004.29 106.14V129.24H1005.29V106.14H1004.29ZM1004.79 128.74H938.789V129.74H1004.79V128.74ZM1046.02 194.14L1045.82 194.597L1045.82 194.599L1046.02 194.14ZM1022.81 176.32L1022.42 176.626L1022.42 176.63L1022.81 176.32ZM1011.37 148.6L1011.3 148.105L1010.8 148.179L1010.88 148.674L1011.37 148.6ZM1042.61 143.98L1043.1 143.862L1042.99 143.419L1042.54 143.485L1042.61 143.98ZM1056.25 164.99L1056.54 164.583L1056.25 164.99ZM1094.09 170.05L1093.93 169.576L1094.09 170.05ZM1105.42 163.23L1105.07 162.876L1105.06 162.881L1105.42 163.23ZM1109.16 147.5L1108.68 147.637L1108.69 147.651L1108.69 147.665L1109.16 147.5ZM1106.85 143.21L1107.24 142.89L1106.85 143.21ZM1102.12 139.47L1101.87 139.9L1101.87 139.904L1102.12 139.47ZM1094.53 136.28L1094.68 135.802L1094.67 135.8L1094.53 136.28ZM1053.39 124.18L1053.53 123.7L1053.53 123.699L1053.39 124.18ZM1042.61 120.44L1042.43 120.904L1042.43 120.905L1042.61 120.44ZM1030.84 113.51L1031.15 113.117L1030.84 113.51ZM1021.27 101.63L1020.82 101.854L1020.83 101.862L1021.27 101.63ZM1025.56 56.31L1025.96 56.6126L1025.56 56.31ZM1047.01 40.58L1047.19 41.0466L1047.01 40.58ZM1076.71 35.52L1076.72 35.02L1076.72 35.02L1076.71 35.52ZM1105.97 41.13L1106.17 40.6688L1105.97 41.13ZM1127.53 56.86L1127.15 57.1817L1127.15 57.1837L1127.53 56.86ZM1140.07 81.94L1140.16 82.4329L1140.69 82.3416L1140.56 81.8145L1140.07 81.94ZM1107.73 87.44L1107.24 87.5514L1107.35 88.0122L1107.82 87.9329L1107.73 87.44ZM1101.24 74.46L1100.87 74.7936L1101.24 74.46ZM1089.91 66.43L1089.72 66.8904L1089.72 66.8915L1089.91 66.43ZM1076.27 63.46L1076.26 63.9597L1076.26 63.9598L1076.27 63.46ZM1062.96 65.44L1063.12 65.9135L1063.13 65.9118L1062.96 65.44ZM1052.84 71.6L1052.48 71.2513L1052.48 71.2564L1052.84 71.6ZM1052.18 89.75L1051.82 90.0976L1051.83 90.1035L1052.18 89.75ZM1060.21 94.92L1060.4 94.4572L1060.21 94.92ZM1070.11 98.22L1070.24 97.7375L1070.24 97.7362L1070.11 98.22ZM1097.61 105.7L1097.48 106.182L1097.48 106.183L1097.61 105.7ZM1111.25 110.1L1111.08 110.569L1111.09 110.571L1111.25 110.1ZM1125.55 117.58L1125.26 117.988L1125.27 117.993L1125.55 117.58ZM1136.88 130.12L1136.45 130.365L1136.45 130.37L1136.88 130.12ZM1136 172.25L1135.57 172.005L1135.57 172.006L1136 172.25ZM1121.7 187.98L1121.98 188.393L1121.99 188.391L1121.7 187.98ZM1101.24 197.22L1101.11 196.737L1101.11 196.738L1101.24 197.22ZM1077.81 199.8C1066.14 199.8 1055.61 197.757 1046.22 193.681L1045.82 194.599C1055.35 198.736 1066.02 200.8 1077.81 200.8V199.8ZM1046.23 193.683C1036.91 189.535 1029.24 183.643 1023.2 176.01L1022.42 176.63C1028.56 184.397 1036.36 190.385 1045.82 194.597L1046.23 193.683ZM1023.21 176.014C1017.25 168.315 1013.47 159.157 1011.87 148.525L1010.88 148.674C1012.5 159.457 1016.35 168.778 1022.42 176.626L1023.21 176.014ZM1011.45 149.095L1042.69 144.475L1042.54 143.485L1011.3 148.105L1011.45 149.095ZM1042.13 144.098C1044.35 153.295 1048.96 160.406 1055.96 165.397L1056.54 164.583C1049.76 159.747 1045.27 152.852 1043.1 143.862L1042.13 144.098ZM1055.96 165.397C1062.94 170.373 1070.89 172.86 1079.79 172.86V171.86C1071.09 171.86 1063.35 169.433 1056.54 164.583L1055.96 165.397ZM1079.79 172.86C1084.76 172.86 1089.58 172.081 1094.25 170.524L1093.93 169.576C1089.37 171.099 1084.65 171.86 1079.79 171.86V172.86ZM1094.25 170.524C1098.93 168.963 1102.78 166.651 1105.78 163.579L1105.06 162.881C1102.19 165.822 1098.49 168.057 1093.93 169.576L1094.25 170.524ZM1105.78 163.584C1108.88 160.48 1110.43 156.647 1110.43 152.12H1109.43C1109.43 156.393 1107.98 159.967 1105.07 162.876L1105.78 163.584ZM1110.43 152.12C1110.43 150.453 1110.17 148.857 1109.63 147.335L1108.69 147.665C1109.18 149.077 1109.43 150.561 1109.43 152.12H1110.43ZM1109.64 147.363C1109.18 145.751 1108.38 144.259 1107.24 142.89L1106.47 143.53C1107.53 144.801 1108.26 146.169 1108.68 147.637L1109.64 147.363ZM1107.24 142.89C1106.09 141.51 1104.46 140.228 1102.37 139.036L1101.87 139.904C1103.89 141.058 1105.42 142.27 1106.47 143.53L1107.24 142.89ZM1102.38 139.04C1100.35 137.84 1097.78 136.763 1094.68 135.802L1094.38 136.758C1097.44 137.704 1099.93 138.753 1101.87 139.9L1102.38 139.04ZM1094.67 135.8L1053.53 123.7L1053.25 124.66L1094.39 136.76L1094.67 135.8ZM1053.53 123.699C1050.47 122.825 1046.89 121.584 1042.79 119.975L1042.43 120.905C1046.55 122.523 1050.15 123.775 1053.25 124.661L1053.53 123.699ZM1042.8 119.976C1038.81 118.382 1034.93 116.098 1031.15 113.117L1030.53 113.903C1034.38 116.936 1038.34 119.271 1042.43 120.904L1042.8 119.976ZM1031.15 113.117C1027.4 110.16 1024.25 106.258 1021.72 101.398L1020.83 101.862C1023.42 106.829 1026.66 110.847 1030.53 113.903L1031.15 113.117ZM1021.72 101.406C1019.27 96.5093 1018.03 90.3219 1018.03 82.82H1017.03C1017.03 90.4248 1018.29 96.7774 1020.82 101.854L1021.72 101.406ZM1018.03 82.82C1018.03 72.2732 1020.69 63.5491 1025.96 56.6126L1025.16 56.0073C1019.73 63.1509 1017.03 72.1001 1017.03 82.82H1018.03ZM1025.96 56.6126C1031.25 49.6526 1038.32 44.4628 1047.19 41.0466L1046.83 40.1134C1037.81 43.5905 1030.58 48.8873 1025.16 56.0073L1025.96 56.6126ZM1047.19 41.0466C1056.07 37.6252 1065.91 35.947 1076.71 36.02L1076.72 35.02C1065.81 34.9463 1055.84 36.6415 1046.83 40.1134L1047.19 41.0466ZM1076.71 36.02C1087.58 36.1659 1097.27 38.0265 1105.78 41.5912L1106.17 40.6688C1097.52 37.0468 1087.7 35.1674 1076.72 35.02L1076.71 36.02ZM1105.78 41.5912C1114.29 45.1548 1121.41 50.3513 1127.15 57.1817L1127.91 56.5383C1122.07 49.582 1114.82 44.2918 1106.17 40.6688L1105.78 41.5912ZM1127.15 57.1837C1132.89 63.9385 1137.04 72.228 1139.59 82.0655L1140.56 81.8145C1137.97 71.852 1133.76 63.4215 1127.91 56.5363L1127.15 57.1837ZM1139.99 81.4471L1107.65 86.9471L1107.82 87.9329L1140.16 82.4329L1139.99 81.4471ZM1108.22 87.3286C1107.03 82.1222 1104.83 77.7165 1101.61 74.1264L1100.87 74.7936C1103.96 78.2435 1106.09 82.4911 1107.24 87.5514L1108.22 87.3286ZM1101.61 74.1264C1098.41 70.5503 1094.57 67.8302 1090.1 65.9685L1089.72 66.8915C1094.05 68.6964 1097.77 71.3296 1100.87 74.7936L1101.61 74.1264ZM1090.11 65.9696C1085.72 64.1118 1081.11 63.1088 1076.29 62.9602L1076.26 63.9598C1080.96 64.1046 1085.45 65.0815 1089.72 66.8904L1090.11 65.9696ZM1076.29 62.9602C1071.54 62.8118 1067.04 63.4799 1062.8 64.9682L1063.13 65.9118C1067.25 64.4667 1071.62 63.8149 1076.26 63.9597L1076.29 62.9602ZM1062.8 64.9665C1058.63 66.3815 1055.19 68.4736 1052.48 71.2513L1053.2 71.9487C1055.78 69.2997 1059.08 67.2851 1063.12 65.9135L1062.8 64.9665ZM1052.48 71.2564C1049.82 74.0627 1048.49 77.4124 1048.49 81.28H1049.49C1049.49 77.6676 1050.73 74.5639 1053.21 71.9436L1052.48 71.2564ZM1048.49 81.28C1048.49 84.8385 1049.59 87.7922 1051.82 90.0975L1052.54 89.4025C1050.52 87.3078 1049.49 84.6148 1049.49 81.28H1048.49ZM1051.83 90.1035C1054.01 92.284 1056.74 94.0416 1060.02 95.3828L1060.4 94.4572C1057.23 93.1584 1054.61 91.4693 1052.54 89.3964L1051.83 90.1035ZM1060.02 95.3828C1063.27 96.7112 1066.59 97.8182 1069.99 98.7038L1070.24 97.7362C1066.89 96.8618 1063.61 95.7688 1060.4 94.4572L1060.02 95.3828ZM1069.98 98.7025L1097.48 106.182L1097.74 105.218L1070.24 97.7375L1069.98 98.7025ZM1097.48 106.183C1101.57 107.278 1106.1 108.74 1111.08 110.569L1111.42 109.631C1106.43 107.793 1101.87 106.322 1097.74 105.217L1097.48 106.183ZM1111.09 110.571C1116.03 112.315 1120.75 114.786 1125.26 117.988L1125.84 117.172C1121.26 113.92 1116.45 111.405 1111.42 109.629L1111.09 110.571ZM1125.27 117.993C1129.82 121.1 1133.55 125.221 1136.45 130.365L1137.32 129.875C1134.35 124.606 1130.52 120.367 1125.83 117.167L1125.27 117.993ZM1136.45 130.37C1139.4 135.48 1140.89 141.986 1140.89 149.92H1141.89C1141.89 141.867 1140.38 135.174 1137.31 129.87L1136.45 130.37ZM1140.89 149.92C1140.89 158.355 1139.11 165.711 1135.57 172.005L1136.44 172.495C1140.08 166.029 1141.89 158.499 1141.89 149.92H1140.89ZM1135.57 172.006C1132.08 178.246 1127.37 183.432 1121.42 187.569L1121.99 188.391C1128.06 184.168 1132.88 178.868 1136.44 172.494L1135.57 172.006ZM1121.42 187.567C1115.46 191.64 1108.69 194.697 1101.11 196.737L1101.37 197.703C1109.05 195.636 1115.92 192.534 1121.98 188.393L1121.42 187.567ZM1101.11 196.738C1093.6 198.779 1085.84 199.8 1077.81 199.8V200.8C1085.92 200.8 1093.78 199.768 1101.37 197.702L1101.11 196.738ZM1150.17 197H1149.67V197.5H1150.17V197ZM1150.17 38.6V38.1H1149.67V38.6H1150.17ZM1253.57 38.6H1254.07V38.1H1253.57V38.6ZM1253.57 66.54V67.04H1254.07V66.54H1253.57ZM1180.09 66.54V66.04H1179.59V66.54H1180.09ZM1180.09 100.42H1179.59V100.92H1180.09V100.42ZM1240.37 100.42H1240.87V99.92H1240.37V100.42ZM1240.37 128.36V128.86H1240.87V128.36H1240.37ZM1180.09 128.36V127.86H1179.59V128.36H1180.09ZM1180.09 169.06H1179.59V169.56H1180.09V169.06ZM1253.57 169.06H1254.07V168.56H1253.57V169.06ZM1253.57 197V197.5H1254.07V197H1253.57ZM1150.67 197V38.6H1149.67V197H1150.67ZM1150.17 39.1H1253.57V38.1H1150.17V39.1ZM1253.07 38.6V66.54H1254.07V38.6H1253.07ZM1253.57 66.04H1180.09V67.04H1253.57V66.04ZM1179.59 66.54V100.42H1180.59V66.54H1179.59ZM1180.09 100.92H1240.37V99.92H1180.09V100.92ZM1239.87 100.42V128.36H1240.87V100.42H1239.87ZM1240.37 127.86H1180.09V128.86H1240.37V127.86ZM1179.59 128.36V169.06H1180.59V128.36H1179.59ZM1180.09 169.56H1253.57V168.56H1180.09V169.56ZM1253.07 169.06V197H1254.07V169.06H1253.07ZM1253.57 196.5H1150.17V197.5H1253.57V196.5ZM1285.9 189.96L1285.64 190.388L1285.64 190.389L1285.9 189.96ZM1259.39 161.03L1258.94 161.253L1258.94 161.255L1259.39 161.03ZM1259.39 74.57L1258.94 74.3453L1258.94 74.3475L1259.39 74.57ZM1285.9 45.64L1285.64 45.211L1285.64 45.2117L1285.9 45.64ZM1372.69 48.83L1372.39 49.2334L1372.4 49.2343L1372.69 48.83ZM1398.87 85.46L1399 85.9418L1399.51 85.8017L1399.34 85.3039L1398.87 85.46ZM1368.73 93.82L1368.25 93.966L1368.39 94.4321L1368.86 94.3018L1368.73 93.82ZM1353.88 71.49L1353.57 71.8865L1353.58 71.8885L1353.88 71.49ZM1301.74 70.17L1301.46 69.7533L1301.46 69.7547L1301.74 70.17ZM1286.67 89.09L1286.21 88.8986L1286.67 89.09ZM1286.67 146.51L1286.21 146.701L1286.67 146.51ZM1301.74 165.43L1301.46 165.845L1301.46 165.847L1301.74 165.43ZM1353.88 164.11L1353.57 163.714L1353.88 164.11ZM1368.73 141.78L1368.86 141.298L1368.39 141.168L1368.25 141.633L1368.73 141.78ZM1398.87 150.14L1399.34 150.296L1399.51 149.798L1399 149.658L1398.87 150.14ZM1372.69 186.77L1372.4 186.366L1372.39 186.367L1372.69 186.77ZM1326.93 199.8C1311.16 199.8 1297.58 196.37 1286.16 189.531L1285.64 190.389C1297.25 197.337 1311.02 200.8 1326.93 200.8V199.8ZM1286.16 189.532C1274.8 182.689 1266.03 173.118 1259.84 160.805L1258.94 161.255C1265.22 173.729 1274.12 183.444 1285.64 190.388L1286.16 189.532ZM1259.84 160.807C1253.72 148.495 1250.65 134.164 1250.65 117.8H1249.65C1249.65 134.29 1252.74 148.778 1258.94 161.253L1259.84 160.807ZM1250.65 117.8C1250.65 101.436 1253.72 87.1049 1259.84 74.7925L1258.94 74.3475C1252.74 86.8217 1249.65 101.31 1249.65 117.8H1250.65ZM1259.84 74.7947C1266.03 62.4822 1274.8 52.9109 1286.16 46.0683L1285.64 45.2117C1274.12 52.1557 1265.22 61.8711 1258.94 74.3453L1259.84 74.7947ZM1286.16 46.069C1297.58 39.2299 1311.16 35.8 1326.93 35.8V34.8C1311.02 34.8 1297.25 38.2634 1285.64 45.211L1286.16 46.069ZM1326.93 35.8C1345.03 35.8 1360.17 40.2875 1372.39 49.2334L1372.98 48.4266C1360.56 39.3325 1345.2 34.8 1326.93 34.8V35.8ZM1372.4 49.2343C1384.7 58.1889 1393.36 70.3096 1398.39 85.6161L1399.34 85.3039C1394.25 69.8104 1385.47 57.5111 1372.98 48.4257L1372.4 49.2343ZM1398.74 84.9782L1368.6 93.3382L1368.86 94.3018L1399 85.9418L1398.74 84.9782ZM1369.21 93.674C1366.25 83.9823 1361.24 76.4442 1354.18 71.0915L1353.58 71.8885C1360.45 77.0958 1365.34 84.4444 1368.25 93.966L1369.21 93.674ZM1354.18 71.0935C1347.11 65.6577 1338.01 62.96 1326.93 62.96V63.96C1337.85 63.96 1346.72 66.6157 1353.57 71.8865L1354.18 71.0935ZM1326.93 62.96C1316.81 62.96 1308.31 65.2138 1301.46 69.7533L1302.02 70.5867C1308.66 66.1795 1316.96 63.96 1326.93 63.96V62.96ZM1301.46 69.7547C1294.7 74.2882 1289.61 80.6767 1286.21 88.8986L1287.13 89.2814C1290.47 81.2233 1295.43 74.9985 1302.02 70.5853L1301.46 69.7547ZM1286.21 88.8986C1282.8 97.1123 1281.11 106.75 1281.11 117.8H1282.11C1282.11 106.85 1283.79 97.3477 1287.13 89.2814L1286.21 88.8986ZM1281.11 117.8C1281.11 128.85 1282.8 138.488 1286.21 146.701L1287.13 146.319C1283.79 138.252 1282.11 128.75 1282.11 117.8H1281.11ZM1286.21 146.701C1289.61 154.923 1294.7 161.312 1301.46 165.845L1302.02 165.015C1295.43 160.602 1290.47 154.377 1287.13 146.319L1286.21 146.701ZM1301.46 165.847C1308.31 170.386 1316.81 172.64 1326.93 172.64V171.64C1316.96 171.64 1308.66 169.421 1302.02 165.013L1301.46 165.847ZM1326.93 172.64C1338.01 172.64 1347.11 169.942 1354.18 164.506L1353.57 163.714C1346.72 168.984 1337.85 171.64 1326.93 171.64V172.64ZM1354.18 164.506C1361.24 159.082 1366.25 151.546 1369.21 141.927L1368.25 141.633C1365.34 151.081 1360.45 158.432 1353.57 163.714L1354.18 164.506ZM1368.6 142.262L1398.74 150.622L1399 149.658L1368.86 141.298L1368.6 142.262ZM1398.39 149.984C1393.36 165.29 1384.7 177.411 1372.4 186.366L1372.98 187.174C1385.47 178.089 1394.25 165.79 1399.34 150.296L1398.39 149.984ZM1372.39 186.367C1360.17 195.313 1345.03 199.8 1326.93 199.8V200.8C1345.2 200.8 1360.56 196.267 1372.98 187.173L1372.39 186.367Z" fill="white" mask="url(#path-3-outside-1_55_31019)"/>
<mask id="path-5-outside-2_55_31019" maskUnits="userSpaceOnUse" x="10" y="216" width="1262" height="190" fill="black">
<rect fill="white" x="10" y="216" width="1262" height="190"/>
<path d="M86.6514 404.75C73.318 404.75 61.2764 402.417 50.5264 397.75C39.8597 393 31.068 386.25 24.1514 377.5C17.318 368.667 12.9847 358.167 11.1514 346L46.6514 340.75C49.1514 351.083 54.318 359.042 62.1514 364.625C69.9847 370.208 78.9014 373 88.9014 373C94.4847 373 99.9014 372.125 105.151 370.375C110.401 368.625 114.693 366.042 118.026 362.625C121.443 359.208 123.151 355 123.151 350C123.151 348.167 122.86 346.417 122.276 344.75C121.776 343 120.901 341.375 119.651 339.875C118.401 338.375 116.61 336.958 114.276 335.625C112.026 334.292 109.151 333.083 105.651 332L58.9014 318.25C55.4014 317.25 51.318 315.833 46.6514 314C42.068 312.167 37.6097 309.542 33.2764 306.125C28.943 302.708 25.318 298.208 22.4014 292.625C19.568 286.958 18.1514 279.833 18.1514 271.25C18.1514 259.167 21.193 249.125 27.2764 241.125C33.3597 233.125 41.4847 227.167 51.6514 223.25C61.818 219.333 73.068 217.417 85.4014 217.5C97.818 217.667 108.901 219.792 118.651 223.875C128.401 227.958 136.568 233.917 143.151 241.75C149.735 249.5 154.485 259 157.401 270.25L120.651 276.5C119.318 270.667 116.86 265.75 113.276 261.75C109.693 257.75 105.401 254.708 100.401 252.625C95.4847 250.542 90.318 249.417 84.9014 249.25C79.568 249.083 74.5264 249.833 69.7764 251.5C65.1097 253.083 61.2764 255.417 58.2764 258.5C55.3597 261.583 53.9014 265.25 53.9014 269.5C53.9014 273.417 55.1097 276.625 57.5264 279.125C59.943 281.542 62.9847 283.5 66.6514 285C70.318 286.5 74.068 287.75 77.9014 288.75L109.151 297.25C113.818 298.5 118.985 300.167 124.651 302.25C130.318 304.25 135.735 307.083 140.901 310.75C146.151 314.333 150.443 319.083 153.776 325C157.193 330.917 158.901 338.417 158.901 347.5C158.901 357.167 156.86 365.625 152.776 372.875C148.776 380.042 143.36 386 136.526 390.75C129.693 395.417 121.943 398.917 113.276 401.25C104.693 403.583 95.818 404.75 86.6514 404.75ZM243.626 404.75C225.626 404.75 210.084 400.833 197.001 393C184.001 385.167 173.959 374.208 166.876 360.125C159.876 346.042 156.376 329.667 156.376 311C156.376 292.333 159.876 275.958 166.876 261.875C173.959 247.792 184.001 236.833 197.001 229C210.084 221.167 225.626 217.25 243.626 217.25C261.626 217.25 277.126 221.167 290.126 229C303.209 236.833 313.251 247.792 320.251 261.875C327.334 275.958 330.876 292.333 330.876 311C330.876 329.667 327.334 346.042 320.251 360.125C313.251 374.208 303.209 385.167 290.126 393C277.126 400.833 261.626 404.75 243.626 404.75ZM243.626 372.75C255.043 372.917 264.543 370.458 272.126 365.375C279.709 360.292 285.376 353.083 289.126 343.75C292.959 334.417 294.876 323.5 294.876 311C294.876 298.5 292.959 287.667 289.126 278.5C285.376 269.333 279.709 262.208 272.126 257.125C264.543 252.042 255.043 249.417 243.626 249.25C232.209 249.083 222.709 251.542 215.126 256.625C207.543 261.708 201.834 268.917 198.001 278.25C194.251 287.583 192.376 298.5 192.376 311C192.376 323.5 194.251 334.333 198.001 343.5C201.834 352.667 207.543 359.792 215.126 364.875C222.709 369.958 232.209 372.583 243.626 372.75ZM338.329 401V221H372.329V369.25H449.829V401H338.329ZM524.333 404.75C509.833 404.75 497.083 401.833 486.083 396C475.083 390.083 466.5 381.792 460.333 371.125C454.166 360.458 451.083 347.917 451.083 333.5V221.25L485.583 221V333.25C485.583 339.167 486.583 344.542 488.583 349.375C490.583 354.208 493.333 358.375 496.833 361.875C500.416 365.375 504.541 368.083 509.208 370C513.958 371.833 519 372.75 524.333 372.75C529.833 372.75 534.916 371.792 539.583 369.875C544.333 367.958 548.458 365.25 551.958 361.75C555.458 358.25 558.166 354.083 560.083 349.25C562.083 344.417 563.083 339.083 563.083 333.25V221H597.583V333.5C597.583 347.917 594.5 360.458 588.333 371.125C582.166 381.792 573.583 390.083 562.583 396C551.583 401.833 538.833 404.75 524.333 404.75ZM654.229 401V252.75H597.479V221H744.979V252.75H688.229V401H654.229ZM747.567 401V221H781.567V401H747.567ZM876.292 404.75C858.292 404.75 842.75 400.833 829.667 393C816.667 385.167 806.625 374.208 799.542 360.125C792.542 346.042 789.042 329.667 789.042 311C789.042 292.333 792.542 275.958 799.542 261.875C806.625 247.792 816.667 236.833 829.667 229C842.75 221.167 858.292 217.25 876.292 217.25C894.292 217.25 909.792 221.167 922.792 229C935.875 236.833 945.917 247.792 952.917 261.875C960 275.958 963.542 292.333 963.542 311C963.542 329.667 960 346.042 952.917 360.125C945.917 374.208 935.875 385.167 922.792 393C909.792 400.833 894.292 404.75 876.292 404.75ZM876.292 372.75C887.709 372.917 897.209 370.458 904.792 365.375C912.375 360.292 918.042 353.083 921.792 343.75C925.625 334.417 927.542 323.5 927.542 311C927.542 298.5 925.625 287.667 921.792 278.5C918.042 269.333 912.375 262.208 904.792 257.125C897.209 252.042 887.709 249.417 876.292 249.25C864.875 249.083 855.375 251.542 847.792 256.625C840.209 261.708 834.5 268.917 830.667 278.25C826.917 287.583 825.042 298.5 825.042 311C825.042 323.5 826.917 334.333 830.667 343.5C834.5 352.667 840.209 359.792 847.792 364.875C855.375 369.958 864.875 372.583 876.292 372.75ZM968.495 401V221H1003L1081.25 341V221H1115.75V401H1081.25L1003 281V401H968.495ZM1198.62 404.75C1185.29 404.75 1173.25 402.417 1162.5 397.75C1151.83 393 1143.04 386.25 1136.12 377.5C1129.29 368.667 1124.96 358.167 1123.12 346L1158.62 340.75C1161.12 351.083 1166.29 359.042 1174.12 364.625C1181.96 370.208 1190.87 373 1200.87 373C1206.46 373 1211.87 372.125 1217.12 370.375C1222.37 368.625 1226.67 366.042 1230 362.625C1233.42 359.208 1235.12 355 1235.12 350C1235.12 348.167 1234.83 346.417 1234.25 344.75C1233.75 343 1232.87 341.375 1231.62 339.875C1230.37 338.375 1228.58 336.958 1226.25 335.625C1224 334.292 1221.12 333.083 1217.62 332L1170.87 318.25C1167.37 317.25 1163.29 315.833 1158.62 314C1154.04 312.167 1149.58 309.542 1145.25 306.125C1140.92 302.708 1137.29 298.208 1134.37 292.625C1131.54 286.958 1130.12 279.833 1130.12 271.25C1130.12 259.167 1133.17 249.125 1139.25 241.125C1145.33 233.125 1153.46 227.167 1163.62 223.25C1173.79 219.333 1185.04 217.417 1197.37 217.5C1209.79 217.667 1220.87 219.792 1230.62 223.875C1240.37 227.958 1248.54 233.917 1255.12 241.75C1261.71 249.5 1266.46 259 1269.37 270.25L1232.62 276.5C1231.29 270.667 1228.83 265.75 1225.25 261.75C1221.67 257.75 1217.37 254.708 1212.37 252.625C1207.46 250.542 1202.29 249.417 1196.87 249.25C1191.54 249.083 1186.5 249.833 1181.75 251.5C1177.08 253.083 1173.25 255.417 1170.25 258.5C1167.33 261.583 1165.87 265.25 1165.87 269.5C1165.87 273.417 1167.08 276.625 1169.5 279.125C1171.92 281.542 1174.96 283.5 1178.62 285C1182.29 286.5 1186.04 287.75 1189.87 288.75L1221.12 297.25C1225.79 298.5 1230.96 300.167 1236.62 302.25C1242.29 304.25 1247.71 307.083 1252.87 310.75C1258.12 314.333 1262.42 319.083 1265.75 325C1269.17 330.917 1270.87 338.417 1270.87 347.5C1270.87 357.167 1268.83 365.625 1264.75 372.875C1260.75 380.042 1255.33 386 1248.5 390.75C1241.67 395.417 1233.92 398.917 1225.25 401.25C1216.67 403.583 1207.79 404.75 1198.62 404.75Z"/>
</mask>
<path d="M86.6514 404.75C73.318 404.75 61.2764 402.417 50.5264 397.75C39.8597 393 31.068 386.25 24.1514 377.5C17.318 368.667 12.9847 358.167 11.1514 346L46.6514 340.75C49.1514 351.083 54.318 359.042 62.1514 364.625C69.9847 370.208 78.9014 373 88.9014 373C94.4847 373 99.9014 372.125 105.151 370.375C110.401 368.625 114.693 366.042 118.026 362.625C121.443 359.208 123.151 355 123.151 350C123.151 348.167 122.86 346.417 122.276 344.75C121.776 343 120.901 341.375 119.651 339.875C118.401 338.375 116.61 336.958 114.276 335.625C112.026 334.292 109.151 333.083 105.651 332L58.9014 318.25C55.4014 317.25 51.318 315.833 46.6514 314C42.068 312.167 37.6097 309.542 33.2764 306.125C28.943 302.708 25.318 298.208 22.4014 292.625C19.568 286.958 18.1514 279.833 18.1514 271.25C18.1514 259.167 21.193 249.125 27.2764 241.125C33.3597 233.125 41.4847 227.167 51.6514 223.25C61.818 219.333 73.068 217.417 85.4014 217.5C97.818 217.667 108.901 219.792 118.651 223.875C128.401 227.958 136.568 233.917 143.151 241.75C149.735 249.5 154.485 259 157.401 270.25L120.651 276.5C119.318 270.667 116.86 265.75 113.276 261.75C109.693 257.75 105.401 254.708 100.401 252.625C95.4847 250.542 90.318 249.417 84.9014 249.25C79.568 249.083 74.5264 249.833 69.7764 251.5C65.1097 253.083 61.2764 255.417 58.2764 258.5C55.3597 261.583 53.9014 265.25 53.9014 269.5C53.9014 273.417 55.1097 276.625 57.5264 279.125C59.943 281.542 62.9847 283.5 66.6514 285C70.318 286.5 74.068 287.75 77.9014 288.75L109.151 297.25C113.818 298.5 118.985 300.167 124.651 302.25C130.318 304.25 135.735 307.083 140.901 310.75C146.151 314.333 150.443 319.083 153.776 325C157.193 330.917 158.901 338.417 158.901 347.5C158.901 357.167 156.86 365.625 152.776 372.875C148.776 380.042 143.36 386 136.526 390.75C129.693 395.417 121.943 398.917 113.276 401.25C104.693 403.583 95.818 404.75 86.6514 404.75ZM243.626 404.75C225.626 404.75 210.084 400.833 197.001 393C184.001 385.167 173.959 374.208 166.876 360.125C159.876 346.042 156.376 329.667 156.376 311C156.376 292.333 159.876 275.958 166.876 261.875C173.959 247.792 184.001 236.833 197.001 229C210.084 221.167 225.626 217.25 243.626 217.25C261.626 217.25 277.126 221.167 290.126 229C303.209 236.833 313.251 247.792 320.251 261.875C327.334 275.958 330.876 292.333 330.876 311C330.876 329.667 327.334 346.042 320.251 360.125C313.251 374.208 303.209 385.167 290.126 393C277.126 400.833 261.626 404.75 243.626 404.75ZM243.626 372.75C255.043 372.917 264.543 370.458 272.126 365.375C279.709 360.292 285.376 353.083 289.126 343.75C292.959 334.417 294.876 323.5 294.876 311C294.876 298.5 292.959 287.667 289.126 278.5C285.376 269.333 279.709 262.208 272.126 257.125C264.543 252.042 255.043 249.417 243.626 249.25C232.209 249.083 222.709 251.542 215.126 256.625C207.543 261.708 201.834 268.917 198.001 278.25C194.251 287.583 192.376 298.5 192.376 311C192.376 323.5 194.251 334.333 198.001 343.5C201.834 352.667 207.543 359.792 215.126 364.875C222.709 369.958 232.209 372.583 243.626 372.75ZM338.329 401V221H372.329V369.25H449.829V401H338.329ZM524.333 404.75C509.833 404.75 497.083 401.833 486.083 396C475.083 390.083 466.5 381.792 460.333 371.125C454.166 360.458 451.083 347.917 451.083 333.5V221.25L485.583 221V333.25C485.583 339.167 486.583 344.542 488.583 349.375C490.583 354.208 493.333 358.375 496.833 361.875C500.416 365.375 504.541 368.083 509.208 370C513.958 371.833 519 372.75 524.333 372.75C529.833 372.75 534.916 371.792 539.583 369.875C544.333 367.958 548.458 365.25 551.958 361.75C555.458 358.25 558.166 354.083 560.083 349.25C562.083 344.417 563.083 339.083 563.083 333.25V221H597.583V333.5C597.583 347.917 594.5 360.458 588.333 371.125C582.166 381.792 573.583 390.083 562.583 396C551.583 401.833 538.833 404.75 524.333 404.75ZM654.229 401V252.75H597.479V221H744.979V252.75H688.229V401H654.229ZM747.567 401V221H781.567V401H747.567ZM876.292 404.75C858.292 404.75 842.75 400.833 829.667 393C816.667 385.167 806.625 374.208 799.542 360.125C792.542 346.042 789.042 329.667 789.042 311C789.042 292.333 792.542 275.958 799.542 261.875C806.625 247.792 816.667 236.833 829.667 229C842.75 221.167 858.292 217.25 876.292 217.25C894.292 217.25 909.792 221.167 922.792 229C935.875 236.833 945.917 247.792 952.917 261.875C960 275.958 963.542 292.333 963.542 311C963.542 329.667 960 346.042 952.917 360.125C945.917 374.208 935.875 385.167 922.792 393C909.792 400.833 894.292 404.75 876.292 404.75ZM876.292 372.75C887.709 372.917 897.209 370.458 904.792 365.375C912.375 360.292 918.042 353.083 921.792 343.75C925.625 334.417 927.542 323.5 927.542 311C927.542 298.5 925.625 287.667 921.792 278.5C918.042 269.333 912.375 262.208 904.792 257.125C897.209 252.042 887.709 249.417 876.292 249.25C864.875 249.083 855.375 251.542 847.792 256.625C840.209 261.708 834.5 268.917 830.667 278.25C826.917 287.583 825.042 298.5 825.042 311C825.042 323.5 826.917 334.333 830.667 343.5C834.5 352.667 840.209 359.792 847.792 364.875C855.375 369.958 864.875 372.583 876.292 372.75ZM968.495 401V221H1003L1081.25 341V221H1115.75V401H1081.25L1003 281V401H968.495ZM1198.62 404.75C1185.29 404.75 1173.25 402.417 1162.5 397.75C1151.83 393 1143.04 386.25 1136.12 377.5C1129.29 368.667 1124.96 358.167 1123.12 346L1158.62 340.75C1161.12 351.083 1166.29 359.042 1174.12 364.625C1181.96 370.208 1190.87 373 1200.87 373C1206.46 373 1211.87 372.125 1217.12 370.375C1222.37 368.625 1226.67 366.042 1230 362.625C1233.42 359.208 1235.12 355 1235.12 350C1235.12 348.167 1234.83 346.417 1234.25 344.75C1233.75 343 1232.87 341.375 1231.62 339.875C1230.37 338.375 1228.58 336.958 1226.25 335.625C1224 334.292 1221.12 333.083 1217.62 332L1170.87 318.25C1167.37 317.25 1163.29 315.833 1158.62 314C1154.04 312.167 1149.58 309.542 1145.25 306.125C1140.92 302.708 1137.29 298.208 1134.37 292.625C1131.54 286.958 1130.12 279.833 1130.12 271.25C1130.12 259.167 1133.17 249.125 1139.25 241.125C1145.33 233.125 1153.46 227.167 1163.62 223.25C1173.79 219.333 1185.04 217.417 1197.37 217.5C1209.79 217.667 1220.87 219.792 1230.62 223.875C1240.37 227.958 1248.54 233.917 1255.12 241.75C1261.71 249.5 1266.46 259 1269.37 270.25L1232.62 276.5C1231.29 270.667 1228.83 265.75 1225.25 261.75C1221.67 257.75 1217.37 254.708 1212.37 252.625C1207.46 250.542 1202.29 249.417 1196.87 249.25C1191.54 249.083 1186.5 249.833 1181.75 251.5C1177.08 253.083 1173.25 255.417 1170.25 258.5C1167.33 261.583 1165.87 265.25 1165.87 269.5C1165.87 273.417 1167.08 276.625 1169.5 279.125C1171.92 281.542 1174.96 283.5 1178.62 285C1182.29 286.5 1186.04 287.75 1189.87 288.75L1221.12 297.25C1225.79 298.5 1230.96 300.167 1236.62 302.25C1242.29 304.25 1247.71 307.083 1252.87 310.75C1258.12 314.333 1262.42 319.083 1265.75 325C1269.17 330.917 1270.87 338.417 1270.87 347.5C1270.87 357.167 1268.83 365.625 1264.75 372.875C1260.75 380.042 1255.33 386 1248.5 390.75C1241.67 395.417 1233.92 398.917 1225.25 401.25C1216.67 403.583 1207.79 404.75 1198.62 404.75Z" fill="url(#paint1_linear_55_31019)"/>
<path d="M50.5264 397.75L50.323 398.207L50.3273 398.209L50.5264 397.75ZM24.1514 377.5L23.7559 377.806L23.7591 377.81L24.1514 377.5ZM11.1514 346L11.0782 345.505L10.5822 345.579L10.6569 346.074L11.1514 346ZM46.6514 340.75L47.1373 340.632L47.03 340.189L46.5782 340.255L46.6514 340.75ZM62.1514 364.625L62.4416 364.218L62.1514 364.625ZM105.151 370.375L104.993 369.901L105.151 370.375ZM118.026 362.625L117.673 362.271L117.668 362.276L118.026 362.625ZM122.276 344.75L121.796 344.887L121.8 344.901L121.804 344.915L122.276 344.75ZM119.651 339.875L120.035 339.555L119.651 339.875ZM114.276 335.625L114.021 336.055L114.028 336.059L114.276 335.625ZM105.651 332L105.799 331.522L105.792 331.52L105.651 332ZM58.9014 318.25L59.0425 317.77L59.0387 317.769L58.9014 318.25ZM46.6514 314L46.4657 314.464L46.4685 314.465L46.6514 314ZM33.2764 306.125L33.5859 305.732L33.2764 306.125ZM22.4014 292.625L21.9541 292.849L21.9582 292.857L22.4014 292.625ZM27.2764 241.125L27.6744 241.428L27.2764 241.125ZM51.6514 223.25L51.8311 223.717L51.6514 223.25ZM85.4014 217.5L85.4081 217L85.4047 217L85.4014 217.5ZM118.651 223.875L118.845 223.414L118.651 223.875ZM143.151 241.75L142.769 242.072L142.77 242.074L143.151 241.75ZM157.401 270.25L157.485 270.743L158.022 270.652L157.885 270.125L157.401 270.25ZM120.651 276.5L120.164 276.611L120.269 277.072L120.735 276.993L120.651 276.5ZM113.276 261.75L112.904 262.084L113.276 261.75ZM100.401 252.625L100.206 253.085L100.209 253.087L100.401 252.625ZM84.9014 249.25L84.8857 249.75L84.886 249.75L84.9014 249.25ZM69.7764 251.5L69.937 251.974L69.9419 251.972L69.7764 251.5ZM58.2764 258.5L57.918 258.151L57.9131 258.156L58.2764 258.5ZM57.5264 279.125L57.1668 279.473L57.1728 279.479L57.5264 279.125ZM66.6514 285L66.8407 284.537L66.6514 285ZM77.9014 288.75L78.0326 288.268L78.0276 288.266L77.9014 288.75ZM109.151 297.25L109.02 297.732L109.022 297.733L109.151 297.25ZM124.651 302.25L124.479 302.719L124.485 302.721L124.651 302.25ZM140.901 310.75L140.612 311.158L140.62 311.163L140.901 310.75ZM153.776 325L153.341 325.245L153.343 325.25L153.776 325ZM152.776 372.875L152.341 372.63L152.34 372.631L152.776 372.875ZM136.526 390.75L136.808 391.163L136.812 391.161L136.526 390.75ZM113.276 401.25L113.146 400.767L113.145 400.768L113.276 401.25ZM86.6514 404.25C73.3771 404.25 61.4046 401.927 50.7255 397.291L50.3273 398.209C61.1482 402.906 73.2589 405.25 86.6514 405.25V404.25ZM50.7298 397.293C40.1334 392.575 31.4078 385.873 24.5436 377.19L23.7591 377.81C30.7283 386.627 39.586 393.425 50.323 398.207L50.7298 397.293ZM24.5468 377.194C17.7709 368.435 13.4677 358.017 11.6458 345.925L10.6569 346.074C12.5017 358.317 16.8652 368.898 23.7559 377.806L24.5468 377.194ZM11.2245 346.495L46.7245 341.245L46.5782 340.255L11.0782 345.505L11.2245 346.495ZM46.1654 340.868C48.6905 351.305 53.9193 359.371 61.8612 365.032L62.4416 364.218C54.7167 358.712 49.6123 350.862 47.1373 340.632L46.1654 340.868ZM61.8612 365.032C69.7827 370.678 78.8017 373.5 88.9014 373.5V372.5C79.001 372.5 70.1867 369.738 62.4416 364.218L61.8612 365.032ZM88.9014 373.5C94.538 373.5 100.008 372.616 105.309 370.849L104.993 369.901C99.7947 371.634 94.4314 372.5 88.9014 372.5V373.5ZM105.309 370.849C110.623 369.078 114.987 366.456 118.384 362.974L117.668 362.276C114.399 365.627 110.18 368.172 104.993 369.901L105.309 370.849ZM118.38 362.979C121.894 359.465 123.651 355.127 123.651 350H122.651C122.651 354.873 120.992 358.952 117.673 362.271L118.38 362.979ZM123.651 350C123.651 348.113 123.351 346.307 122.748 344.585L121.804 344.915C122.368 346.527 122.651 348.221 122.651 350H123.651ZM122.757 344.613C122.237 342.791 121.327 341.104 120.035 339.555L119.267 340.195C120.476 341.646 121.316 343.209 121.796 344.887L122.757 344.613ZM120.035 339.555C118.736 337.995 116.891 336.543 114.524 335.191L114.028 336.059C116.328 337.373 118.067 338.755 119.267 340.195L120.035 339.555ZM114.531 335.195C112.237 333.835 109.323 332.613 105.799 331.522L105.504 332.478C108.98 333.554 111.816 334.748 114.021 336.055L114.531 335.195ZM105.792 331.52L59.0425 317.77L58.7603 318.73L105.51 332.48L105.792 331.52ZM59.0387 317.769C55.5586 316.775 51.4911 315.364 46.8342 313.535L46.4685 314.465C51.145 316.303 55.2441 317.725 58.764 318.731L59.0387 317.769ZM46.8371 313.536C42.3031 311.722 37.886 309.123 33.5859 305.732L32.9668 306.518C37.3334 309.961 41.8329 312.611 46.4657 314.464L46.8371 313.536ZM33.5859 305.732C29.3153 302.365 25.7332 297.923 22.8445 292.393L21.9582 292.857C24.9029 298.494 28.5707 303.052 32.9668 306.518L33.5859 305.732ZM22.8486 292.401C20.06 286.824 18.6514 279.782 18.6514 271.25H17.6514C17.6514 279.885 19.076 287.092 21.9542 292.849L22.8486 292.401ZM18.6514 271.25C18.6514 259.253 21.6698 249.324 27.6744 241.428L26.8784 240.822C20.7163 248.926 17.6514 259.08 17.6514 271.25H18.6514ZM27.6744 241.428C33.6969 233.508 41.7434 227.603 51.8311 223.717L51.4716 222.783C41.226 226.731 33.0225 232.742 26.8784 240.822L27.6744 241.428ZM51.8311 223.717C61.9322 219.825 73.119 217.917 85.398 218L85.4047 217C73.017 216.916 61.7039 218.841 51.4716 222.783L51.8311 223.717ZM85.3947 218C97.7583 218.166 108.777 220.282 118.458 224.336L118.845 223.414C109.026 219.302 97.8778 217.167 85.4081 217L85.3947 218ZM118.458 224.336C128.137 228.39 136.238 234.301 142.769 242.072L143.534 241.428C136.898 233.532 128.665 227.527 118.845 223.414L118.458 224.336ZM142.77 242.074C149.298 249.759 154.017 259.188 156.917 270.375L157.885 270.125C154.952 258.812 150.171 249.241 143.532 241.426L142.77 242.074ZM157.318 269.757L120.568 276.007L120.735 276.993L157.485 270.743L157.318 269.757ZM121.139 276.389C119.789 270.482 117.295 265.486 113.649 261.416L112.904 262.084C116.424 266.014 118.847 270.851 120.164 276.611L121.139 276.389ZM113.649 261.416C110.015 257.36 105.662 254.275 100.594 252.163L100.209 253.087C105.141 255.141 109.371 258.14 112.904 262.084L113.649 261.416ZM100.596 252.165C95.622 250.057 90.3943 248.919 84.9167 248.75L84.886 249.75C90.2418 249.915 95.3474 251.027 100.206 253.085L100.596 252.165ZM84.917 248.75C79.5258 248.582 74.4224 249.34 69.6108 251.028L69.9419 251.972C74.6303 250.327 79.6103 249.585 84.8857 249.75L84.917 248.75ZM69.6157 251.026C64.8852 252.632 60.9807 255.004 57.918 258.151L58.6347 258.849C61.5721 255.83 65.3343 253.535 69.937 251.973L69.6157 251.026ZM57.9131 258.156C54.9085 261.333 53.4014 265.122 53.4014 269.5H54.4014C54.4014 265.378 55.8109 261.834 58.6396 258.844L57.9131 258.156ZM53.4014 269.5C53.4014 273.529 54.6484 276.867 57.1669 279.473L57.8859 278.777C55.571 276.383 54.4014 273.305 54.4014 269.5H53.4014ZM57.1728 279.479C59.6433 281.949 62.7436 283.942 66.4621 285.463L66.8407 284.537C63.2258 283.058 60.2428 281.134 57.8799 278.771L57.1728 279.479ZM66.4621 285.463C70.1493 286.971 73.9203 288.228 77.7752 289.234L78.0276 288.266C74.2157 287.272 70.4868 286.029 66.8407 284.537L66.4621 285.463ZM77.7701 289.232L109.02 297.732L109.283 296.768L78.0326 288.268L77.7701 289.232ZM109.022 297.733C113.671 298.978 118.823 300.64 124.479 302.719L124.824 301.781C119.146 299.693 113.965 298.022 109.281 296.767L109.022 297.733ZM124.485 302.721C130.106 304.705 135.481 307.516 140.612 311.158L141.191 310.342C135.988 306.65 130.531 303.795 124.818 301.779L124.485 302.721ZM140.62 311.163C145.802 314.7 150.042 319.391 153.341 325.245L154.212 324.755C150.844 318.776 146.501 313.967 141.183 310.337L140.62 311.163ZM153.343 325.25C156.704 331.07 158.401 338.476 158.401 347.5H159.401C159.401 338.357 157.682 330.764 154.209 324.75L153.343 325.25ZM158.401 347.5C158.401 357.095 156.375 365.466 152.341 372.63L153.212 373.12C157.344 365.784 159.401 357.239 159.401 347.5H158.401ZM152.34 372.631C148.377 379.731 143.013 385.632 136.241 390.339L136.812 391.161C143.707 386.368 149.175 380.353 153.213 373.119L152.34 372.631ZM136.244 390.337C129.461 394.97 121.763 398.447 113.146 400.767L113.406 401.733C122.123 399.386 129.925 395.864 136.808 391.163L136.244 390.337ZM113.145 400.768C104.606 403.089 95.7751 404.25 86.6514 404.25V405.25C95.861 405.25 104.78 404.078 113.408 401.732L113.145 400.768ZM197.001 393L196.743 393.428L196.744 393.429L197.001 393ZM166.876 360.125L166.428 360.348L166.429 360.35L166.876 360.125ZM166.876 261.875L166.429 261.65L166.428 261.652L166.876 261.875ZM197.001 229L196.744 228.571L196.743 228.572L197.001 229ZM290.126 229L289.868 229.428L289.869 229.429L290.126 229ZM320.251 261.875L319.803 262.098L319.804 262.1L320.251 261.875ZM320.251 360.125L319.804 359.9L319.803 359.902L320.251 360.125ZM290.126 393L289.869 392.571L289.868 392.572L290.126 393ZM243.626 372.75L243.619 373.25L243.626 372.75ZM272.126 365.375L272.404 365.79L272.126 365.375ZM289.126 343.75L288.663 343.56L288.662 343.564L289.126 343.75ZM289.126 278.5L288.663 278.689L288.665 278.693L289.126 278.5ZM272.126 257.125L272.404 256.71L272.126 257.125ZM243.626 249.25L243.633 248.75L243.626 249.25ZM198.001 278.25L197.538 278.06L197.537 278.064L198.001 278.25ZM198.001 343.5L197.538 343.689L197.54 343.693L198.001 343.5ZM215.126 364.875L214.848 365.29L215.126 364.875ZM243.626 404.25C225.7 404.25 210.251 400.35 197.258 392.571L196.744 393.429C209.918 401.317 225.552 405.25 243.626 405.25V404.25ZM197.259 392.572C184.343 384.789 174.365 373.903 167.323 359.9L166.429 360.35C173.553 374.514 183.659 385.544 196.743 393.428L197.259 392.572ZM167.324 359.902C160.364 345.9 156.876 329.604 156.876 311H155.876C155.876 329.73 159.388 346.183 166.428 360.348L167.324 359.902ZM156.876 311C156.876 292.396 160.364 276.1 167.324 262.098L166.428 261.652C159.388 275.817 155.876 292.27 155.876 311H156.876ZM167.323 262.1C174.365 248.097 184.343 237.211 197.259 229.428L196.743 228.572C183.659 236.456 173.553 247.486 166.429 261.65L167.323 262.1ZM197.258 229.429C210.251 221.65 225.7 217.75 243.626 217.75V216.75C225.552 216.75 209.918 220.683 196.744 228.571L197.258 229.429ZM243.626 217.75C261.552 217.75 276.959 221.65 289.868 229.428L290.384 228.572C277.293 220.683 261.7 216.75 243.626 216.75V217.75ZM289.869 229.429C302.868 237.212 312.844 248.097 319.803 262.098L320.699 261.652C313.658 247.486 303.551 236.455 290.383 228.571L289.869 229.429ZM319.804 262.1C326.847 276.102 330.376 292.397 330.376 311H331.376C331.376 292.27 327.822 275.815 320.698 261.65L319.804 262.1ZM330.376 311C330.376 329.603 326.847 345.898 319.804 359.9L320.698 360.35C327.822 346.185 331.376 329.73 331.376 311H330.376ZM319.803 359.902C312.844 373.903 302.868 384.788 289.869 392.571L290.383 393.429C303.551 385.545 313.658 374.514 320.699 360.348L319.803 359.902ZM289.868 392.572C276.959 400.35 261.552 404.25 243.626 404.25V405.25C261.7 405.25 277.293 401.317 290.384 393.428L289.868 392.572ZM243.619 373.25C255.111 373.418 264.718 370.943 272.404 365.79L271.848 364.96C264.368 369.974 254.974 372.416 243.633 372.25L243.619 373.25ZM272.404 365.79C280.08 360.645 285.806 353.353 289.59 343.936L288.662 343.564C284.945 352.814 279.339 359.938 271.848 364.96L272.404 365.79ZM289.589 343.94C293.452 334.534 295.376 323.55 295.376 311H294.376C294.376 323.45 292.467 334.299 288.663 343.56L289.589 343.94ZM295.376 311C295.376 298.45 293.452 287.548 289.587 278.307L288.665 278.693C292.467 287.785 294.376 298.55 294.376 311H295.376ZM289.589 278.311C285.804 269.06 280.077 261.853 272.404 256.71L271.848 257.54C279.341 262.564 284.948 269.606 288.663 278.689L289.589 278.311ZM272.404 256.71C264.723 251.56 255.122 248.918 243.633 248.75L243.619 249.75C254.963 249.916 264.363 252.523 271.848 257.54L272.404 256.71ZM243.633 248.75C232.141 248.582 222.534 251.057 214.848 256.21L215.404 257.04C222.884 252.026 232.278 249.584 243.619 249.75L243.633 248.75ZM214.848 256.21C207.173 261.354 201.405 268.645 197.538 278.06L198.463 278.44C202.263 269.188 207.912 262.063 215.404 257.04L214.848 256.21ZM197.537 278.064C193.758 287.469 191.876 298.451 191.876 311H192.876C192.876 298.549 194.744 287.698 198.465 278.436L197.537 278.064ZM191.876 311C191.876 323.549 193.758 334.449 197.538 343.689L198.464 343.311C194.744 334.218 192.876 323.451 192.876 311H191.876ZM197.54 343.693C201.407 352.942 207.176 360.148 214.848 365.29L215.404 364.46C207.91 359.436 202.261 352.392 198.462 343.307L197.54 343.693ZM214.848 365.29C222.529 370.44 232.13 373.082 243.619 373.25L243.633 372.25C232.289 372.084 222.889 369.477 215.404 364.46L214.848 365.29ZM338.329 401H337.829V401.5H338.329V401ZM338.329 221V220.5H337.829V221H338.329ZM372.329 221H372.829V220.5H372.329V221ZM372.329 369.25H371.829V369.75H372.329V369.25ZM449.829 369.25H450.329V368.75H449.829V369.25ZM449.829 401V401.5H450.329V401H449.829ZM338.829 401V221H337.829V401H338.829ZM338.329 221.5H372.329V220.5H338.329V221.5ZM371.829 221V369.25H372.829V221H371.829ZM372.329 369.75H449.829V368.75H372.329V369.75ZM449.329 369.25V401H450.329V369.25H449.329ZM449.829 400.5H338.329V401.5H449.829V400.5ZM486.083 396L485.846 396.44L485.849 396.442L486.083 396ZM460.333 371.125L460.766 370.875L460.333 371.125ZM451.083 221.25L451.079 220.75L450.583 220.754V221.25H451.083ZM485.583 221H486.083V220.496L485.579 220.5L485.583 221ZM488.583 349.375L489.045 349.184L488.583 349.375ZM496.833 361.875L496.479 362.229L496.484 362.233L496.833 361.875ZM509.208 370L509.018 370.463L509.028 370.466L509.208 370ZM539.583 369.875L539.396 369.411L539.393 369.412L539.583 369.875ZM560.083 349.25L559.621 349.059L559.618 349.066L560.083 349.25ZM563.083 221V220.5H562.583V221H563.083ZM597.583 221H598.083V220.5H597.583V221ZM588.333 371.125L588.766 371.375L588.333 371.125ZM562.583 396L562.817 396.442L562.82 396.44L562.583 396ZM524.333 404.25C509.901 404.25 497.234 401.347 486.317 395.558L485.849 396.442C496.932 402.319 509.765 405.25 524.333 405.25V404.25ZM486.32 395.56C475.4 389.686 466.885 381.46 460.766 370.875L459.9 371.375C466.114 382.123 474.766 390.48 485.846 396.44L486.32 395.56ZM460.766 370.875C454.65 360.296 451.583 347.844 451.583 333.5H450.583C450.583 347.989 453.683 360.62 459.9 371.375L460.766 370.875ZM451.583 333.5V221.25H450.583V333.5H451.583ZM451.087 221.75L485.587 221.5L485.579 220.5L451.079 220.75L451.087 221.75ZM485.083 221V333.25H486.083V221H485.083ZM485.083 333.25C485.083 339.224 486.093 344.665 488.121 349.566L489.045 349.184C487.073 344.419 486.083 339.11 486.083 333.25H485.083ZM488.121 349.566C490.145 354.457 492.93 358.679 496.479 362.229L497.187 361.521C493.736 358.071 491.021 353.96 489.045 349.184L488.121 349.566ZM496.484 362.233C500.113 365.778 504.292 368.522 509.018 370.463L509.398 369.537C504.79 367.645 500.719 364.972 497.182 361.517L496.484 362.233ZM509.028 370.466C513.838 372.323 518.941 373.25 524.333 373.25V372.25C519.058 372.25 514.078 371.344 509.388 369.534L509.028 370.466ZM524.333 373.25C529.892 373.25 535.041 372.281 539.773 370.338L539.393 369.412C534.792 371.302 529.774 372.25 524.333 372.25V373.25ZM539.77 370.339C544.58 368.398 548.762 365.653 552.312 362.104L551.604 361.396C548.154 364.847 544.086 367.519 539.396 369.411L539.77 370.339ZM552.312 362.104C555.862 358.553 558.607 354.328 560.548 349.434L559.618 349.066C557.725 353.839 555.054 357.947 551.604 361.396L552.312 362.104ZM560.545 349.441C562.573 344.541 563.583 339.141 563.583 333.25H562.583C562.583 339.025 561.593 344.293 559.621 349.059L560.545 349.441ZM563.583 333.25V221H562.583V333.25H563.583ZM563.083 221.5H597.583V220.5H563.083V221.5ZM597.083 221V333.5H598.083V221H597.083ZM597.083 333.5C597.083 347.844 594.016 360.296 587.9 370.875L588.766 371.375C594.984 360.62 598.083 347.989 598.083 333.5H597.083ZM587.9 370.875C581.781 381.46 573.266 389.686 562.346 395.56L562.82 396.44C573.9 390.48 582.552 382.123 588.766 371.375L587.9 370.875ZM562.349 395.558C551.432 401.347 538.765 404.25 524.333 404.25V405.25C538.901 405.25 551.734 402.319 562.817 396.442L562.349 395.558ZM654.229 401H653.729V401.5H654.229V401ZM654.229 252.75H654.729V252.25H654.229V252.75ZM597.479 252.75H596.979V253.25H597.479V252.75ZM597.479 221V220.5H596.979V221H597.479ZM744.979 221H745.479V220.5H744.979V221ZM744.979 252.75V253.25H745.479V252.75H744.979ZM688.229 252.75V252.25H687.729V252.75H688.229ZM688.229 401V401.5H688.729V401H688.229ZM654.729 401V252.75H653.729V401H654.729ZM654.229 252.25H597.479V253.25H654.229V252.25ZM597.979 252.75V221H596.979V252.75H597.979ZM597.479 221.5H744.979V220.5H597.479V221.5ZM744.479 221V252.75H745.479V221H744.479ZM744.979 252.25H688.229V253.25H744.979V252.25ZM687.729 252.75V401H688.729V252.75H687.729ZM688.229 400.5H654.229V401.5H688.229V400.5ZM747.567 401H747.067V401.5H747.567V401ZM747.567 221V220.5H747.067V221H747.567ZM781.567 221H782.067V220.5H781.567V221ZM781.567 401V401.5H782.067V401H781.567ZM748.067 401V221H747.067V401H748.067ZM747.567 221.5H781.567V220.5H747.567V221.5ZM781.067 221V401H782.067V221H781.067ZM781.567 400.5H747.567V401.5H781.567V400.5ZM829.667 393L829.409 393.428L829.41 393.429L829.667 393ZM799.542 360.125L799.094 360.348L799.095 360.35L799.542 360.125ZM799.542 261.875L799.095 261.65L799.094 261.652L799.542 261.875ZM829.667 229L829.41 228.571L829.409 228.572L829.667 229ZM922.792 229L922.534 229.428L922.535 229.429L922.792 229ZM952.917 261.875L952.469 262.098L952.47 262.1L952.917 261.875ZM952.917 360.125L952.47 359.9L952.469 359.902L952.917 360.125ZM922.792 393L922.535 392.571L922.534 392.572L922.792 393ZM876.292 372.75L876.285 373.25L876.292 372.75ZM904.792 365.375L905.07 365.79L904.792 365.375ZM921.792 343.75L921.329 343.56L921.328 343.564L921.792 343.75ZM921.792 278.5L921.329 278.689L921.331 278.693L921.792 278.5ZM904.792 257.125L905.07 256.71L904.792 257.125ZM876.292 249.25L876.299 248.75L876.292 249.25ZM830.667 278.25L830.204 278.06L830.203 278.064L830.667 278.25ZM830.667 343.5L830.204 343.689L830.206 343.693L830.667 343.5ZM847.792 364.875L847.514 365.29L847.792 364.875ZM876.292 404.25C858.366 404.25 842.917 400.35 829.924 392.571L829.41 393.429C842.584 401.317 858.218 405.25 876.292 405.25V404.25ZM829.925 392.572C817.009 384.789 807.031 373.903 799.989 359.9L799.095 360.35C806.219 374.514 816.325 385.544 829.409 393.428L829.925 392.572ZM799.99 359.902C793.03 345.9 789.542 329.604 789.542 311H788.542C788.542 329.73 792.054 346.183 799.094 360.348L799.99 359.902ZM789.542 311C789.542 292.396 793.03 276.1 799.99 262.098L799.094 261.652C792.054 275.817 788.542 292.27 788.542 311H789.542ZM799.989 262.1C807.031 248.097 817.009 237.211 829.925 229.428L829.409 228.572C816.325 236.456 806.219 247.486 799.095 261.65L799.989 262.1ZM829.924 229.429C842.917 221.65 858.366 217.75 876.292 217.75V216.75C858.218 216.75 842.584 220.683 829.41 228.571L829.924 229.429ZM876.292 217.75C894.218 217.75 909.625 221.65 922.534 229.428L923.05 228.572C909.959 220.683 894.366 216.75 876.292 216.75V217.75ZM922.535 229.429C935.534 237.212 945.51 248.097 952.469 262.098L953.365 261.652C946.324 247.486 936.217 236.455 923.049 228.571L922.535 229.429ZM952.47 262.1C959.513 276.102 963.042 292.397 963.042 311H964.042C964.042 292.27 960.488 275.815 953.364 261.65L952.47 262.1ZM963.042 311C963.042 329.603 959.513 345.898 952.47 359.9L953.364 360.35C960.488 346.185 964.042 329.73 964.042 311H963.042ZM952.469 359.902C945.51 373.903 935.534 384.788 922.535 392.571L923.049 393.429C936.217 385.545 946.324 374.514 953.365 360.348L952.469 359.902ZM922.534 392.572C909.625 400.35 894.218 404.25 876.292 404.25V405.25C894.366 405.25 909.959 401.317 923.05 393.428L922.534 392.572ZM876.285 373.25C887.777 373.418 897.384 370.943 905.07 365.79L904.514 364.96C897.034 369.974 887.64 372.416 876.299 372.25L876.285 373.25ZM905.07 365.79C912.746 360.645 918.472 353.353 922.256 343.936L921.328 343.564C917.612 352.814 912.005 359.938 904.514 364.96L905.07 365.79ZM922.255 343.94C926.118 334.534 928.042 323.55 928.042 311H927.042C927.042 323.45 925.133 334.299 921.329 343.56L922.255 343.94ZM928.042 311C928.042 298.45 926.118 287.548 922.253 278.307L921.331 278.693C925.133 287.785 927.042 298.55 927.042 311H928.042ZM922.255 278.311C918.47 269.06 912.743 261.853 905.07 256.71L904.514 257.54C912.007 262.564 917.614 269.606 921.329 278.689L922.255 278.311ZM905.07 256.71C897.389 251.56 887.788 248.918 876.299 248.75L876.285 249.75C887.629 249.916 897.029 252.523 904.514 257.54L905.07 256.71ZM876.299 248.75C864.807 248.582 855.2 251.057 847.514 256.21L848.07 257.04C855.55 252.026 864.944 249.584 876.285 249.75L876.299 248.75ZM847.514 256.21C839.839 261.354 834.071 268.645 830.204 278.06L831.13 278.44C834.929 269.188 840.578 262.063 848.07 257.04L847.514 256.21ZM830.203 278.064C826.424 287.469 824.542 298.451 824.542 311H825.542C825.542 298.549 827.41 287.698 831.131 278.436L830.203 278.064ZM824.542 311C824.542 323.549 826.424 334.449 830.204 343.689L831.13 343.311C827.41 334.218 825.542 323.451 825.542 311H824.542ZM830.206 343.693C834.073 352.942 839.842 360.148 847.514 365.29L848.07 364.46C840.576 359.436 834.927 352.392 831.128 343.307L830.206 343.693ZM847.514 365.29C855.195 370.44 864.796 373.082 876.285 373.25L876.299 372.25C864.955 372.084 855.555 369.477 848.07 364.46L847.514 365.29ZM968.495 401H967.995V401.5H968.495V401ZM968.495 221V220.5H967.995V221H968.495ZM1003 221L1003.41 220.727L1003.27 220.5H1003V221ZM1081.25 341L1080.83 341.273L1081.75 342.682V341H1081.25ZM1081.25 221V220.5H1080.75V221H1081.25ZM1115.75 221H1116.25V220.5H1115.75V221ZM1115.75 401V401.5H1116.25V401H1115.75ZM1081.25 401L1080.83 401.273L1080.97 401.5H1081.25V401ZM1003 281L1003.41 280.727L1002.5 279.318V281H1003ZM1003 401V401.5H1003.5V401H1003ZM968.995 401V221H967.995V401H968.995ZM968.495 221.5H1003V220.5H968.495V221.5ZM1002.58 221.273L1080.83 341.273L1081.66 340.727L1003.41 220.727L1002.58 221.273ZM1081.75 341V221H1080.75V341H1081.75ZM1081.25 221.5H1115.75V220.5H1081.25V221.5ZM1115.25 221V401H1116.25V221H1115.25ZM1115.75 400.5H1081.25V401.5H1115.75V400.5ZM1081.66 400.727L1003.41 280.727L1002.58 281.273L1080.83 401.273L1081.66 400.727ZM1002.5 281V401H1003.5V281H1002.5ZM1003 400.5H968.495V401.5H1003V400.5ZM1162.5 397.75L1162.3 398.207L1162.3 398.209L1162.5 397.75ZM1136.12 377.5L1135.73 377.806L1135.73 377.81L1136.12 377.5ZM1123.12 346L1123.05 345.505L1122.55 345.579L1122.63 346.074L1123.12 346ZM1158.62 340.75L1159.11 340.632L1159 340.189L1158.55 340.255L1158.62 340.75ZM1174.12 364.625L1174.41 364.218L1174.12 364.625ZM1217.12 370.375L1216.97 369.901L1217.12 370.375ZM1230 362.625L1229.65 362.271L1229.64 362.276L1230 362.625ZM1234.25 344.75L1233.77 344.887L1233.77 344.901L1233.78 344.915L1234.25 344.75ZM1231.62 339.875L1232.01 339.555L1231.62 339.875ZM1226.25 335.625L1225.99 336.055L1226 336.059L1226.25 335.625ZM1217.62 332L1217.77 331.522L1217.77 331.52L1217.62 332ZM1170.87 318.25L1171.02 317.77L1171.01 317.769L1170.87 318.25ZM1158.62 314L1158.44 314.464L1158.44 314.465L1158.62 314ZM1145.25 306.125L1145.56 305.732L1145.25 306.125ZM1134.37 292.625L1133.93 292.849L1133.93 292.857L1134.37 292.625ZM1139.25 241.125L1139.65 241.428L1139.25 241.125ZM1163.62 223.25L1163.8 223.717L1163.62 223.25ZM1197.37 217.5L1197.38 217L1197.38 217L1197.37 217.5ZM1230.62 223.875L1230.82 223.414L1230.62 223.875ZM1255.12 241.75L1254.74 242.072L1254.74 242.074L1255.12 241.75ZM1269.37 270.25L1269.46 270.743L1269.99 270.652L1269.86 270.125L1269.37 270.25ZM1232.62 276.5L1232.14 276.611L1232.24 277.072L1232.71 276.993L1232.62 276.5ZM1225.25 261.75L1224.88 262.084L1225.25 261.75ZM1212.37 252.625L1212.18 253.085L1212.18 253.087L1212.37 252.625ZM1196.87 249.25L1196.86 249.75L1196.86 249.75L1196.87 249.25ZM1181.75 251.5L1181.91 251.974L1181.91 251.972L1181.75 251.5ZM1170.25 258.5L1169.89 258.151L1169.89 258.156L1170.25 258.5ZM1169.5 279.125L1169.14 279.473L1169.15 279.479L1169.5 279.125ZM1178.62 285L1178.81 284.537L1178.62 285ZM1189.87 288.75L1190.01 288.268L1190 288.266L1189.87 288.75ZM1221.12 297.25L1220.99 297.732L1220.99 297.733L1221.12 297.25ZM1236.62 302.25L1236.45 302.719L1236.46 302.721L1236.62 302.25ZM1252.87 310.75L1252.58 311.158L1252.59 311.163L1252.87 310.75ZM1265.75 325L1265.31 325.245L1265.32 325.25L1265.75 325ZM1264.75 372.875L1264.31 372.63L1264.31 372.631L1264.75 372.875ZM1248.5 390.75L1248.78 391.163L1248.78 391.161L1248.5 390.75ZM1225.25 401.25L1225.12 400.767L1225.12 400.768L1225.25 401.25ZM1198.62 404.25C1185.35 404.25 1173.38 401.927 1162.7 397.291L1162.3 398.209C1173.12 402.906 1185.23 405.25 1198.62 405.25V404.25ZM1162.7 397.293C1152.11 392.575 1143.38 385.873 1136.52 377.19L1135.73 377.81C1142.7 386.627 1151.56 393.425 1162.3 398.207L1162.7 397.293ZM1136.52 377.194C1129.74 368.435 1125.44 358.017 1123.62 345.925L1122.63 346.074C1124.47 358.317 1128.84 368.898 1135.73 377.806L1136.52 377.194ZM1123.2 346.495L1158.7 341.245L1158.55 340.255L1123.05 345.505L1123.2 346.495ZM1158.14 340.868C1160.66 351.305 1165.89 359.371 1173.83 365.032L1174.41 364.218C1166.69 358.712 1161.58 350.862 1159.11 340.632L1158.14 340.868ZM1173.83 365.032C1181.76 370.678 1190.77 373.5 1200.87 373.5V372.5C1190.97 372.5 1182.16 369.738 1174.41 364.218L1173.83 365.032ZM1200.87 373.5C1206.51 373.5 1211.98 372.616 1217.28 370.849L1216.97 369.901C1211.77 371.634 1206.4 372.5 1200.87 372.5V373.5ZM1217.28 370.849C1222.6 369.078 1226.96 366.456 1230.36 362.974L1229.64 362.276C1226.37 365.627 1222.15 368.172 1216.97 369.901L1217.28 370.849ZM1230.35 362.979C1233.87 359.465 1235.62 355.127 1235.62 350H1234.62C1234.62 354.873 1232.96 358.952 1229.65 362.271L1230.35 362.979ZM1235.62 350C1235.62 348.113 1235.32 346.307 1234.72 344.585L1233.78 344.915C1234.34 346.527 1234.62 348.221 1234.62 350H1235.62ZM1234.73 344.613C1234.21 342.791 1233.3 341.104 1232.01 339.555L1231.24 340.195C1232.45 341.646 1233.29 343.209 1233.77 344.887L1234.73 344.613ZM1232.01 339.555C1230.71 337.995 1228.86 336.543 1226.5 335.191L1226 336.059C1228.3 337.373 1230.04 338.755 1231.24 340.195L1232.01 339.555ZM1226.5 335.195C1224.21 333.835 1221.3 332.613 1217.77 331.522L1217.48 332.478C1220.95 333.554 1223.79 334.748 1225.99 336.055L1226.5 335.195ZM1217.77 331.52L1171.02 317.77L1170.73 318.73L1217.48 332.48L1217.77 331.52ZM1171.01 317.769C1167.53 316.775 1163.46 315.364 1158.81 313.535L1158.44 314.465C1163.12 316.303 1167.22 317.725 1170.74 318.731L1171.01 317.769ZM1158.81 313.536C1154.28 311.722 1149.86 309.123 1145.56 305.732L1144.94 306.518C1149.31 309.961 1153.81 312.611 1158.44 314.464L1158.81 313.536ZM1145.56 305.732C1141.29 302.365 1137.71 297.923 1134.82 292.393L1133.93 292.857C1136.88 298.494 1140.54 303.052 1144.94 306.518L1145.56 305.732ZM1134.82 292.401C1132.03 286.824 1130.62 279.782 1130.62 271.25H1129.62C1129.62 279.885 1131.05 287.092 1133.93 292.849L1134.82 292.401ZM1130.62 271.25C1130.62 259.253 1133.64 249.324 1139.65 241.428L1138.85 240.822C1132.69 248.926 1129.62 259.08 1129.62 271.25H1130.62ZM1139.65 241.428C1145.67 233.508 1153.72 227.603 1163.8 223.717L1163.44 222.783C1153.2 226.731 1145 232.742 1138.85 240.822L1139.65 241.428ZM1163.8 223.717C1173.9 219.825 1185.09 217.917 1197.37 218L1197.38 217C1184.99 216.916 1173.68 218.841 1163.44 222.783L1163.8 223.717ZM1197.37 218C1209.73 218.166 1220.75 220.282 1230.43 224.336L1230.82 223.414C1221 219.302 1209.85 217.167 1197.38 217L1197.37 218ZM1230.43 224.336C1240.11 228.39 1248.21 234.301 1254.74 242.072L1255.51 241.428C1248.87 233.532 1240.64 227.527 1230.82 223.414L1230.43 224.336ZM1254.74 242.074C1261.27 249.759 1265.99 259.188 1268.89 270.375L1269.86 270.125C1266.93 258.812 1262.14 249.241 1255.51 241.426L1254.74 242.074ZM1269.29 269.757L1232.54 276.007L1232.71 276.993L1269.46 270.743L1269.29 269.757ZM1233.11 276.389C1231.76 270.482 1229.27 265.486 1225.62 261.416L1224.88 262.084C1228.4 266.014 1230.82 270.851 1232.14 276.611L1233.11 276.389ZM1225.62 261.416C1221.99 257.36 1217.63 254.275 1212.57 252.163L1212.18 253.087C1217.11 255.141 1221.34 258.14 1224.88 262.084L1225.62 261.416ZM1212.57 252.165C1207.59 250.057 1202.37 248.919 1196.89 248.75L1196.86 249.75C1202.21 249.915 1207.32 251.027 1212.18 253.085L1212.57 252.165ZM1196.89 248.75C1191.5 248.582 1186.4 249.34 1181.58 251.028L1181.91 251.972C1186.6 250.327 1191.58 249.585 1196.86 249.75L1196.89 248.75ZM1181.59 251.026C1176.86 252.632 1172.95 255.004 1169.89 258.151L1170.61 258.849C1173.54 255.83 1177.31 253.535 1181.91 251.973L1181.59 251.026ZM1169.89 258.156C1166.88 261.333 1165.37 265.122 1165.37 269.5H1166.37C1166.37 265.378 1167.78 261.834 1170.61 258.844L1169.89 258.156ZM1165.37 269.5C1165.37 273.529 1166.62 276.867 1169.14 279.473L1169.86 278.777C1167.54 276.383 1166.37 273.305 1166.37 269.5H1165.37ZM1169.15 279.479C1171.62 281.949 1174.72 283.942 1178.43 285.463L1178.81 284.537C1175.2 283.058 1172.22 281.134 1169.85 278.771L1169.15 279.479ZM1178.43 285.463C1182.12 286.971 1185.89 288.228 1189.75 289.234L1190 288.266C1186.19 287.272 1182.46 286.029 1178.81 284.537L1178.43 285.463ZM1189.74 289.232L1220.99 297.732L1221.26 296.768L1190.01 288.268L1189.74 289.232ZM1220.99 297.733C1225.64 298.978 1230.8 300.64 1236.45 302.719L1236.8 301.781C1231.12 299.693 1225.94 298.022 1221.25 296.767L1220.99 297.733ZM1236.46 302.721C1242.08 304.705 1247.45 307.516 1252.58 311.158L1253.16 310.342C1247.96 306.65 1242.5 303.795 1236.79 301.779L1236.46 302.721ZM1252.59 311.163C1257.77 314.7 1262.02 319.391 1265.31 325.245L1266.18 324.755C1262.82 318.776 1258.47 313.967 1253.16 310.337L1252.59 311.163ZM1265.32 325.25C1268.68 331.07 1270.37 338.476 1270.37 347.5H1271.37C1271.37 338.357 1269.65 330.764 1266.18 324.75L1265.32 325.25ZM1270.37 347.5C1270.37 357.095 1268.35 365.466 1264.31 372.63L1265.18 373.12C1269.32 365.784 1271.37 357.239 1271.37 347.5H1270.37ZM1264.31 372.631C1260.35 379.731 1254.99 385.632 1248.21 390.339L1248.78 391.161C1255.68 386.368 1261.15 380.353 1265.19 373.119L1264.31 372.631ZM1248.22 390.337C1241.43 394.97 1233.74 398.447 1225.12 400.767L1225.38 401.733C1234.1 399.386 1241.9 395.864 1248.78 391.163L1248.22 390.337ZM1225.12 400.768C1216.58 403.089 1207.75 404.25 1198.62 404.25V405.25C1207.83 405.25 1216.75 404.078 1225.38 401.732L1225.12 400.768Z" fill="white" mask="url(#path-5-outside-2_55_31019)"/>
</g>
<rect x="1.5" y="1.5" width="1278" height="446" stroke="url(#paint2_linear_55_31019)" stroke-width="3"/>
<defs>
<linearGradient id="paint0_linear_55_31019" x1="37.4643" y1="23.8125" x2="1281.3" y2="175.762" gradientUnits="userSpaceOnUse">
<stop stop-color="#FAFAFA"/>
<stop offset="0.303426" stop-color="#999999"/>
<stop offset="0.563597" stop-color="#FAFAFA"/>
<stop offset="0.804087" stop-color="#999999"/>
<stop offset="1" stop-color="white"/>
</linearGradient>
<linearGradient id="paint1_linear_55_31019" x1="138.143" y1="204.232" x2="1182.43" y2="297.858" gradientUnits="userSpaceOnUse">
<stop stop-color="#FAFAFA"/>
<stop offset="0.303426" stop-color="#999999"/>
<stop offset="0.563597" stop-color="#FAFAFA"/>
<stop offset="0.804087" stop-color="#999999"/>
<stop offset="1" stop-color="white"/>
</linearGradient>
<linearGradient id="paint2_linear_55_31019" x1="139.607" y1="93.9732" x2="1183.22" y2="165.924" gradientUnits="userSpaceOnUse">
<stop stop-color="#FAFAFA"/>
<stop offset="0.303426" stop-color="#999999"/>
<stop offset="0.563597" stop-color="#FAFAFA"/>
<stop offset="0.804087" stop-color="#999999"/>
<stop offset="1" stop-color="white"/>
</linearGradient>
<clipPath id="clip0_55_31019">
<rect x="3" y="3" width="1275" height="443" fill="white"/>
</clipPath>
</defs>
</svg>
