<svg width="379" height="248" viewBox="0 0 379 248" fill="none" xmlns="http://www.w3.org/2000/svg">
<g clip-path="url(#clip0_48_4762)">
<path d="M101.144 174.411C108.092 186.991 117.807 198.225 129.278 206.943L129.686 206.399C118.292 197.74 108.643 186.583 101.742 174.085L101.144 174.411Z" fill="url(#paint0_linear_48_4762)"/>
<path d="M112.357 181.03L110.534 182.315C114.559 187.966 119.191 193.219 124.306 197.932C129.289 202.536 134.918 206.702 141.045 210.32L142.171 208.392C136.192 204.865 130.69 200.794 125.814 196.289C120.823 191.69 116.297 186.558 112.357 181.03Z" fill="url(#paint1_linear_48_4762)"/>
<path d="M101.877 87.6371C102.122 87.026 102.397 86.425 102.663 85.8438C102.801 85.5434 102.938 85.2431 103.072 84.941L103.677 83.6016L103.978 82.9336C103.982 82.9268 103.985 82.92 103.988 82.9135L104.323 82.2621L105.463 80.0363L103.49 78.9932L102.313 81.2912L101.975 81.9565L101.665 82.6378L101.043 84.0139C100.9 84.3381 100.75 84.6683 100.604 84.9875C100.338 85.5678 100.064 86.1677 99.8245 86.765L98.7143 89.5763C98.6492 89.745 98.5813 89.9163 98.5134 90.0875C98.3977 90.3793 98.278 90.6813 98.1701 90.978L97.6871 92.4011L96.7217 95.2639C96.5245 95.9035 96.3384 96.5617 96.1584 97.1984C96.068 97.5184 95.9775 97.8383 95.8852 98.1578C95.8092 98.4359 95.7281 98.7192 95.647 99.0026C95.4552 99.6728 95.2569 100.366 95.1122 101.051C95.1113 101.055 95.1102 101.06 95.1092 101.064C93.2056 108.845 92.2269 116.87 92.2002 124.917L92.2862 128.438C92.293 128.643 92.298 128.852 92.3029 129.061C92.3118 129.432 92.321 129.815 92.3408 130.188L92.4719 131.939C92.506 132.345 92.5359 132.756 92.5659 133.167C92.6205 133.915 92.6768 134.688 92.7602 135.441L93.2048 138.937C93.9713 144.075 94.8759 148.324 96.042 152.255L98.1829 151.63C97.05 147.809 96.1671 143.66 95.4125 138.621L94.9801 135.218C94.8982 134.474 94.8436 133.726 94.7908 133.002C94.7614 132.598 94.732 132.194 94.6979 131.79L94.5683 130.081C94.5477 129.705 94.5393 129.336 94.5311 128.978C94.5264 128.77 94.5217 128.562 94.5147 128.353L94.4307 124.932C94.4306 124.928 94.4306 124.924 94.4306 124.92C94.4571 117.062 95.4131 109.219 97.2719 101.608C97.4189 100.91 97.6167 100.222 97.8079 99.5556C97.8841 99.2904 97.9603 99.0252 98.0334 98.7592C98.1386 98.3972 98.2393 98.0405 98.3399 97.6838C98.5025 97.1079 98.6705 96.5123 98.8485 95.9289C98.8498 95.9249 98.8512 95.9207 98.8525 95.9166L99.7913 93.1387L100.263 91.7515C100.382 91.4258 100.507 91.1103 100.628 90.8052C100.686 90.6589 100.744 90.5127 100.801 90.3662L101.877 87.6371Z" fill="url(#paint2_linear_48_4762)"/>
<path d="M290.287 120.781C290.278 120.411 290.269 120.027 290.249 119.655L290.118 117.904C290.084 117.498 290.054 117.088 290.024 116.677C289.969 115.929 289.913 115.155 289.83 114.402L289.385 110.905C288.619 105.767 287.714 101.518 286.548 97.5879L284.407 98.2125C285.54 102.034 286.423 106.183 287.177 111.221L287.61 114.624C287.696 115.395 287.752 116.171 287.807 116.922C287.834 117.299 287.861 117.676 287.892 118.054L288.022 119.761C288.042 120.137 288.051 120.507 288.059 120.864C288.064 121.073 288.068 121.281 288.075 121.489L288.159 124.91C288.159 124.915 288.159 124.919 288.159 124.923C288.133 132.781 287.177 140.624 285.318 148.234C285.171 148.933 284.973 149.621 284.782 150.287C284.706 150.552 284.63 150.817 284.557 151.084C284.464 151.405 284.374 151.723 284.284 152.041C284.111 152.656 283.931 153.291 283.741 153.914C283.74 153.918 283.739 153.922 283.737 153.926L282.799 156.704L282.327 158.091C282.208 158.417 282.083 158.732 281.962 159.037C281.904 159.184 281.846 159.33 281.789 159.476L280.713 162.206C280.468 162.817 280.193 163.418 279.927 163.999C279.789 164.299 279.652 164.6 279.518 164.902L278.913 166.241L278.611 166.909C278.608 166.916 278.605 166.923 278.602 166.929L278.266 167.581L277.127 169.806L279.1 170.85L280.277 168.552L280.615 167.886L280.924 167.205L281.549 165.828C281.689 165.511 281.835 165.191 281.981 164.871C282.247 164.286 282.523 163.681 282.765 163.078L283.876 160.266C283.941 160.097 284.009 159.926 284.077 159.754C284.192 159.463 284.312 159.161 284.42 158.865L284.903 157.442L285.868 154.579C286.065 153.94 286.251 153.282 286.431 152.646C286.522 152.326 286.612 152.005 286.705 151.685C286.781 151.407 286.862 151.123 286.943 150.839C287.135 150.169 287.333 149.477 287.478 148.792C287.479 148.787 287.48 148.783 287.481 148.778C289.384 140.998 290.363 132.973 290.39 124.926L290.304 121.405C290.297 121.2 290.292 120.99 290.287 120.781Z" fill="url(#paint3_linear_48_4762)"/>
<path d="M240.46 214.477L240.785 215.073C253.365 208.125 264.599 198.409 273.317 186.938L272.773 186.53C264.116 197.923 252.958 207.573 240.46 214.477Z" fill="url(#paint4_linear_48_4762)"/>
<path d="M191.295 22.7739C196.679 22.8128 202.04 23.2318 207.233 24.0193C212.182 24.7975 217.277 26.0067 222.386 27.6154L222.595 26.9708C217.453 25.3503 212.322 24.1322 207.34 23.3496C202.106 22.5559 196.707 22.1338 191.295 22.0952C175.668 22.1195 160.133 25.6939 146.341 32.4349L146.641 33.043C160.34 26.3501 175.77 22.8004 191.295 22.7739Z" fill="url(#paint5_linear_48_4762)"/>
<path d="M270.233 68.8127L272.056 67.5271C268.031 61.8763 263.399 56.6238 258.284 51.9108C253.303 47.3059 247.674 43.1398 241.545 39.5225L240.419 41.4505C246.399 44.9776 251.9 49.048 256.776 53.5537C261.767 58.152 266.293 63.2844 270.233 68.8127Z" fill="url(#paint6_linear_48_4762)"/>
<path d="M220.923 39.6397L218.315 38.7601C217.733 38.5805 217.133 38.411 216.553 38.247C216.261 38.1646 215.969 38.0821 215.678 37.9979C215.424 37.9285 215.165 37.8543 214.906 37.7801C214.297 37.6058 213.668 37.4254 213.044 37.2941C213.04 37.2932 213.035 37.292 213.03 37.2909C205.942 35.5567 198.631 34.6651 191.3 34.6406L188.091 34.7191C187.904 34.7252 187.713 34.7298 187.522 34.7344C187.185 34.7425 186.836 34.7508 186.497 34.7689L184.902 34.8883C184.532 34.9192 184.158 34.9466 183.784 34.9738C183.103 35.0236 182.398 35.075 181.711 35.1509L178.525 35.5561C173.861 36.252 170.001 37.0727 166.43 38.1298L166.978 40.0068C170.452 38.9791 174.225 38.1772 178.803 37.4915L181.905 37.0974C182.609 37.02 183.316 36.9684 184.001 36.9184C184.345 36.8934 184.689 36.8683 185.032 36.84L186.589 36.722C186.933 36.7031 187.27 36.6954 187.596 36.6879C187.786 36.6836 187.976 36.6793 188.166 36.6729L191.284 36.5964C191.288 36.5964 191.292 36.5963 191.295 36.5963H191.297C198.462 36.6205 205.613 37.492 212.552 39.187C213.19 39.3213 213.818 39.5018 214.426 39.6762C214.667 39.7456 214.909 39.8149 215.151 39.8814C215.481 39.9775 215.806 40.0692 216.132 40.161C216.657 40.3092 217.2 40.4623 217.732 40.6247C217.736 40.6259 217.74 40.6273 217.744 40.6286L220.276 41.4842L221.54 41.9146C221.838 42.0231 222.126 42.1374 222.405 42.2479C222.538 42.3008 222.671 42.3536 222.804 42.4056L225.292 43.3863C225.85 43.6099 226.398 43.8607 226.928 44.1033C227.202 44.2286 227.476 44.3539 227.751 44.4756L228.972 45.0271L229.581 45.3021C229.588 45.3051 229.594 45.3084 229.601 45.3118L230.195 45.6173L232.189 46.6385L233.104 44.909L231.044 43.8535L230.438 43.5462L229.82 43.2641L228.565 42.6973C228.285 42.5737 228.005 42.4456 227.725 42.3177C227.181 42.069 226.618 41.8118 226.058 41.5871L223.496 40.5752C223.342 40.5158 223.186 40.4538 223.029 40.3918C222.764 40.2865 222.489 40.1777 222.22 40.0796L220.923 39.6397Z" fill="url(#paint7_linear_48_4762)"/>
<path d="M103.649 131.148L103.531 129.594C103.502 129.075 103.5 128.555 103.483 128.036L103.406 124.921C103.43 117.804 104.295 110.684 105.986 103.761L103.24 103.082C101.492 110.228 100.602 117.579 100.578 124.921L100.656 128.136C100.674 128.671 100.678 129.208 100.706 129.742L100.826 131.347C100.916 132.416 100.973 133.488 101.091 134.553L101.497 137.746L104.297 137.349L103.904 134.256C103.79 133.224 103.736 132.185 103.649 131.148Z" fill="url(#paint8_linear_48_4762)"/>
<path d="M232.802 209.399C219.95 215.752 205.589 219.018 191.295 219.039C186.387 219.005 181.476 218.629 176.611 217.891C171.748 217.127 166.955 215.953 162.267 214.456L162.703 213.112C167.319 214.585 172.04 215.742 176.829 216.495C181.622 217.221 186.459 217.59 191.295 217.625C205.377 217.601 219.518 214.386 232.177 208.131L232.802 209.399Z" fill="url(#paint9_linear_48_4762)"/>
<path style="mix-blend-mode:color-dodge" opacity="0.2" d="M241.08 175.251C268.576 147.755 268.576 103.176 241.08 75.6809C213.585 48.1854 169.006 48.1854 141.511 75.6809C114.015 103.176 114.015 147.755 141.511 175.251C169.006 202.746 213.585 202.746 241.08 175.251Z" fill="url(#paint10_linear_48_4762)"/>
<path d="M241.08 175.251C268.576 147.755 268.576 103.176 241.08 75.6809C213.585 48.1854 169.006 48.1854 141.511 75.6809C114.015 103.176 114.015 147.755 141.511 175.251C169.006 202.746 213.585 202.746 241.08 175.251Z" stroke="url(#paint11_linear_48_4762)" stroke-width="2.94672" stroke-linecap="round" stroke-linejoin="round"/>
<path d="M191.296 93.2437V110.139" stroke="url(#paint12_linear_48_4762)" stroke-width="2.94672" stroke-linecap="round" stroke-linejoin="round"/>
<path d="M201.655 104.006C209.878 107.893 215.567 116.263 215.567 125.962C215.567 139.367 204.701 150.234 191.296 150.234C177.891 150.234 167.024 139.367 167.024 125.962C167.024 116.263 172.714 107.893 180.937 104.006" stroke="url(#paint13_linear_48_4762)" stroke-width="2.94672" stroke-linecap="round" stroke-linejoin="round"/>
<path style="mix-blend-mode:color-dodge" d="M272.694 86.2292C286.302 72.622 279.608 43.8655 257.743 21.9998C235.878 0.134148 207.121 -6.56067 193.514 7.04653C179.906 20.6537 186.6 49.4102 208.465 71.2759C230.33 93.1416 259.087 99.8364 272.694 86.2292Z" fill="url(#paint14_radial_48_4762)"/>
<path style="mix-blend-mode:color-dodge" opacity="0.6" d="M250.789 64.323C262.373 52.7391 263.845 35.4306 254.078 25.6633C244.311 15.8961 227.002 17.3688 215.418 28.9527C203.835 40.5366 202.362 57.8451 212.13 67.6124C221.897 77.3796 239.206 75.9069 250.789 64.323Z" fill="url(#paint15_radial_48_4762)"/>
<path style="mix-blend-mode:color-dodge" d="M232.113 121.379C238.084 110.943 229.331 94.7057 212.563 85.1112C195.794 75.5167 177.36 76.1984 171.389 86.6338C165.419 97.0692 174.172 113.307 190.94 122.901C207.709 132.496 226.142 131.814 232.113 121.379Z" fill="url(#paint16_radial_48_4762)"/>
<path style="mix-blend-mode:color-dodge" opacity="0.6" d="M188.189 96.2468C193.272 87.3632 203.464 83.6359 210.955 87.9217C218.445 92.2075 220.397 102.884 215.314 111.767C210.232 120.651 200.039 124.378 192.548 120.092C185.058 115.806 183.106 105.13 188.189 96.2468Z" fill="url(#paint17_radial_48_4762)"/>
<path style="mix-blend-mode:color-dodge" d="M206.301 239.714C223.62 222.396 212.913 183.609 182.386 153.081C151.859 122.554 113.073 111.846 95.754 129.165C78.4352 146.483 89.1423 185.27 119.669 215.797C150.196 246.325 188.982 257.032 206.301 239.714Z" fill="url(#paint18_radial_48_4762)"/>
<path style="mix-blend-mode:color-dodge" opacity="0.6" d="M175.719 209.13C182.813 202.035 177.51 185.23 163.873 171.593C150.236 157.957 133.431 152.654 126.336 159.748C119.242 166.843 124.545 183.649 138.182 197.285C151.819 210.921 168.624 216.225 175.719 209.13Z" fill="url(#paint19_radial_48_4762)"/>
<g opacity="0.8">
<path style="mix-blend-mode:color-dodge" d="M159.287 230.566C170.157 219.696 163.437 195.351 144.276 176.19C125.115 157.029 100.77 150.308 89.8999 161.178C79.0295 172.048 85.75 196.393 104.911 215.554C124.071 234.715 148.416 241.436 159.287 230.566Z" fill="url(#paint20_radial_48_4762)"/>
<path style="mix-blend-mode:color-dodge" opacity="0.6" d="M140.091 211.369C144.544 206.916 141.215 196.368 132.656 187.809C124.096 179.25 113.548 175.921 109.095 180.374C104.642 184.827 107.971 195.376 116.53 203.935C125.089 212.494 135.638 215.822 140.091 211.369Z" fill="url(#paint21_radial_48_4762)"/>
</g>
<path style="mix-blend-mode:color-dodge" d="M151.594 123.375C152.965 121.776 164.752 129.634 177.921 140.927C191.09 152.22 200.654 162.67 199.283 164.269C197.912 165.868 186.125 158.01 172.956 146.717C159.787 135.424 150.223 124.973 151.594 123.375Z" fill="url(#paint22_radial_48_4762)"/>
<path style="mix-blend-mode:color-dodge" opacity="0.6" d="M186.091 152.956C191.017 147.211 190.242 138.464 184.359 133.42C178.477 128.375 169.714 128.943 164.788 134.688C159.861 140.433 160.637 149.18 166.519 154.224C172.402 159.269 181.164 158.701 186.091 152.956Z" fill="url(#paint23_radial_48_4762)"/>
<path style="mix-blend-mode:color-dodge" opacity="0.7" d="M193.806 159.572C197.917 154.778 193.027 143.839 182.883 135.14C172.739 126.442 161.183 123.277 157.072 128.071C152.96 132.866 157.85 143.804 167.994 152.503C178.138 161.202 189.694 164.367 193.806 159.572Z" fill="url(#paint24_radial_48_4762)"/>
<path style="mix-blend-mode:color-dodge" d="M152.973 88.5491C164.849 88.5491 174.476 78.7847 174.476 66.7396C174.476 54.6946 164.849 44.9302 152.973 44.9302C141.097 44.9302 131.469 54.6946 131.469 66.7396C131.469 78.7847 141.097 88.5491 152.973 88.5491Z" fill="url(#paint25_radial_48_4762)"/>
<path style="mix-blend-mode:color-dodge" d="M109.944 47.17C113.567 47.17 116.505 44.1906 116.505 40.5154C116.505 36.8402 113.567 33.8608 109.944 33.8608C106.32 33.8608 103.382 36.8402 103.382 40.5154C103.382 44.1906 106.32 47.17 109.944 47.17Z" fill="url(#paint26_radial_48_4762)"/>
<path style="mix-blend-mode:color-dodge" d="M137.726 87.3915C142.967 87.3915 147.216 83.0819 147.216 77.7658C147.216 72.4497 142.967 68.1401 137.726 68.1401C132.484 68.1401 128.235 72.4497 128.235 77.7658C128.235 83.0819 132.484 87.3915 137.726 87.3915Z" fill="url(#paint27_radial_48_4762)"/>
<path style="mix-blend-mode:color-dodge" d="M159.086 55.8664C162.463 55.8664 165.201 53.0899 165.201 49.6649C165.201 46.2399 162.463 43.4634 159.086 43.4634C155.709 43.4634 152.972 46.2399 152.972 49.6649C152.972 53.0899 155.709 55.8664 159.086 55.8664Z" fill="url(#paint28_radial_48_4762)"/>
<path style="mix-blend-mode:color-dodge" d="M139.594 51.4626C139.594 53.833 137.699 55.7544 135.362 55.7544C133.025 55.7544 131.131 53.833 131.131 51.4626C131.131 49.0923 133.025 47.1709 135.362 47.1709C137.7 47.1709 139.594 49.0924 139.594 51.4626Z" fill="url(#paint29_radial_48_4762)"/>
<path style="mix-blend-mode:color-dodge" d="M111.679 82.4591C117.611 82.4591 122.42 77.5818 122.42 71.5652C122.42 65.5487 117.611 60.6714 111.679 60.6714C105.747 60.6714 100.938 65.5487 100.938 71.5652C100.938 77.5818 105.747 82.4591 111.679 82.4591Z" fill="url(#paint30_radial_48_4762)"/>
<path style="mix-blend-mode:color-dodge" d="M133.136 116.969C142.718 116.969 150.486 109.091 150.486 99.3724C150.486 89.6538 142.718 81.7754 133.136 81.7754C123.554 81.7754 115.786 89.6538 115.786 99.3724C115.786 109.091 123.554 116.969 133.136 116.969Z" fill="url(#paint31_radial_48_4762)"/>
<path style="mix-blend-mode:color-dodge" d="M155.767 43.0232C161.28 37.5111 161.217 28.5103 155.626 22.9194C150.035 17.3285 141.035 17.2646 135.522 22.7767C130.01 28.2889 130.073 37.2896 135.664 42.8805C141.254 48.4714 150.255 48.5353 155.767 43.0232Z" fill="url(#paint32_radial_48_4762)"/>
<path style="mix-blend-mode:color-dodge" d="M174.742 28.1447C173.037 26.4388 173.017 23.6925 174.699 22.0105C176.381 20.3286 179.127 20.3481 180.833 22.054C182.539 23.7598 182.558 26.5062 180.876 28.1881C179.195 29.87 176.448 29.8505 174.742 28.1447Z" fill="url(#paint33_radial_48_4762)"/>
<path style="mix-blend-mode:color-dodge" d="M97.3551 33.2678C101.803 28.8202 101.752 21.558 97.2407 17.047C92.7299 12.5361 85.4676 12.4848 81.02 16.9323C76.5723 21.3799 76.6235 28.6422 81.1344 33.1531C85.6452 37.664 92.9075 37.7154 97.3551 33.2678Z" fill="url(#paint34_radial_48_4762)"/>
<path style="mix-blend-mode:color-dodge" d="M183.375 208.146C188.395 203.126 151.645 158.235 101.29 107.88C50.9361 57.5245 6.04603 20.7731 1.02568 25.7934C-3.99466 30.8136 32.7558 75.7044 83.1102 126.06C133.465 176.415 178.355 213.167 183.375 208.146Z" fill="url(#paint35_radial_48_4762)"/>
<path style="mix-blend-mode:color-dodge" d="M282.773 114.222C232.419 63.8669 193.427 21.2175 195.682 18.9622C197.937 16.707 240.586 55.6997 290.94 106.055C341.295 156.411 380.287 199.06 378.031 201.315C375.776 203.571 333.127 164.578 282.773 114.222Z" fill="url(#paint36_radial_48_4762)"/>
</g>
<defs>
<linearGradient id="paint0_linear_48_4762" x1="101.144" y1="190.514" x2="129.686" y2="190.514" gradientUnits="userSpaceOnUse">
<stop stop-color="#59ACFF"/>
<stop offset="0.66807" stop-color="#59ACFF"/>
<stop offset="0.99155" stop-color="#59ACFF"/>
<stop offset="1" stop-color="#59ACFF"/>
</linearGradient>
<linearGradient id="paint1_linear_48_4762" x1="110.534" y1="195.675" x2="142.171" y2="195.675" gradientUnits="userSpaceOnUse">
<stop stop-color="#59ACFF"/>
<stop offset="0.66807" stop-color="#59ACFF"/>
<stop offset="0.99155" stop-color="#59ACFF"/>
<stop offset="1" stop-color="#59ACFF"/>
</linearGradient>
<linearGradient id="paint2_linear_48_4762" x1="92.2002" y1="115.624" x2="105.463" y2="115.624" gradientUnits="userSpaceOnUse">
<stop stop-color="#59ACFF"/>
<stop offset="0.66807" stop-color="#59ACFF"/>
<stop offset="0.99155" stop-color="#59ACFF"/>
<stop offset="1" stop-color="#59ACFF"/>
</linearGradient>
<linearGradient id="paint3_linear_48_4762" x1="277.127" y1="134.219" x2="290.39" y2="134.219" gradientUnits="userSpaceOnUse">
<stop stop-color="#59ACFF"/>
<stop offset="0.66807" stop-color="#59ACFF"/>
<stop offset="0.99155" stop-color="#59ACFF"/>
<stop offset="1" stop-color="#59ACFF"/>
</linearGradient>
<linearGradient id="paint4_linear_48_4762" x1="240.46" y1="200.802" x2="273.317" y2="200.802" gradientUnits="userSpaceOnUse">
<stop stop-color="#59ACFF"/>
<stop offset="0.66807" stop-color="#59ACFF"/>
<stop offset="0.99155" stop-color="#59ACFF"/>
<stop offset="1" stop-color="#59ACFF"/>
</linearGradient>
<linearGradient id="paint5_linear_48_4762" x1="146.341" y1="27.5691" x2="222.595" y2="27.5691" gradientUnits="userSpaceOnUse">
<stop stop-color="#59ACFF"/>
<stop offset="0.66807" stop-color="#59ACFF"/>
<stop offset="0.99155" stop-color="#59ACFF"/>
<stop offset="1" stop-color="#59ACFF"/>
</linearGradient>
<linearGradient id="paint6_linear_48_4762" x1="240.419" y1="54.1676" x2="272.056" y2="54.1676" gradientUnits="userSpaceOnUse">
<stop stop-color="#59ACFF"/>
<stop offset="0.66807" stop-color="#59ACFF"/>
<stop offset="0.99155" stop-color="#59ACFF"/>
<stop offset="1" stop-color="#59ACFF"/>
</linearGradient>
<linearGradient id="paint7_linear_48_4762" x1="166.43" y1="40.6396" x2="233.104" y2="40.6396" gradientUnits="userSpaceOnUse">
<stop stop-color="#59ACFF"/>
<stop offset="0.66807" stop-color="#59ACFF"/>
<stop offset="0.99155" stop-color="#59ACFF"/>
<stop offset="1" stop-color="#59ACFF"/>
</linearGradient>
<linearGradient id="paint8_linear_48_4762" x1="100.578" y1="120.414" x2="105.986" y2="120.414" gradientUnits="userSpaceOnUse">
<stop stop-color="#59ACFF"/>
<stop offset="0.66807" stop-color="#59ACFF"/>
<stop offset="0.99155" stop-color="#59ACFF"/>
<stop offset="1" stop-color="#59ACFF"/>
</linearGradient>
<linearGradient id="paint9_linear_48_4762" x1="162.267" y1="213.585" x2="232.802" y2="213.585" gradientUnits="userSpaceOnUse">
<stop stop-color="#59ACFF"/>
<stop offset="0.66807" stop-color="#59ACFF"/>
<stop offset="0.99155" stop-color="#59ACFF"/>
<stop offset="1" stop-color="#59ACFF"/>
</linearGradient>
<linearGradient id="paint10_linear_48_4762" x1="141.511" y1="75.6809" x2="241.08" y2="175.251" gradientUnits="userSpaceOnUse">
<stop offset="0.00406" stop-color="#59ACFF"/>
<stop offset="0.17196" stop-color="#59ACFF" stop-opacity="0.5"/>
<stop offset="0.19305" stop-color="#59ACFF" stop-opacity="0.277518"/>
<stop offset="0.47087" stop-color="#59ACFF" stop-opacity="0.749644"/>
<stop offset="0.59707" stop-color="#59ACFF"/>
<stop offset="0.59963" stop-color="#59ACFF" stop-opacity="0.96926"/>
<stop offset="0.63639" stop-color="#59ACFF" stop-opacity="0.605268"/>
<stop offset="0.67244" stop-color="#59ACFF" stop-opacity="0.367879"/>
<stop offset="0.70699" stop-color="#59ACFF" stop-opacity="0.223852"/>
<stop offset="0.73967" stop-color="#59ACFF" stop-opacity="0.14262"/>
<stop offset="0.76973" stop-color="#59ACFF" stop-opacity="0.102362"/>
<stop offset="0.79467" stop-color="#59ACFF" stop-opacity="0.3"/>
<stop offset="0.83922" stop-color="#59ACFF" stop-opacity="0.0991494"/>
<stop offset="0.88174" stop-color="#59ACFF" stop-opacity="0.1296"/>
<stop offset="0.92345" stop-color="#59ACFF" stop-opacity="0.189652"/>
<stop offset="0.96438" stop-color="#59ACFF" stop-opacity="0.292281"/>
<stop offset="1" stop-color="#59ACFF" stop-opacity="0.65772"/>
</linearGradient>
<linearGradient id="paint11_linear_48_4762" x1="155.35" y1="187.726" x2="227.241" y2="63.2058" gradientUnits="userSpaceOnUse">
<stop stop-color="#59ACFF"/>
<stop offset="0.00961" stop-color="#5DA7FF"/>
<stop offset="0.14792" stop-color="#956DFF"/>
<stop offset="0.25025" stop-color="#B749FF"/>
<stop offset="0.30472" stop-color="#C53CFF"/>
<stop offset="0.41368" stop-color="#AA57FF"/>
<stop offset="0.58568" stop-color="#877BFF"/>
<stop offset="0.74613" stop-color="#6D96FF"/>
<stop offset="0.88908" stop-color="#5EA6FF"/>
<stop offset="1" stop-color="#59ACFF"/>
</linearGradient>
<linearGradient id="paint12_linear_48_4762" x1="-nan" y1="-nan" x2="-nan" y2="-nan" gradientUnits="userSpaceOnUse">
<stop stop-color="#C53CFF"/>
<stop offset="0.11735" stop-color="#A85AFF"/>
<stop offset="0.26218" stop-color="#8B77FF"/>
<stop offset="0.41586" stop-color="#758EFF"/>
<stop offset="0.58025" stop-color="#659FFF"/>
<stop offset="0.76284" stop-color="#5BA8FF"/>
<stop offset="1" stop-color="#59ACFF"/>
</linearGradient>
<linearGradient id="paint13_linear_48_4762" x1="178.421" y1="148.262" x2="204.17" y2="103.663" gradientUnits="userSpaceOnUse">
<stop stop-color="#C53CFF"/>
<stop offset="0.11735" stop-color="#A85AFF"/>
<stop offset="0.26218" stop-color="#8B77FF"/>
<stop offset="0.41586" stop-color="#758EFF"/>
<stop offset="0.58025" stop-color="#659FFF"/>
<stop offset="0.76284" stop-color="#5BA8FF"/>
<stop offset="1" stop-color="#59ACFF"/>
</linearGradient>
<radialGradient id="paint14_radial_48_4762" cx="0" cy="0" r="1" gradientUnits="userSpaceOnUse" gradientTransform="translate(233.079 46.6601) rotate(-135) scale(55.979 34.8503)">
<stop stop-color="white"/>
<stop offset="0.15805" stop-color="#C0C0C0" stop-opacity="0.569889"/>
<stop offset="0.3231" stop-color="#868686" stop-opacity="0.278847"/>
<stop offset="0.48305" stop-color="#565656" stop-opacity="0.114935"/>
<stop offset="0.63359" stop-color="#303030" stop-opacity="0.0368141"/>
<stop offset="0.77254" stop-color="#161616" stop-opacity="0.01"/>
<stop offset="0.89574" stop-color="#050505" stop-opacity="0.01"/>
<stop offset="0.99036" stop-opacity="0"/>
</radialGradient>
<radialGradient id="paint15_radial_48_4762" cx="0" cy="0" r="1" gradientUnits="userSpaceOnUse" gradientTransform="translate(233.11 46.6358) rotate(-135) scale(25.0104 29.6629)">
<stop stop-color="white"/>
<stop offset="0.00872" stop-color="#F8F8F8" stop-opacity="0.951639"/>
<stop offset="0.08683" stop-color="#C5C5C5" stop-opacity="0.597807"/>
<stop offset="0.1703" stop-color="#969696" stop-opacity="0.347345"/>
<stop offset="0.25718" stop-color="#6D6D6D" stop-opacity="0.185614"/>
<stop offset="0.34831" stop-color="#4B4B4B" stop-opacity="0.088423"/>
<stop offset="0.4449" stop-color="#303030" stop-opacity="0.0356266"/>
<stop offset="0.54882" stop-color="#1A1A1A" stop-opacity="0.0110019"/>
<stop offset="0.66371" stop-color="#0B0B0B" stop-opacity="0.01"/>
<stop offset="0.7981" stop-color="#020202" stop-opacity="0.01"/>
<stop offset="0.99921" stop-opacity="0"/>
</radialGradient>
<radialGradient id="paint16_radial_48_4762" cx="0" cy="0" r="1" gradientUnits="userSpaceOnUse" gradientTransform="translate(201.634 103.898) rotate(-150.218) scale(34.9793 21.7702)">
<stop stop-color="white"/>
<stop offset="0.15805" stop-color="#C0C0C0" stop-opacity="0.569889"/>
<stop offset="0.3231" stop-color="#868686" stop-opacity="0.278847"/>
<stop offset="0.48305" stop-color="#565656" stop-opacity="0.114935"/>
<stop offset="0.63359" stop-color="#303030" stop-opacity="0.0368141"/>
<stop offset="0.77254" stop-color="#161616" stop-opacity="0.01"/>
<stop offset="0.89574" stop-color="#050505" stop-opacity="0.01"/>
<stop offset="0.99036" stop-opacity="0"/>
</radialGradient>
<radialGradient id="paint17_radial_48_4762" cx="0" cy="0" r="1" gradientUnits="userSpaceOnUse" gradientTransform="translate(201.827 104.056) rotate(-150.22) scale(15.6272 18.5305)">
<stop stop-color="white"/>
<stop offset="0.00872" stop-color="#F8F8F8" stop-opacity="0.951639"/>
<stop offset="0.08683" stop-color="#C5C5C5" stop-opacity="0.597807"/>
<stop offset="0.1703" stop-color="#969696" stop-opacity="0.347345"/>
<stop offset="0.25718" stop-color="#6D6D6D" stop-opacity="0.185614"/>
<stop offset="0.34831" stop-color="#4B4B4B" stop-opacity="0.088423"/>
<stop offset="0.4449" stop-color="#303030" stop-opacity="0.0356266"/>
<stop offset="0.54882" stop-color="#1A1A1A" stop-opacity="0.0110019"/>
<stop offset="0.66371" stop-color="#0B0B0B" stop-opacity="0.01"/>
<stop offset="0.7981" stop-color="#020202" stop-opacity="0.01"/>
<stop offset="0.99921" stop-opacity="0"/>
</radialGradient>
<radialGradient id="paint18_radial_48_4762" cx="0" cy="0" r="1" gradientUnits="userSpaceOnUse" gradientTransform="translate(151.023 184.441) rotate(-135) scale(78.1708 44.3461)">
<stop stop-color="white"/>
<stop offset="0.15805" stop-color="#C0C0C0" stop-opacity="0.569889"/>
<stop offset="0.3231" stop-color="#868686" stop-opacity="0.278847"/>
<stop offset="0.48305" stop-color="#565656" stop-opacity="0.114935"/>
<stop offset="0.63359" stop-color="#303030" stop-opacity="0.0368141"/>
<stop offset="0.77254" stop-color="#161616" stop-opacity="0.01"/>
<stop offset="0.89574" stop-color="#050505" stop-opacity="0.01"/>
<stop offset="0.99036" stop-opacity="0"/>
</radialGradient>
<radialGradient id="paint19_radial_48_4762" cx="0" cy="0" r="1" gradientUnits="userSpaceOnUse" gradientTransform="translate(151.055 184.416) rotate(-135) scale(34.9216 18.1653)">
<stop stop-color="white"/>
<stop offset="0.00872" stop-color="#F8F8F8" stop-opacity="0.951639"/>
<stop offset="0.08683" stop-color="#C5C5C5" stop-opacity="0.597807"/>
<stop offset="0.1703" stop-color="#969696" stop-opacity="0.347345"/>
<stop offset="0.25718" stop-color="#6D6D6D" stop-opacity="0.185614"/>
<stop offset="0.34831" stop-color="#4B4B4B" stop-opacity="0.088423"/>
<stop offset="0.4449" stop-color="#303030" stop-opacity="0.0356266"/>
<stop offset="0.54882" stop-color="#1A1A1A" stop-opacity="0.0110019"/>
<stop offset="0.66371" stop-color="#0B0B0B" stop-opacity="0.01"/>
<stop offset="0.7981" stop-color="#020202" stop-opacity="0.01"/>
<stop offset="0.99921" stop-opacity="0"/>
</radialGradient>
<radialGradient id="paint20_radial_48_4762" cx="0" cy="0" r="1" gradientUnits="userSpaceOnUse" gradientTransform="translate(124.588 195.874) rotate(-135) scale(49.0652 27.8345)">
<stop stop-color="white"/>
<stop offset="0.15805" stop-color="#C0C0C0" stop-opacity="0.569889"/>
<stop offset="0.3231" stop-color="#868686" stop-opacity="0.278847"/>
<stop offset="0.48305" stop-color="#565656" stop-opacity="0.114935"/>
<stop offset="0.63359" stop-color="#303030" stop-opacity="0.0368141"/>
<stop offset="0.77254" stop-color="#161616" stop-opacity="0.01"/>
<stop offset="0.89574" stop-color="#050505" stop-opacity="0.01"/>
<stop offset="0.99036" stop-opacity="0"/>
</radialGradient>
<radialGradient id="paint21_radial_48_4762" cx="0" cy="0" r="1" gradientUnits="userSpaceOnUse" gradientTransform="translate(124.619 195.849) rotate(-135) scale(21.9191 11.4017)">
<stop stop-color="white"/>
<stop offset="0.00872" stop-color="#F8F8F8" stop-opacity="0.951639"/>
<stop offset="0.08683" stop-color="#C5C5C5" stop-opacity="0.597807"/>
<stop offset="0.1703" stop-color="#969696" stop-opacity="0.347345"/>
<stop offset="0.25718" stop-color="#6D6D6D" stop-opacity="0.185614"/>
<stop offset="0.34831" stop-color="#4B4B4B" stop-opacity="0.088423"/>
<stop offset="0.4449" stop-color="#303030" stop-opacity="0.0356266"/>
<stop offset="0.54882" stop-color="#1A1A1A" stop-opacity="0.0110019"/>
<stop offset="0.66371" stop-color="#0B0B0B" stop-opacity="0.01"/>
<stop offset="0.7981" stop-color="#020202" stop-opacity="0.01"/>
<stop offset="0.99921" stop-opacity="0"/>
</radialGradient>
<radialGradient id="paint22_radial_48_4762" cx="0" cy="0" r="1" gradientUnits="userSpaceOnUse" gradientTransform="translate(175.951 144.329) rotate(-139.386) scale(31.4134 3.81366)">
<stop stop-color="white"/>
<stop offset="0.15805" stop-color="#C0C0C0" stop-opacity="0.569889"/>
<stop offset="0.3231" stop-color="#868686" stop-opacity="0.278847"/>
<stop offset="0.48305" stop-color="#565656" stop-opacity="0.114935"/>
<stop offset="0.63359" stop-color="#303030" stop-opacity="0.0368141"/>
<stop offset="0.77254" stop-color="#161616" stop-opacity="0.01"/>
<stop offset="0.89574" stop-color="#050505" stop-opacity="0.01"/>
<stop offset="0.99036" stop-opacity="0"/>
</radialGradient>
<radialGradient id="paint23_radial_48_4762" cx="0" cy="0" r="1" gradientUnits="userSpaceOnUse" gradientTransform="translate(175.283 143.721) rotate(-139.385) scale(14.0316 13.7029)">
<stop stop-color="white"/>
<stop offset="0.00872" stop-color="#F8F8F8" stop-opacity="0.951639"/>
<stop offset="0.08683" stop-color="#C5C5C5" stop-opacity="0.597807"/>
<stop offset="0.1703" stop-color="#969696" stop-opacity="0.347345"/>
<stop offset="0.25718" stop-color="#6D6D6D" stop-opacity="0.185614"/>
<stop offset="0.34831" stop-color="#4B4B4B" stop-opacity="0.088423"/>
<stop offset="0.4449" stop-color="#303030" stop-opacity="0.0356266"/>
<stop offset="0.54882" stop-color="#1A1A1A" stop-opacity="0.0110019"/>
<stop offset="0.66371" stop-color="#0B0B0B" stop-opacity="0.01"/>
<stop offset="0.7981" stop-color="#020202" stop-opacity="0.01"/>
<stop offset="0.99921" stop-opacity="0"/>
</radialGradient>
<radialGradient id="paint24_radial_48_4762" cx="0" cy="0" r="1" gradientUnits="userSpaceOnUse" gradientTransform="translate(175.498 143.846) rotate(-139.386) scale(24.196 11.436)">
<stop stop-color="white"/>
<stop offset="0.00872" stop-color="#F8F8F8" stop-opacity="0.951639"/>
<stop offset="0.08683" stop-color="#C5C5C5" stop-opacity="0.597807"/>
<stop offset="0.1703" stop-color="#969696" stop-opacity="0.347345"/>
<stop offset="0.25718" stop-color="#6D6D6D" stop-opacity="0.185614"/>
<stop offset="0.34831" stop-color="#4B4B4B" stop-opacity="0.088423"/>
<stop offset="0.4449" stop-color="#303030" stop-opacity="0.0356266"/>
<stop offset="0.54882" stop-color="#1A1A1A" stop-opacity="0.0110019"/>
<stop offset="0.66371" stop-color="#0B0B0B" stop-opacity="0.01"/>
<stop offset="0.7981" stop-color="#020202" stop-opacity="0.01"/>
<stop offset="0.99921" stop-opacity="0"/>
</radialGradient>
<radialGradient id="paint25_radial_48_4762" cx="0" cy="0" r="1" gradientUnits="userSpaceOnUse" gradientTransform="translate(152.973 66.7396) scale(21.5037 21.8094)">
<stop stop-color="white"/>
<stop offset="0.14976" stop-color="#C4C4C4" stop-opacity="0.594225"/>
<stop offset="0.31931" stop-color="#898989" stop-opacity="0.29092"/>
<stop offset="0.48321" stop-color="#585858" stop-opacity="0.119986"/>
<stop offset="0.63694" stop-color="#323232" stop-opacity="0.0384552"/>
<stop offset="0.77815" stop-color="#161616" stop-opacity="0.01"/>
<stop offset="0.90236" stop-color="#050505" stop-opacity="0.01"/>
<stop offset="0.99639" stop-opacity="0"/>
</radialGradient>
<radialGradient id="paint26_radial_48_4762" cx="0" cy="0" r="1" gradientUnits="userSpaceOnUse" gradientTransform="translate(109.944 40.5154) scale(6.56126 6.65454)">
<stop stop-color="white"/>
<stop offset="0.14976" stop-color="#C4C4C4" stop-opacity="0.594225"/>
<stop offset="0.31931" stop-color="#898989" stop-opacity="0.29092"/>
<stop offset="0.48321" stop-color="#585858" stop-opacity="0.119986"/>
<stop offset="0.63694" stop-color="#323232" stop-opacity="0.0384552"/>
<stop offset="0.77815" stop-color="#161616" stop-opacity="0.01"/>
<stop offset="0.90236" stop-color="#050505" stop-opacity="0.01"/>
<stop offset="0.99639" stop-opacity="0"/>
</radialGradient>
<radialGradient id="paint27_radial_48_4762" cx="0" cy="0" r="1" gradientUnits="userSpaceOnUse" gradientTransform="translate(137.726 77.7658) scale(9.49071 9.62564)">
<stop stop-color="white"/>
<stop offset="0.14976" stop-color="#C4C4C4" stop-opacity="0.594225"/>
<stop offset="0.31931" stop-color="#898989" stop-opacity="0.29092"/>
<stop offset="0.48321" stop-color="#585858" stop-opacity="0.119986"/>
<stop offset="0.63694" stop-color="#323232" stop-opacity="0.0384552"/>
<stop offset="0.77815" stop-color="#161616" stop-opacity="0.01"/>
<stop offset="0.90236" stop-color="#050505" stop-opacity="0.01"/>
<stop offset="0.99639" stop-opacity="0"/>
</radialGradient>
<radialGradient id="paint28_radial_48_4762" cx="0" cy="0" r="1" gradientUnits="userSpaceOnUse" gradientTransform="translate(159.086 49.6649) scale(6.11457 6.2015)">
<stop stop-color="white"/>
<stop offset="0.14976" stop-color="#C4C4C4" stop-opacity="0.594225"/>
<stop offset="0.31931" stop-color="#898989" stop-opacity="0.29092"/>
<stop offset="0.48321" stop-color="#585858" stop-opacity="0.119986"/>
<stop offset="0.63694" stop-color="#323232" stop-opacity="0.0384552"/>
<stop offset="0.77815" stop-color="#161616" stop-opacity="0.01"/>
<stop offset="0.90236" stop-color="#050505" stop-opacity="0.01"/>
<stop offset="0.99639" stop-opacity="0"/>
</radialGradient>
<radialGradient id="paint29_radial_48_4762" cx="0" cy="0" r="1" gradientUnits="userSpaceOnUse" gradientTransform="translate(135.362 51.4627) scale(4.23161 4.29177)">
<stop stop-color="white"/>
<stop offset="0.14976" stop-color="#C4C4C4" stop-opacity="0.594225"/>
<stop offset="0.31931" stop-color="#898989" stop-opacity="0.29092"/>
<stop offset="0.48321" stop-color="#585858" stop-opacity="0.119986"/>
<stop offset="0.63694" stop-color="#323232" stop-opacity="0.0384552"/>
<stop offset="0.77815" stop-color="#161616" stop-opacity="0.01"/>
<stop offset="0.90236" stop-color="#050505" stop-opacity="0.01"/>
<stop offset="0.99639" stop-opacity="0"/>
</radialGradient>
<radialGradient id="paint30_radial_48_4762" cx="0" cy="0" r="1" gradientUnits="userSpaceOnUse" gradientTransform="translate(111.679 71.5652) scale(10.7411 10.8938)">
<stop stop-color="white"/>
<stop offset="0.14976" stop-color="#C4C4C4" stop-opacity="0.594225"/>
<stop offset="0.31931" stop-color="#898989" stop-opacity="0.29092"/>
<stop offset="0.48321" stop-color="#585858" stop-opacity="0.119986"/>
<stop offset="0.63694" stop-color="#323232" stop-opacity="0.0384552"/>
<stop offset="0.77815" stop-color="#161616" stop-opacity="0.01"/>
<stop offset="0.90236" stop-color="#050505" stop-opacity="0.01"/>
<stop offset="0.99639" stop-opacity="0"/>
</radialGradient>
<radialGradient id="paint31_radial_48_4762" cx="0" cy="0" r="1" gradientUnits="userSpaceOnUse" gradientTransform="translate(133.136 99.3724) scale(17.3502 17.5969)">
<stop stop-color="white"/>
<stop offset="0.14976" stop-color="#C4C4C4" stop-opacity="0.594225"/>
<stop offset="0.31931" stop-color="#898989" stop-opacity="0.29092"/>
<stop offset="0.48321" stop-color="#585858" stop-opacity="0.119986"/>
<stop offset="0.63694" stop-color="#323232" stop-opacity="0.0384552"/>
<stop offset="0.77815" stop-color="#161616" stop-opacity="0.01"/>
<stop offset="0.90236" stop-color="#050505" stop-opacity="0.01"/>
<stop offset="0.99639" stop-opacity="0"/>
</radialGradient>
<radialGradient id="paint32_radial_48_4762" cx="0" cy="0" r="1" gradientUnits="userSpaceOnUse" gradientTransform="translate(145.643 32.9151) rotate(135) scale(14.1154 14.3157)">
<stop stop-color="white"/>
<stop offset="0.14976" stop-color="#C4C4C4" stop-opacity="0.594225"/>
<stop offset="0.31931" stop-color="#898989" stop-opacity="0.29092"/>
<stop offset="0.48321" stop-color="#585858" stop-opacity="0.119986"/>
<stop offset="0.63694" stop-color="#323232" stop-opacity="0.0384552"/>
<stop offset="0.77815" stop-color="#161616" stop-opacity="0.01"/>
<stop offset="0.90236" stop-color="#050505" stop-opacity="0.01"/>
<stop offset="0.99639" stop-opacity="0"/>
</radialGradient>
<radialGradient id="paint33_radial_48_4762" cx="0" cy="0" r="1" gradientUnits="userSpaceOnUse" gradientTransform="translate(177.786 25.1144) rotate(135) scale(4.30693 4.36805)">
<stop stop-color="white"/>
<stop offset="0.14976" stop-color="#C4C4C4" stop-opacity="0.594225"/>
<stop offset="0.31931" stop-color="#898989" stop-opacity="0.29092"/>
<stop offset="0.48321" stop-color="#585858" stop-opacity="0.119986"/>
<stop offset="0.63694" stop-color="#323232" stop-opacity="0.0384552"/>
<stop offset="0.77815" stop-color="#161616" stop-opacity="0.01"/>
<stop offset="0.90236" stop-color="#050505" stop-opacity="0.01"/>
<stop offset="0.99639" stop-opacity="0"/>
</radialGradient>
<radialGradient id="paint34_radial_48_4762" cx="0" cy="0" r="1" gradientUnits="userSpaceOnUse" gradientTransform="translate(89.186 25.1145) rotate(135) scale(11.389 11.5506)">
<stop stop-color="white"/>
<stop offset="0.14976" stop-color="#C4C4C4" stop-opacity="0.594225"/>
<stop offset="0.31931" stop-color="#898989" stop-opacity="0.29092"/>
<stop offset="0.48321" stop-color="#585858" stop-opacity="0.119986"/>
<stop offset="0.63694" stop-color="#323232" stop-opacity="0.0384552"/>
<stop offset="0.77815" stop-color="#161616" stop-opacity="0.01"/>
<stop offset="0.90236" stop-color="#050505" stop-opacity="0.01"/>
<stop offset="0.99639" stop-opacity="0"/>
</radialGradient>
<radialGradient id="paint35_radial_48_4762" cx="0" cy="0" r="1" gradientUnits="userSpaceOnUse" gradientTransform="translate(92.27 116.895) rotate(135.001) scale(12.8551 128.944)">
<stop stop-color="#FF52D9"/>
<stop offset="0.14976" stop-color="#C43FA7" stop-opacity="0.594225"/>
<stop offset="0.31931" stop-color="#892C75" stop-opacity="0.29092"/>
<stop offset="0.48321" stop-color="#581C4B" stop-opacity="0.119986"/>
<stop offset="0.63694" stop-color="#32102A" stop-opacity="0.0384552"/>
<stop offset="0.77815" stop-color="#160713" stop-opacity="0.01"/>
<stop offset="0.90236" stop-color="#050104" stop-opacity="0.01"/>
<stop offset="0.99639" stop-opacity="0"/>
</radialGradient>
<radialGradient id="paint36_radial_48_4762" cx="0" cy="0" r="1" gradientUnits="userSpaceOnUse" gradientTransform="translate(287.015 109.957) rotate(135) scale(5.77482 128.947)">
<stop stop-color="#FF52D9"/>
<stop offset="0.14976" stop-color="#C43FA7" stop-opacity="0.594225"/>
<stop offset="0.31931" stop-color="#892C75" stop-opacity="0.29092"/>
<stop offset="0.48321" stop-color="#581C4B" stop-opacity="0.119986"/>
<stop offset="0.63694" stop-color="#32102A" stop-opacity="0.0384552"/>
<stop offset="0.77815" stop-color="#160713" stop-opacity="0.01"/>
<stop offset="0.90236" stop-color="#050104" stop-opacity="0.01"/>
<stop offset="0.99639" stop-opacity="0"/>
</radialGradient>
<clipPath id="clip0_48_4762">
<rect width="377.556" height="248" fill="white" transform="translate(0.567383)"/>
</clipPath>
</defs>
</svg>
