<svg width="24" height="24" viewBox="0 0 24 24" fill="none" xmlns="http://www.w3.org/2000/svg">
<path fill-rule="evenodd" clip-rule="evenodd" d="M12 19C12.9193 19 13.8295 18.8189 14.6788 18.4672C15.5281 18.1154 16.2997 17.5998 16.9497 16.9497C17.5998 16.2997 18.1154 15.5281 18.4672 14.6788C18.8189 13.8295 19 12.9193 19 12C19 11.0807 18.8189 10.1705 18.4672 9.32122C18.1154 8.47194 17.5998 7.70026 16.9497 7.05025C16.2997 6.40024 15.5281 5.88463 14.6788 5.53284C13.8295 5.18106 12.9193 5 12 5C10.1435 5 8.36301 5.7375 7.05025 7.05025C5.7375 8.36301 5 10.1435 5 12C5 13.8565 5.7375 15.637 7.05025 16.9497C8.36301 18.2625 10.1435 19 12 19ZM10.087 7.38C10.6935 7.12899 11.3436 6.99986 12 7C12.1326 7 12.2598 6.94732 12.3536 6.85355C12.4473 6.75979 12.5 6.63261 12.5 6.5C12.5 6.36739 12.4473 6.24021 12.3536 6.14645C12.2598 6.05268 12.1326 6 12 6C10.4087 6 8.88258 6.63214 7.75736 7.75736C6.63214 8.88258 6 10.4087 6 12C6 12.1326 6.05268 12.2598 6.14645 12.3536C6.24021 12.4473 6.36739 12.5 6.5 12.5C6.63261 12.5 6.75979 12.4473 6.85355 12.3536C6.94732 12.2598 7 12.1326 7 12C6.99992 11.0109 7.29317 10.0441 7.84266 9.22171C8.39215 8.39934 9.1732 7.75841 10.087 7.38Z" fill="#FAFAFA" fill-opacity="0.25"/>
<path d="M20.5 20.5L17 17" stroke="#FAFAFA" stroke-linecap="round"/>
<path d="M11 19.5C15.6944 19.5 19.5 15.6944 19.5 11C19.5 6.30558 15.6944 2.5 11 2.5C6.30558 2.5 2.5 6.30558 2.5 11C2.5 15.6944 6.30558 19.5 11 19.5Z" stroke="#FAFAFA"/>
</svg>
