<svg width="36" height="36" viewBox="0 0 36 36" fill="none" xmlns="http://www.w3.org/2000/svg">
<path d="M4.5 16.5L18 12L31.5 16.5M18 3V32.25" stroke="#D468E9" stroke-width="1.5"/>
<path d="M4.7895 21C6.075 27.447 11.364 30.7695 14.8485 32.2905C15.93 32.763 16.4715 33 18 33C19.53 33 20.07 32.763 21.1515 32.2905C22.02 31.9125 22.998 31.4205 24 30.7995M28.5 26.856C30.2445 24.642 31.5 21.744 31.5 17.9865V15.6255C31.5 10.8285 31.5 8.43 30.933 7.623C30.3675 6.8175 28.113 6.045 23.6025 4.5015L22.743 4.2075C20.3925 3.402 19.218 3 18 3C16.782 3 15.6075 3.402 13.257 4.2075L12.3975 4.5C7.887 6.045 5.6325 6.8175 5.067 7.623C4.5 8.43 4.5 10.83 4.5 15.6255V16.5" stroke="#D468E9" stroke-width="1.5" stroke-linecap="round"/>
</svg>
