<svg width="360" height="356" viewBox="0 0 360 356" fill="none" xmlns="http://www.w3.org/2000/svg">
<g filter="url(#filter0_f_236_2571)">
<ellipse cx="731.297" cy="419.405" rx="731.297" ry="419.405" transform="matrix(-0.996053 -0.0887589 0.274954 -0.961457 777.231 1236.07)" fill="#02ADFF"/>
</g>
<g filter="url(#filter1_f_236_2571)">
<ellipse cx="920.732" cy="300.985" rx="920.732" ry="300.985" transform="matrix(-0.997792 -0.066412 0.284967 -0.958537 1042.28 1050.01)" fill="#8FC2E1"/>
</g>
<g filter="url(#filter2_f_236_2571)">
<ellipse cx="756.816" cy="444.017" rx="756.816" ry="444.017" transform="matrix(-0.879412 -0.476061 0.533932 -0.845527 710.06 1595.83)" fill="#0B3447"/>
</g>
<ellipse cx="1196.84" cy="301.121" rx="1196.84" ry="301.121" transform="matrix(-0.993557 -0.113329 0.107235 -0.994234 1511.16 1269.56)" fill="url(#paint0_linear_236_2571)"/>
<g filter="url(#filter4_f_236_2571)">
<path d="M-938.56 590.465C-854.009 552.312 -730.199 520.577 -576.687 497.71C-423.176 474.843 -244.069 461.457 -53.1936 458.583C137.682 455.71 335.222 463.427 524.176 481.138C713.13 498.849 888.446 526.081 1036.59 560.732L483.749 692.623C434.516 681.107 376.253 672.057 313.457 666.171C250.661 660.285 185.012 657.72 121.578 658.675C58.1434 659.63 -1.37971 664.079 -52.3968 671.678C-103.414 679.278 -144.56 689.824 -172.659 702.504L-938.56 590.465Z" fill="url(#paint1_linear_236_2571)"/>
</g>
<g style="mix-blend-mode:darken" opacity="0.25" filter="url(#filter5_f_236_2571)">
<ellipse cx="1427.13" cy="308.541" rx="1427.13" ry="308.541" transform="matrix(-0.995905 -0.090401 0.179044 -0.983841 1552.65 1197.01)" fill="url(#paint2_linear_236_2571)"/>
</g>
<defs>
<filter id="filter0_f_236_2571" x="-912.304" y="20.578" width="2152.88" height="1494.69" filterUnits="userSpaceOnUse" color-interpolation-filters="sRGB">
<feFlood flood-opacity="0" result="BackgroundImageFix"/>
<feBlend mode="normal" in="SourceGraphic" in2="BackgroundImageFix" result="shape"/>
<feGaussianBlur stdDeviation="169.426" result="effect1_foregroundBlur_236_2571"/>
</filter>
<filter id="filter1_f_236_2571" x="-813.4" y="305.377" width="2045.51" height="789.95" filterUnits="userSpaceOnUse" color-interpolation-filters="sRGB">
<feFlood flood-opacity="0" result="BackgroundImageFix"/>
<feBlend mode="normal" in="SourceGraphic" in2="BackgroundImageFix" result="shape"/>
<feGaussianBlur stdDeviation="50" result="effect1_foregroundBlur_236_2571"/>
</filter>
<filter id="filter2_f_236_2571" x="-763.981" y="0.91391" width="2091.12" height="1718.39" filterUnits="userSpaceOnUse" color-interpolation-filters="sRGB">
<feFlood flood-opacity="0" result="BackgroundImageFix"/>
<feBlend mode="normal" in="SourceGraphic" in2="BackgroundImageFix" result="shape"/>
<feGaussianBlur stdDeviation="169.426" result="effect1_foregroundBlur_236_2571"/>
</filter>
<filter id="filter4_f_236_2571" x="-1107.99" y="288.571" width="2314" height="583.359" filterUnits="userSpaceOnUse" color-interpolation-filters="sRGB">
<feFlood flood-opacity="0" result="BackgroundImageFix"/>
<feBlend mode="normal" in="SourceGraphic" in2="BackgroundImageFix" result="shape"/>
<feGaussianBlur stdDeviation="84.7131" result="effect1_foregroundBlur_236_2571"/>
</filter>
<filter id="filter5_f_236_2571" x="-1405.21" y="265.091" width="3183.62" height="998.69" filterUnits="userSpaceOnUse" color-interpolation-filters="sRGB">
<feFlood flood-opacity="0" result="BackgroundImageFix"/>
<feBlend mode="normal" in="SourceGraphic" in2="BackgroundImageFix" result="shape"/>
<feGaussianBlur stdDeviation="84.7131" result="effect1_foregroundBlur_236_2571"/>
</filter>
<linearGradient id="paint0_linear_236_2571" x1="1196.84" y1="3.28509e-05" x2="1333.96" y2="531.867" gradientUnits="userSpaceOnUse">
<stop stop-color="#FF0000" stop-opacity="0"/>
<stop offset="1" stop-color="#FDB833"/>
</linearGradient>
<linearGradient id="paint1_linear_236_2571" x1="-1062.77" y1="730.047" x2="1356.1" y2="210.291" gradientUnits="userSpaceOnUse">
<stop stop-color="#F8ED8C" stop-opacity="0"/>
<stop offset="1" stop-color="#FFF7B1"/>
</linearGradient>
<linearGradient id="paint2_linear_236_2571" x1="1355.02" y1="69.9591" x2="1446.39" y2="613.846" gradientUnits="userSpaceOnUse">
<stop/>
<stop offset="1" stop-opacity="0"/>
</linearGradient>
</defs>
</svg>
