<svg width="360" height="697" viewBox="0 0 360 697" fill="none" xmlns="http://www.w3.org/2000/svg">
<g opacity="0.8">
<g filter="url(#filter0_f_236_2564)">
<ellipse cx="422.937" cy="247.245" rx="422.937" ry="247.245" transform="matrix(-0.92259 0.385783 -0.285576 -0.958356 497.609 143.898)" fill="#8FC2E1"/>
</g>
<g filter="url(#filter1_f_236_2564)">
<ellipse cx="450.919" cy="289.34" rx="450.919" ry="289.34" transform="matrix(-0.979747 0.200238 -0.152576 -0.988292 1002.16 241.439)" fill="#02ADFF"/>
</g>
<g filter="url(#filter2_f_236_2564)">
<ellipse cx="519.247" cy="285.501" rx="519.247" ry="285.501" transform="matrix(-0.989606 -0.143807 0.291806 -0.956478 1065.16 350.494)" fill="#0B3447"/>
</g>
<g filter="url(#filter3_f_236_2564)">
<ellipse cx="834.754" cy="188.694" rx="834.754" ry="188.694" transform="matrix(-0.979334 0.202251 -0.200305 -0.979734 974.083 112.271)" fill="url(#paint0_linear_236_2564)"/>
</g>
<g filter="url(#filter4_f_236_2564)">
<path d="M-292.751 385.484C-411.094 405.861 -515.158 416.152 -596.909 415.562C-678.661 414.973 -735.915 403.518 -764.249 382.082C-792.584 360.647 -791.243 329.803 -760.329 291.934C-729.415 254.064 -669.755 210.181 -585.955 163.671L-149.434 125.667C-177.283 141.124 -197.11 155.708 -207.384 168.293C-217.658 180.878 -218.104 191.129 -208.687 198.252C-199.27 205.376 -180.243 209.183 -153.074 209.379C-125.905 209.575 -91.3215 206.155 -51.9921 199.383L-292.751 385.484Z" fill="url(#paint1_linear_236_2564)"/>
</g>
<g style="mix-blend-mode:darken" opacity="0.25" filter="url(#filter5_f_236_2564)">
<ellipse cx="995.505" cy="193.581" rx="995.505" ry="193.581" transform="matrix(-0.974936 0.222484 -0.120679 -0.992691 949.79 141.681)" fill="url(#paint2_linear_236_2564)"/>
</g>
</g>
<defs>
<filter id="filter0_f_236_2564" x="-698.651" y="-556.46" width="1470.91" height="1253.14" filterUnits="userSpaceOnUse" color-interpolation-filters="sRGB">
<feFlood flood-opacity="0" result="BackgroundImageFix"/>
<feBlend mode="normal" in="SourceGraphic" in2="BackgroundImageFix" result="shape"/>
<feGaussianBlur stdDeviation="169.426" result="effect1_foregroundBlur_236_2564"/>
</filter>
<filter id="filter1_f_236_2564" x="-266.649" y="-593.023" width="1565.74" height="1277.6" filterUnits="userSpaceOnUse" color-interpolation-filters="sRGB">
<feFlood flood-opacity="0" result="BackgroundImageFix"/>
<feBlend mode="normal" in="SourceGraphic" in2="BackgroundImageFix" result="shape"/>
<feGaussianBlur stdDeviation="169.426" result="effect1_foregroundBlur_236_2564"/>
</filter>
<filter id="filter2_f_236_2564" x="-224.868" y="-619.277" width="1718.98" height="1244.05" filterUnits="userSpaceOnUse" color-interpolation-filters="sRGB">
<feFlood flood-opacity="0" result="BackgroundImageFix"/>
<feBlend mode="normal" in="SourceGraphic" in2="BackgroundImageFix" result="shape"/>
<feGaussianBlur stdDeviation="169.426" result="effect1_foregroundBlur_236_2564"/>
</filter>
<filter id="filter3_f_236_2564" x="-835.149" y="-289.672" width="1907.87" height="771.805" filterUnits="userSpaceOnUse" color-interpolation-filters="sRGB">
<feFlood flood-opacity="0" result="BackgroundImageFix"/>
<feBlend mode="normal" in="SourceGraphic" in2="BackgroundImageFix" result="shape"/>
<feGaussianBlur stdDeviation="67.7704" result="effect1_foregroundBlur_236_2564"/>
</filter>
<filter id="filter4_f_236_2564" x="-953.977" y="-43.7589" width="1071.41" height="628.771" filterUnits="userSpaceOnUse" color-interpolation-filters="sRGB">
<feFlood flood-opacity="0" result="BackgroundImageFix"/>
<feBlend mode="normal" in="SourceGraphic" in2="BackgroundImageFix" result="shape"/>
<feGaussianBlur stdDeviation="84.7131" result="effect1_foregroundBlur_236_2564"/>
</filter>
<filter id="filter5_f_236_2564" x="-1184.39" y="-291.661" width="2280.53" height="925.319" filterUnits="userSpaceOnUse" color-interpolation-filters="sRGB">
<feFlood flood-opacity="0" result="BackgroundImageFix"/>
<feBlend mode="normal" in="SourceGraphic" in2="BackgroundImageFix" result="shape"/>
<feGaussianBlur stdDeviation="84.7131" result="effect1_foregroundBlur_236_2564"/>
</filter>
<linearGradient id="paint0_linear_236_2564" x1="834.754" y1="2.05856e-05" x2="912.892" y2="337.341" gradientUnits="userSpaceOnUse">
<stop stop-color="#FF0000" stop-opacity="0"/>
<stop offset="1" stop-color="#FDB833"/>
</linearGradient>
<linearGradient id="paint1_linear_236_2564" x1="120.713" y1="287.887" x2="14.2603" y2="-74.1743" gradientUnits="userSpaceOnUse">
<stop stop-color="#F8ED8C" stop-opacity="0"/>
<stop offset="1" stop-color="#FFF7B1"/>
</linearGradient>
<linearGradient id="paint2_linear_236_2564" x1="945.203" y1="43.893" x2="997.039" y2="386.931" gradientUnits="userSpaceOnUse">
<stop/>
<stop offset="1" stop-opacity="0"/>
</linearGradient>
</defs>
</svg>
