<svg width="360" height="674" viewBox="0 0 360 674" fill="none" xmlns="http://www.w3.org/2000/svg">
<g filter="url(#filter0_f_120_2817)">
<ellipse cx="731.297" cy="419.405" rx="731.297" ry="419.405" transform="matrix(-0.996053 -0.0887589 0.274954 -0.961457 446.152 1235.36)" fill="#02ADFF"/>
</g>
<g filter="url(#filter1_f_120_2817)">
<ellipse cx="920.732" cy="300.985" rx="920.732" ry="300.985" transform="matrix(-0.997792 -0.066412 0.284967 -0.958537 711.205 1049.3)" fill="#8FC2E1"/>
</g>
<g filter="url(#filter2_f_120_2817)">
<ellipse cx="756.816" cy="444.017" rx="756.816" ry="444.017" transform="matrix(-0.879412 -0.476061 0.533932 -0.845527 378.98 1595.12)" fill="#0B3447"/>
</g>
<g filter="url(#filter3_f_120_2817)">
<ellipse cx="1196.84" cy="301.121" rx="1196.84" ry="301.121" transform="matrix(-0.993557 -0.113329 0.107235 -0.994234 1180.08 1268.85)" fill="url(#paint0_linear_120_2817)"/>
</g>
<g filter="url(#filter4_f_120_2817)">
<path d="M-1269.64 589.76C-1185.09 551.606 -1061.28 519.871 -907.767 497.004C-754.255 474.138 -575.149 460.751 -384.273 457.878C-193.397 455.004 4.14207 462.721 193.096 480.432C382.051 498.144 557.366 525.376 705.509 560.026L152.669 691.917C103.436 680.402 45.1732 671.351 -17.6227 665.465C-80.4185 659.579 -146.068 657.015 -209.502 657.97C-272.936 658.925 -332.459 663.374 -383.476 670.973C-434.493 678.572 -475.64 689.119 -503.739 701.798L-1269.64 589.76Z" fill="url(#paint1_linear_120_2817)"/>
</g>
<g style="mix-blend-mode:darken" opacity="0.25" filter="url(#filter5_f_120_2817)">
<ellipse cx="1427.13" cy="308.541" rx="1427.13" ry="308.541" transform="matrix(-0.995905 -0.090401 0.179044 -0.983841 1221.57 1196.3)" fill="url(#paint2_linear_120_2817)"/>
</g>
<defs>
<filter id="filter0_f_120_2817" x="-1243.38" y="19.8724" width="2152.88" height="1494.69" filterUnits="userSpaceOnUse" color-interpolation-filters="sRGB">
<feFlood flood-opacity="0" result="BackgroundImageFix"/>
<feBlend mode="normal" in="SourceGraphic" in2="BackgroundImageFix" result="shape"/>
<feGaussianBlur stdDeviation="169.426" result="effect1_foregroundBlur_120_2817"/>
</filter>
<filter id="filter1_f_120_2817" x="-1144.48" y="304.671" width="2045.51" height="789.95" filterUnits="userSpaceOnUse" color-interpolation-filters="sRGB">
<feFlood flood-opacity="0" result="BackgroundImageFix"/>
<feBlend mode="normal" in="SourceGraphic" in2="BackgroundImageFix" result="shape"/>
<feGaussianBlur stdDeviation="50" result="effect1_foregroundBlur_120_2817"/>
</filter>
<filter id="filter2_f_120_2817" x="-1095.06" y="0.208344" width="2091.12" height="1718.39" filterUnits="userSpaceOnUse" color-interpolation-filters="sRGB">
<feFlood flood-opacity="0" result="BackgroundImageFix"/>
<feBlend mode="normal" in="SourceGraphic" in2="BackgroundImageFix" result="shape"/>
<feGaussianBlur stdDeviation="169.426" result="effect1_foregroundBlur_120_2817"/>
</filter>
<filter id="filter3_f_120_2817" x="-1301.87" y="369.53" width="2650.24" height="928.596" filterUnits="userSpaceOnUse" color-interpolation-filters="sRGB">
<feFlood flood-opacity="0" result="BackgroundImageFix"/>
<feBlend mode="normal" in="SourceGraphic" in2="BackgroundImageFix" result="shape"/>
<feGaussianBlur stdDeviation="67.7704" result="effect1_foregroundBlur_120_2817"/>
</filter>
<filter id="filter4_f_120_2817" x="-1439.07" y="287.866" width="2314" height="583.359" filterUnits="userSpaceOnUse" color-interpolation-filters="sRGB">
<feFlood flood-opacity="0" result="BackgroundImageFix"/>
<feBlend mode="normal" in="SourceGraphic" in2="BackgroundImageFix" result="shape"/>
<feGaussianBlur stdDeviation="84.7131" result="effect1_foregroundBlur_120_2817"/>
</filter>
<filter id="filter5_f_120_2817" x="-1736.29" y="264.385" width="3183.62" height="998.69" filterUnits="userSpaceOnUse" color-interpolation-filters="sRGB">
<feFlood flood-opacity="0" result="BackgroundImageFix"/>
<feBlend mode="normal" in="SourceGraphic" in2="BackgroundImageFix" result="shape"/>
<feGaussianBlur stdDeviation="84.7131" result="effect1_foregroundBlur_120_2817"/>
</filter>
<linearGradient id="paint0_linear_120_2817" x1="1196.84" y1="3.28509e-05" x2="1333.96" y2="531.867" gradientUnits="userSpaceOnUse">
<stop stop-color="#FF0000" stop-opacity="0"/>
<stop offset="1" stop-color="#FDB833"/>
</linearGradient>
<linearGradient id="paint1_linear_120_2817" x1="-1393.85" y1="729.342" x2="1025.02" y2="209.586" gradientUnits="userSpaceOnUse">
<stop stop-color="#F8ED8C" stop-opacity="0"/>
<stop offset="1" stop-color="#FFF7B1"/>
</linearGradient>
<linearGradient id="paint2_linear_120_2817" x1="1355.02" y1="69.9591" x2="1446.39" y2="613.846" gradientUnits="userSpaceOnUse">
<stop/>
<stop offset="1" stop-opacity="0"/>
</linearGradient>
</defs>
</svg>
