<svg width="642" height="190" viewBox="0 0 642 190" fill="none" xmlns="http://www.w3.org/2000/svg">
<g clip-path="url(#clip0_249_818)">
<g filter="url(#filter0_f_249_818)">
<ellipse cx="366.791" cy="210.358" rx="366.791" ry="210.358" transform="matrix(-0.996053 -0.0887589 0.274954 -0.961457 647.48 597.042)" fill="#02ADFF"/>
</g>
<g filter="url(#filter1_f_249_818)">
<ellipse cx="461.804" cy="150.963" rx="461.804" ry="150.963" transform="matrix(-0.997792 -0.066412 0.284967 -0.958537 780.421 503.719)" fill="#8FC2E1"/>
</g>
<g filter="url(#filter2_f_249_818)">
<ellipse cx="379.591" cy="222.702" rx="379.591" ry="222.702" transform="matrix(-0.879412 -0.476061 0.533932 -0.845527 613.789 777.483)" fill="#0B3447"/>
</g>
<g filter="url(#filter3_f_249_818)">
<ellipse cx="600.29" cy="151.031" rx="600.29" ry="151.031" transform="matrix(-0.993557 -0.113329 0.107235 -0.994234 1015.59 613.837)" fill="url(#paint0_linear_249_818)"/>
</g>
<g filter="url(#filter4_f_249_818)">
<path d="M-213.097 273.231C-170.689 254.094 -108.59 238.177 -31.5945 226.708C45.4011 215.239 135.234 208.525 230.97 207.084C326.706 205.643 425.785 209.513 520.557 218.396C615.33 227.28 703.261 240.938 777.564 258.318L500.28 324.469C475.587 318.693 446.364 314.154 414.868 311.202C383.372 308.25 350.445 306.963 318.629 307.442C286.813 307.921 256.958 310.153 231.37 313.964C205.782 317.776 185.144 323.066 171.051 329.425L-213.097 273.231Z" fill="url(#paint1_linear_249_818)"/>
</g>
<g style="mix-blend-mode:darken" opacity="0.25" filter="url(#filter5_f_249_818)">
<ellipse cx="715.796" cy="154.753" rx="715.796" ry="154.753" transform="matrix(-0.995905 -0.090401 0.179044 -0.983841 1036.4 577.449)" fill="url(#paint2_linear_249_818)"/>
</g>
</g>
<defs>
<filter id="filter0_f_249_818" x="-199.928" y="-12.6032" width="1079.81" height="749.679" filterUnits="userSpaceOnUse" color-interpolation-filters="sRGB">
<feFlood flood-opacity="0" result="BackgroundImageFix"/>
<feBlend mode="normal" in="SourceGraphic" in2="BackgroundImageFix" result="shape"/>
<feGaussianBlur stdDeviation="84.9778" result="effect1_foregroundBlur_249_818"/>
</filter>
<filter id="filter1_f_249_818" x="-150.32" y="130.241" width="1025.95" height="396.209" filterUnits="userSpaceOnUse" color-interpolation-filters="sRGB">
<feFlood flood-opacity="0" result="BackgroundImageFix"/>
<feBlend mode="normal" in="SourceGraphic" in2="BackgroundImageFix" result="shape"/>
<feGaussianBlur stdDeviation="25.0781" result="effect1_foregroundBlur_249_818"/>
</filter>
<filter id="filter2_f_249_818" x="-125.534" y="-22.4656" width="1048.83" height="861.88" filterUnits="userSpaceOnUse" color-interpolation-filters="sRGB">
<feFlood flood-opacity="0" result="BackgroundImageFix"/>
<feBlend mode="normal" in="SourceGraphic" in2="BackgroundImageFix" result="shape"/>
<feGaussianBlur stdDeviation="84.9778" result="effect1_foregroundBlur_249_818"/>
</filter>
<filter id="filter3_f_249_818" x="-229.264" y="162.772" width="1329.26" height="465.749" filterUnits="userSpaceOnUse" color-interpolation-filters="sRGB">
<feFlood flood-opacity="0" result="BackgroundImageFix"/>
<feBlend mode="normal" in="SourceGraphic" in2="BackgroundImageFix" result="shape"/>
<feGaussianBlur stdDeviation="33.9911" result="effect1_foregroundBlur_249_818"/>
</filter>
<filter id="filter4_f_249_818" x="-298.074" y="121.812" width="1160.62" height="292.591" filterUnits="userSpaceOnUse" color-interpolation-filters="sRGB">
<feFlood flood-opacity="0" result="BackgroundImageFix"/>
<feBlend mode="normal" in="SourceGraphic" in2="BackgroundImageFix" result="shape"/>
<feGaussianBlur stdDeviation="42.4889" result="effect1_foregroundBlur_249_818"/>
</filter>
<filter id="filter5_f_249_818" x="-447.149" y="110.035" width="1596.78" height="500.905" filterUnits="userSpaceOnUse" color-interpolation-filters="sRGB">
<feFlood flood-opacity="0" result="BackgroundImageFix"/>
<feBlend mode="normal" in="SourceGraphic" in2="BackgroundImageFix" result="shape"/>
<feGaussianBlur stdDeviation="42.4889" result="effect1_foregroundBlur_249_818"/>
</filter>
<linearGradient id="paint0_linear_249_818" x1="600.29" y1="1.64768e-05" x2="669.065" y2="266.764" gradientUnits="userSpaceOnUse">
<stop stop-color="#FF0000" stop-opacity="0"/>
<stop offset="1" stop-color="#FDB833"/>
</linearGradient>
<linearGradient id="paint1_linear_249_818" x1="-275.394" y1="343.24" x2="937.817" y2="82.5498" gradientUnits="userSpaceOnUse">
<stop stop-color="#F8ED8C" stop-opacity="0"/>
<stop offset="1" stop-color="#FFF7B1"/>
</linearGradient>
<linearGradient id="paint2_linear_249_818" x1="679.628" y1="35.0889" x2="725.458" y2="307.882" gradientUnits="userSpaceOnUse">
<stop/>
<stop offset="1" stop-opacity="0"/>
</linearGradient>
<clipPath id="clip0_249_818">
<rect width="642" height="809.522" fill="white"/>
</clipPath>
</defs>
</svg>
