<svg width="320" height="170" viewBox="0 0 320 170" fill="none" xmlns="http://www.w3.org/2000/svg">
<g clip-path="url(#clip0_70_14)">
<g filter="url(#filter0_f_70_14)">
<ellipse cx="366.791" cy="210.358" rx="366.791" ry="210.358" transform="matrix(-0.996053 -0.0887589 0.274954 -0.961457 486.48 597.042)" fill="#02ADFF"/>
</g>
<g filter="url(#filter1_f_70_14)">
<ellipse cx="461.804" cy="150.963" rx="461.804" ry="150.963" transform="matrix(-0.997792 -0.066412 0.284967 -0.958537 619.421 503.719)" fill="#8FC2E1"/>
</g>
<g filter="url(#filter2_f_70_14)">
<ellipse cx="379.591" cy="222.702" rx="379.591" ry="222.702" transform="matrix(-0.879412 -0.476061 0.533932 -0.845527 452.789 777.483)" fill="#0B3447"/>
</g>
<g filter="url(#filter3_f_70_14)">
<ellipse cx="600.29" cy="151.031" rx="600.29" ry="151.031" transform="matrix(-0.993557 -0.113329 0.107235 -0.994234 854.592 613.837)" fill="url(#paint0_linear_70_14)"/>
</g>
<g filter="url(#filter4_f_70_14)">
<path d="M-374.096 273.231C-331.688 254.094 -269.59 238.177 -192.594 226.708C-115.599 215.239 -25.7657 208.525 69.9704 207.084C165.706 205.643 264.785 209.513 359.557 218.396C454.33 227.28 542.261 240.938 616.564 258.318L339.28 324.469C314.587 318.693 285.365 314.154 253.869 311.202C222.372 308.25 189.445 306.964 157.629 307.442C125.813 307.921 95.9582 310.153 70.37 313.964C44.7818 317.776 24.1444 323.066 10.0508 329.425L-374.096 273.231Z" fill="url(#paint1_linear_70_14)"/>
</g>
<g style="mix-blend-mode:darken" opacity="0.25" filter="url(#filter5_f_70_14)">
<ellipse cx="715.796" cy="154.753" rx="715.796" ry="154.753" transform="matrix(-0.995905 -0.090401 0.179044 -0.983841 875.4 577.449)" fill="url(#paint2_linear_70_14)"/>
</g>
</g>
<defs>
<filter id="filter0_f_70_14" x="-360.928" y="-12.6034" width="1079.81" height="749.679" filterUnits="userSpaceOnUse" color-interpolation-filters="sRGB">
<feFlood flood-opacity="0" result="BackgroundImageFix"/>
<feBlend mode="normal" in="SourceGraphic" in2="BackgroundImageFix" result="shape"/>
<feGaussianBlur stdDeviation="84.9778" result="effect1_foregroundBlur_70_14"/>
</filter>
<filter id="filter1_f_70_14" x="-311.32" y="130.241" width="1025.95" height="396.209" filterUnits="userSpaceOnUse" color-interpolation-filters="sRGB">
<feFlood flood-opacity="0" result="BackgroundImageFix"/>
<feBlend mode="normal" in="SourceGraphic" in2="BackgroundImageFix" result="shape"/>
<feGaussianBlur stdDeviation="25.0781" result="effect1_foregroundBlur_70_14"/>
</filter>
<filter id="filter2_f_70_14" x="-286.534" y="-22.4657" width="1048.83" height="861.88" filterUnits="userSpaceOnUse" color-interpolation-filters="sRGB">
<feFlood flood-opacity="0" result="BackgroundImageFix"/>
<feBlend mode="normal" in="SourceGraphic" in2="BackgroundImageFix" result="shape"/>
<feGaussianBlur stdDeviation="84.9778" result="effect1_foregroundBlur_70_14"/>
</filter>
<filter id="filter3_f_70_14" x="-390.264" y="162.772" width="1329.26" height="465.749" filterUnits="userSpaceOnUse" color-interpolation-filters="sRGB">
<feFlood flood-opacity="0" result="BackgroundImageFix"/>
<feBlend mode="normal" in="SourceGraphic" in2="BackgroundImageFix" result="shape"/>
<feGaussianBlur stdDeviation="33.9911" result="effect1_foregroundBlur_70_14"/>
</filter>
<filter id="filter4_f_70_14" x="-459.074" y="121.812" width="1160.62" height="292.591" filterUnits="userSpaceOnUse" color-interpolation-filters="sRGB">
<feFlood flood-opacity="0" result="BackgroundImageFix"/>
<feBlend mode="normal" in="SourceGraphic" in2="BackgroundImageFix" result="shape"/>
<feGaussianBlur stdDeviation="42.4889" result="effect1_foregroundBlur_70_14"/>
</filter>
<filter id="filter5_f_70_14" x="-608.149" y="110.035" width="1596.78" height="500.906" filterUnits="userSpaceOnUse" color-interpolation-filters="sRGB">
<feFlood flood-opacity="0" result="BackgroundImageFix"/>
<feBlend mode="normal" in="SourceGraphic" in2="BackgroundImageFix" result="shape"/>
<feGaussianBlur stdDeviation="42.4889" result="effect1_foregroundBlur_70_14"/>
</filter>
<linearGradient id="paint0_linear_70_14" x1="600.29" y1="1.64768e-05" x2="669.065" y2="266.764" gradientUnits="userSpaceOnUse">
<stop stop-color="#FF0000" stop-opacity="0"/>
<stop offset="1" stop-color="#FDB833"/>
</linearGradient>
<linearGradient id="paint1_linear_70_14" x1="-436.393" y1="343.24" x2="776.817" y2="82.5499" gradientUnits="userSpaceOnUse">
<stop stop-color="#F8ED8C" stop-opacity="0"/>
<stop offset="1" stop-color="#FFF7B1"/>
</linearGradient>
<linearGradient id="paint2_linear_70_14" x1="679.628" y1="35.0889" x2="725.458" y2="307.882" gradientUnits="userSpaceOnUse">
<stop/>
<stop offset="1" stop-opacity="0"/>
</linearGradient>
<clipPath id="clip0_70_14">
<rect width="642" height="809.522" fill="white" transform="translate(-161)"/>
</clipPath>
</defs>
</svg>
