<?xml version="1.0" encoding="utf-8"?>
<!-- Generator: Adobe Illustrator 26.2.1, SVG Export Plug-In . SVG Version: 6.00 Build 0)  -->
<svg version="1.1" id="Layer_1" xmlns="http://www.w3.org/2000/svg" xmlns:xlink="http://www.w3.org/1999/xlink" x="0px" y="0px"
	 viewBox="0 0 512 512" enable-background="new 0 0 512 512" xml:space="preserve">
<g>
	<linearGradient id="SVGID_1_" gradientUnits="userSpaceOnUse" x1="68.2857" y1="279.0605" x2="457.6776" y2="279.0605">
		<stop  offset="0" style="stop-color:#947964"/>
		<stop  offset="1" style="stop-color:#5D3B24"/>
	</linearGradient>
	<path fill-rule="evenodd" clip-rule="evenodd" fill="url(#SVGID_1_)" d="M401.376,190.001c24.068-2.353,15.62,26.466,3.369,39.084
		c-3.885,11.435-0.291,24.302,0.109,32.714c0.4,8.411,5.175,10.947,4.842,16.437c48.468-53.22,56.45-90.868,40.602-108.958
		c-15.99-18.253-50.556-12.557-80.144-3.272c-14.891,4.672-28.521,10.254-37.888,14.149
		c-71.681,29.807-158.672,84.286-215.633,147.815c-20.911,23.323-37.776,47.866-48.347,72.856
		c15.937-21.281,34.459-41.316,54.516-59.932c89.266-82.855,208.927-137.603,266.39-149.026c4.449-0.885,8.525-1.508,12.185-1.866
		L401.376,190.001z"/>
	<path fill="#947964" d="M148.573,354.17c0,0-38.059,30.926-9.898,61.54s81.65,23.153,133.013-13.392l-38.93-3.796
		c0,0-30.506,16.761-57.105,11.68c-25.19-4.812-32.225-23.231-8.912-40.924"/>
	
		<linearGradient id="SVGID_00000109712143829407045960000000954354221242882967_" gradientUnits="userSpaceOnUse" x1="153.7791" y1="411.8755" x2="418.0221" y2="259.3148">
		<stop  offset="0" style="stop-color:#947964"/>
		<stop  offset="1" style="stop-color:#75553F"/>
	</linearGradient>
	<path fill-rule="evenodd" clip-rule="evenodd" fill="url(#SVGID_00000109712143829407045960000000954354221242882967_)" d="
		M406.37,230.755c-2.907-10.821-6.964-21.148-12.031-30.849c-57.844,11.857-176.624,66.443-265.371,148.815l-0.673,0.626
		c28.05,46.395,79.989,76.339,137.945,73.581c78.572-3.738,140.431-66.259,145.082-143.022c0.333-5.491,0.372-11.053,0.105-16.673
		C410.893,252.029,409.163,241.163,406.37,230.755L406.37,230.755z"/>
	<defs>
		<filter id="Adobe_OpacityMaskFilter" filterUnits="userSpaceOnUse" x="291.611" y="199.906" width="119.99" height="206.406">
			<feColorMatrix  type="matrix" values="1 0 0 0 0  0 1 0 0 0  0 0 1 0 0  0 0 0 1 0"/>
		</filter>
	</defs>
	
		<mask maskUnits="userSpaceOnUse" x="291.611" y="199.906" width="119.99" height="206.406" id="id10_00000143611026408123487640000011434618225641337509_">
		
			<linearGradient id="SVGID_00000078030242027583287150000008698597646379574198_" gradientUnits="userSpaceOnUse" x1="-61113.6289" y1="-5841.0132" x2="-56428.0586" y2="-1175.5682" gradientTransform="matrix(-0.0719 0.0034 0.0034 0.0719 -3803.3613 694.076)">
			<stop  offset="0" style="stop-color:#FFFFFF"/>
			<stop  offset="1" style="stop-color:#FFFFFF;stop-opacity:0"/>
		</linearGradient>
		
			<polygon fill-rule="evenodd" clip-rule="evenodd" fill="url(#SVGID_00000078030242027583287150000008698597646379574198_)" filter="url(#Adobe_OpacityMaskFilter)" points="
			418.397,402.329 299.331,407.994 289.651,204.547 408.717,198.882 		"/>
	</mask>
	
		<path opacity="0.31" mask="url(#id10_00000143611026408123487640000011434618225641337509_)" fill-rule="evenodd" clip-rule="evenodd" fill="#24140D" d="
		M406.387,230.646c-2.897-10.783-6.94-21.074-11.989-30.741c-25.188,5.162-61.972,18.458-102.787,38.64
		c25.404,28.812,41.561,66.128,43.529,107.48c0.999,20.999-1.744,41.308-7.636,60.285c47.492-23.759,80.476-71.532,83.818-126.687
		c0.331-5.471,0.371-11.015,0.104-16.614C410.895,251.846,409.172,241.019,406.387,230.646L406.387,230.646z"/>
	<path opacity="0.11" fill-rule="evenodd" clip-rule="evenodd" fill="#C4AE93" d="M248.127,262.311
		c-40.512,23.431-82.364,52.702-119.053,86.756l-0.669,0.622c27.884,46.12,79.515,75.887,137.128,73.145
		c3.374-0.161,6.714-0.437,10.024-0.812c6.278-19.457,9.235-40.347,8.206-61.973C282.01,323.195,268.958,289.561,248.127,262.311
		L248.127,262.311z"/>
	<path fill-rule="evenodd" clip-rule="evenodd" fill="#126583" d="M341.411,101.641c-2.836-10.914,3.714-22.06,14.628-24.896
		c10.914-2.836,22.06,3.713,24.896,14.627c2.836,10.914-3.714,22.06-14.628,24.896C355.393,119.104,344.247,112.555,341.411,101.641
		z"/>
	<path fill-rule="evenodd" clip-rule="evenodd" fill="#126583" d="M330.869,55.388c-1.418-5.457,1.857-11.03,7.314-12.448
		c5.457-1.418,11.03,1.856,12.448,7.314c1.418,5.457-1.857,11.03-7.314,12.448C337.86,64.119,332.287,60.844,330.869,55.388z"/>
	<path fill-rule="evenodd" clip-rule="evenodd" fill="#126583" d="M391.315,126.139c-1.022-3.933,1.338-7.949,5.271-8.971
		c3.932-1.022,7.949,1.338,8.971,5.271c1.022,3.932-1.338,7.949-5.271,8.971C396.353,132.431,392.337,130.071,391.315,126.139z"/>
	<path fill-rule="evenodd" clip-rule="evenodd" fill="#126583" d="M312.017,92.55c-0.734-2.825,0.961-5.71,3.786-6.444
		c2.825-0.734,5.71,0.961,6.444,3.786c0.734,2.825-0.961,5.71-3.786,6.444C315.636,97.07,312.751,95.375,312.017,92.55z"/>
	<defs>
		
			<filter id="Adobe_OpacityMaskFilter_00000060739182282032141820000015556376334195185852_" filterUnits="userSpaceOnUse" x="102.436" y="183.697" width="121.279" height="136.431">
			<feColorMatrix  type="matrix" values="1 0 0 0 0  0 1 0 0 0  0 0 1 0 0  0 0 0 1 0"/>
		</filter>
	</defs>
	
		<mask maskUnits="userSpaceOnUse" x="102.436" y="183.697" width="121.279" height="136.431" id="id2_00000150081937349668877880000017252239190059314357_">
		
			<linearGradient id="SVGID_00000100376376845676660670000000889221118006329221_" gradientUnits="userSpaceOnUse" x1="-51113.7695" y1="23108.8848" x2="-59140.3906" y2="18043.4062" gradientTransform="matrix(-0.0719 0.0034 0.0034 0.0719 -3939.4055 -994.0984)">
			<stop  offset="0" style="stop-color:#FFFFFF"/>
			<stop  offset="1" style="stop-color:#FFFFFF;stop-opacity:0"/>
		</linearGradient>
		
			<polygon fill-rule="evenodd" clip-rule="evenodd" fill="url(#SVGID_00000100376376845676660670000000889221118006329221_)" filter="url(#Adobe_OpacityMaskFilter_00000060739182282032141820000015556376334195185852_)" points="
			228.159,315.054 104.776,320.924 98.288,184.551 221.67,178.68 		"/>
	</mask>
	
		<path opacity="0.18" mask="url(#id2_00000150081937349668877880000017252239190059314357_)" fill-rule="evenodd" clip-rule="evenodd" fill="#9DCDDB" d="
		M114.325,320.127c30.256-33.745,68.984-64.937,109.391-91.234c-27.128-24.83-61.985-41.2-100.274-45.196
		c-14.534,24.701-22.294,53.765-20.83,84.53c0.875,18.388,4.969,35.861,11.713,51.9L114.325,320.127z"/>
	
		<ellipse transform="matrix(0.9989 -0.0475 0.0475 0.9989 -13.3447 15.9689)" fill-rule="evenodd" clip-rule="evenodd" fill="#FFFFFF" cx="329.131" cy="288.606" rx="11.618" ry="11.968"/>
	
		<ellipse transform="matrix(0.9989 -0.0475 0.0475 0.9989 -14.6035 14.0317)" fill-rule="evenodd" clip-rule="evenodd" fill="#FFFFFF" cx="287.766" cy="314.108" rx="11.618" ry="11.968"/>
	
		<ellipse transform="matrix(0.9989 -0.0475 0.0475 0.9989 -15.9863 12.0662)" fill-rule="evenodd" clip-rule="evenodd" fill="#FFFFFF" cx="245.743" cy="342.203" rx="11.618" ry="11.968"/>
	<defs>
		
			<filter id="Adobe_OpacityMaskFilter_00000161605518911322157760000015580765303220727692_" filterUnits="userSpaceOnUse" x="69.015" y="156.069" width="387.909" height="243.53">
			<feColorMatrix  type="matrix" values="1 0 0 0 0  0 1 0 0 0  0 0 1 0 0  0 0 0 1 0"/>
		</filter>
	</defs>
	
		<mask maskUnits="userSpaceOnUse" x="69.015" y="156.069" width="387.909" height="243.53" id="id0_00000166657745720438239370000011513054256420219026_">
		
			<linearGradient id="SVGID_00000101822122867199664070000012721929719476178080_" gradientUnits="userSpaceOnUse" x1="-54267.4688" y1="21304.9434" x2="-61726.7734" y2="19200.5254" gradientTransform="matrix(-0.0719 0.0034 0.0034 0.0719 -3939.4055 -994.0984)">
			<stop  offset="0" style="stop-color:#FFFFFF"/>
			<stop  offset="1" style="stop-color:#FFFFFF;stop-opacity:0"/>
		</linearGradient>
		
			<polygon fill-rule="evenodd" clip-rule="evenodd" fill="url(#SVGID_00000101822122867199664070000012721929719476178080_)" filter="url(#Adobe_OpacityMaskFilter_00000161605518911322157760000015580765303220727692_)" points="
			466.887,381.012 68.689,399.959 57.878,172.755 456.077,153.809 		"/>
	</mask>
	
		<path mask="url(#id0_00000166657745720438239370000011513054256420219026_)" fill-rule="evenodd" clip-rule="evenodd" fill="#947964" d="
		M456.925,178.841c-1.237-4.137-3.227-7.742-5.897-10.789c-15.99-18.253-50.556-12.557-80.144-3.272
		c-14.891,4.672-28.521,10.254-37.888,14.149c-71.681,29.807-158.672,84.286-215.633,147.815
		c-20.911,23.323-37.776,47.866-48.347,72.856C154.07,255.609,404.426,131.255,456.925,178.841L456.925,178.841z"/>
	
		<linearGradient id="SVGID_00000016047576646131946550000014803839398554853010_" gradientUnits="userSpaceOnUse" x1="85.8829" y1="269.5169" x2="346.1555" y2="119.2485">
		<stop  offset="0" style="stop-color:#5790A8"/>
		<stop  offset="1" style="stop-color:#0D708A"/>
	</linearGradient>
	<path fill-rule="evenodd" clip-rule="evenodd" fill="url(#SVGID_00000016047576646131946550000014803839398554853010_)" d="
		M119.26,327.328c56.96-63.529,143.952-118.008,215.633-147.815c9.367-3.895,22.997-9.477,37.888-14.149
		c-29.567-32.401-72.808-51.878-120.046-49.63c-84.191,4.006-149.193,75.503-145.188,159.694
		C108.422,293.816,112.516,311.29,119.26,327.328L119.26,327.328z"/>
	<defs>
		
			<filter id="Adobe_OpacityMaskFilter_00000177462920888433315720000013895271683387433638_" filterUnits="userSpaceOnUse" x="107.372" y="190.841" width="121.279" height="136.431">
			<feColorMatrix  type="matrix" values="1 0 0 0 0  0 1 0 0 0  0 0 1 0 0  0 0 0 1 0"/>
		</filter>
	</defs>
	
		<mask maskUnits="userSpaceOnUse" x="107.372" y="190.841" width="121.279" height="136.431" id="id2_00000162310733040498570090000000797369725830564542_">
		
			<linearGradient id="SVGID_00000039830907169077768450000004388147120794060189_" gradientUnits="userSpaceOnUse" x1="-51177.5195" y1="23211.2578" x2="-59204.1406" y2="18145.7793" gradientTransform="matrix(-0.0719 0.0034 0.0034 0.0719 -3939.4055 -994.0984)">
			<stop  offset="0" style="stop-color:#FFFFFF"/>
			<stop  offset="1" style="stop-color:#FFFFFF;stop-opacity:0"/>
		</linearGradient>
		
			<polygon fill-rule="evenodd" clip-rule="evenodd" fill="url(#SVGID_00000039830907169077768450000004388147120794060189_)" filter="url(#Adobe_OpacityMaskFilter_00000177462920888433315720000013895271683387433638_)" points="
			233.094,322.198 109.712,328.069 103.223,191.695 226.606,185.824 		"/>
	</mask>
	
		<path mask="url(#id2_00000162310733040498570090000000797369725830564542_)" fill-rule="evenodd" clip-rule="evenodd" fill="#5790A8" d="
		M119.26,327.272c30.256-33.745,68.984-64.937,109.391-91.234c-27.128-24.83-61.985-41.2-100.274-45.196
		c-14.534,24.701-22.294,53.765-20.83,84.53c0.875,18.388,4.969,35.861,11.713,51.9L119.26,327.272z"/>
	<defs>
		
			<filter id="Adobe_OpacityMaskFilter_00000141420217549601775610000001941000840024325046_" filterUnits="userSpaceOnUse" x="136.643" y="115.558" width="236.137" height="97.299">
			<feColorMatrix  type="matrix" values="1 0 0 0 0  0 1 0 0 0  0 0 1 0 0  0 0 0 1 0"/>
		</filter>
	</defs>
	
		<mask maskUnits="userSpaceOnUse" x="136.643" y="115.558" width="236.137" height="97.299" id="id4_00000038411402762538344110000015430991581525549958_">
		
			<linearGradient id="SVGID_00000060737111079512463730000010469761753054431926_" gradientUnits="userSpaceOnUse" x1="-60085.25" y1="16013.5439" x2="-56071.9258" y2="20267.3672" gradientTransform="matrix(-0.0719 0.0034 0.0034 0.0719 -3939.4055 -994.0984)">
			<stop  offset="0" style="stop-color:#FFFFFF"/>
			<stop  offset="1" style="stop-color:#FFFFFF;stop-opacity:0"/>
		</linearGradient>
		
			<polygon fill-rule="evenodd" clip-rule="evenodd" fill="url(#SVGID_00000060737111079512463730000010469761753054431926_)" filter="url(#Adobe_OpacityMaskFilter_00000141420217549601775610000001941000840024325046_)" points="
			375.155,208.055 138.252,219.327 133.576,121.062 370.479,109.79 		"/>
	</mask>
	
		<path mask="url(#id4_00000038411402762538344110000015430991581525549958_)" fill-rule="evenodd" clip-rule="evenodd" fill="#02466A" d="
		M266.981,212.858c23.201-13.078,46.255-24.339,67.912-33.344c9.367-3.895,22.997-9.477,37.888-14.149
		c-29.567-32.401-72.808-51.878-120.046-49.63c-48.027,2.285-89.802,26.541-116.092,62.579c5.003-0.671,10.071-1.146,15.206-1.39
		C194.966,174.871,235.186,188.537,266.981,212.858L266.981,212.858z"/>
	<defs>
		
			<filter id="Adobe_OpacityMaskFilter_00000036951886099463220100000002985433571211974297_" filterUnits="userSpaceOnUse" x="117.899" y="154.384" width="254.881" height="172.944">
			<feColorMatrix  type="matrix" values="1 0 0 0 0  0 1 0 0 0  0 0 1 0 0  0 0 0 1 0"/>
		</filter>
	</defs>
	
		<mask maskUnits="userSpaceOnUse" x="117.899" y="154.384" width="254.881" height="172.944" id="id6_00000115488758358814838250000004321264345702161311_">
		
			<linearGradient id="SVGID_00000043452851565951433970000005890799295675566527_" gradientUnits="userSpaceOnUse" x1="-53377.4023" y1="22319.0156" x2="-61093.4766" y2="17468.0625" gradientTransform="matrix(-0.0719 0.0034 0.0034 0.0719 -3939.4055 -994.0984)">
			<stop  offset="0" style="stop-color:#FFFFFF"/>
			<stop  offset="1" style="stop-color:#FFFFFF;stop-opacity:0"/>
		</linearGradient>
		
			<polygon fill-rule="evenodd" clip-rule="evenodd" fill="url(#SVGID_00000043452851565951433970000005890799295675566527_)" filter="url(#Adobe_OpacityMaskFilter_00000036951886099463220100000002985433571211974297_)" points="
			380.255,315.253 117.736,327.744 110.04,166.013 372.56,153.522 		"/>
	</mask>
	
		<path mask="url(#id6_00000115488758358814838250000004321264345702161311_)" fill-rule="evenodd" clip-rule="evenodd" fill="#5790A8" d="
		M119.26,327.328c56.96-63.529,143.952-118.008,215.633-147.815c9.367-3.895,22.997-9.477,37.888-14.149
		c-3.512-3.848-7.219-7.512-11.1-10.981c-11.438,4.24-22.57,9.121-33.658,14.221c-74.542,34.291-156.992,92.018-210.124,155.373
		C118.34,325.102,118.793,326.218,119.26,327.328z"/>
</g>
</svg>
