<svg width="297" height="297" viewBox="0 0 297 297" fill="none" xmlns="http://www.w3.org/2000/svg">
<path fill-rule="evenodd" clip-rule="evenodd" d="M222.301 98.9556C235.69 97.6468 230.991 113.679 224.176 120.698C222.014 127.059 224.014 134.217 224.237 138.897C224.459 143.576 227.115 144.987 226.93 148.041C253.893 118.435 258.334 97.4907 249.517 87.4275C240.621 77.2729 221.392 80.4421 204.932 85.6073C196.648 88.2061 189.066 91.3116 183.855 93.4783C143.979 110.06 95.5852 140.367 63.8977 175.708C52.2647 188.683 42.8828 202.336 37.002 216.238C45.8675 204.399 56.1719 193.254 67.3295 182.898C116.989 136.805 183.557 106.349 215.523 99.9942C217.998 99.5022 220.266 99.1552 222.302 98.956L222.301 98.9556Z" fill="white"/>
<path d="M81.6659 190.284C81.6659 190.284 60.4933 207.488 76.1597 224.519C91.826 241.55 121.582 237.4 150.155 217.069L128.498 214.957C128.498 214.957 111.528 224.281 96.7303 221.455C82.7167 218.778 78.8037 208.531 91.7727 198.688" fill="white"/>
<path fill-rule="evenodd" clip-rule="evenodd" d="M188.942 49.8012C187.365 43.7299 191.008 37.529 197.079 35.9517C203.15 34.3744 209.351 38.0173 210.929 44.089C212.506 50.1603 208.863 56.3612 202.791 57.9385C196.72 59.5158 190.519 55.8725 188.942 49.8012Z" fill="white"/>
<path fill-rule="evenodd" clip-rule="evenodd" d="M183.077 24.07C182.289 21.0346 184.111 17.9341 187.146 17.145C190.182 16.3564 193.282 18.1778 194.071 21.2137C194.86 24.2491 193.038 27.3496 190.002 28.1386C186.966 28.9273 183.866 27.1054 183.077 24.07Z" fill="white"/>
<path fill-rule="evenodd" clip-rule="evenodd" d="M216.705 63.4287C216.136 61.2411 217.449 59.0068 219.637 58.4384C221.825 57.87 224.059 59.1826 224.627 61.3707C225.196 63.5583 223.883 65.7925 221.695 66.3609C219.507 66.9294 217.273 65.6163 216.705 63.4287Z" fill="white"/>
<path fill-rule="evenodd" clip-rule="evenodd" d="M172.59 44.7434C172.182 43.172 173.125 41.567 174.697 41.1589C176.268 40.7507 177.873 41.6933 178.281 43.2651C178.689 44.8366 177.746 46.4415 176.175 46.8497C174.603 47.2579 172.998 46.3149 172.59 44.7434Z" fill="white"/>
<path fill-rule="evenodd" clip-rule="evenodd" d="M218.386 104.466C221.205 109.863 223.462 115.607 225.079 121.627C226.634 127.418 227.596 133.462 227.892 139.696C228.041 142.822 228.019 145.916 227.834 148.971C225.246 191.674 190.834 226.454 147.124 228.534C114.883 230.068 85.9894 213.41 70.3848 187.601L70.759 187.252C120.129 141.428 186.207 111.062 218.386 104.466ZM186.848 151.987C187.022 155.66 184.273 158.775 180.708 158.945C177.142 159.114 174.11 156.274 173.936 152.601C173.761 148.928 176.51 145.813 180.075 145.644C183.641 145.474 186.673 148.314 186.848 151.987ZM163.836 166.174C164.01 169.847 161.261 172.962 157.696 173.132C154.13 173.301 151.098 170.461 150.924 166.788C150.749 163.115 153.498 160 157.063 159.831C160.629 159.661 163.661 162.501 163.836 166.174ZM134.316 188.761C137.882 188.591 140.631 185.476 140.456 181.803C140.281 178.13 137.249 175.29 133.684 175.46C130.118 175.629 127.369 178.744 127.544 182.417C127.719 186.09 130.751 188.93 134.316 188.761Z" fill="white"/>
<mask id="mask0_689_1870" style="mask-type:luminance" maskUnits="userSpaceOnUse" x="31" y="78" width="228" height="138">
<g opacity="0.6">
<path fill-rule="evenodd" clip-rule="evenodd" d="M258.745 205.216L37.2257 215.756L31.2119 89.3622L252.732 78.822L258.745 205.216Z" fill="url(#paint0_linear_689_1870)"/>
</g>
</mask>
<g mask="url(#mask0_689_1870)">
<path opacity="0.6" fill-rule="evenodd" clip-rule="evenodd" d="M253.203 92.7471C252.515 90.4453 251.408 88.4401 249.922 86.7454C241.027 76.5908 221.798 79.76 205.338 84.9252C197.054 87.524 189.472 90.6295 184.26 92.7961C144.384 109.378 95.9905 139.685 64.3029 175.026C52.67 188.001 43.2881 201.654 37.4072 215.556C84.7238 135.454 223.997 66.275 253.203 92.7471Z" fill="#CCCCCB"/>
</g>
<path fill-rule="evenodd" clip-rule="evenodd" d="M65.3593 175.352C97.0465 140.01 145.44 109.703 185.317 93.1218C190.528 90.9551 198.11 87.8496 206.394 85.2509C189.946 67.2261 165.891 56.3907 139.612 57.6412C92.7765 59.8695 56.6155 99.644 58.8438 146.48C59.3304 156.709 61.6078 166.429 65.3593 175.352Z" fill="white"/>
<mask id="mask1_689_1870" style="mask-type:luminance" maskUnits="userSpaceOnUse" x="56" y="96" width="73" height="80">
<path fill-rule="evenodd" clip-rule="evenodd" d="M128.685 172.498L60.0472 175.764L56.4375 99.8981L125.076 96.6323L128.685 172.498Z" fill="url(#paint1_linear_689_1870)"/>
</mask>
<g mask="url(#mask1_689_1870)">
<path fill-rule="evenodd" clip-rule="evenodd" d="M65.3592 175.32C82.1909 156.547 103.736 139.195 126.214 124.566C111.123 110.753 91.7314 101.646 70.4313 99.4231C62.346 113.165 58.0295 129.333 58.8437 146.447C59.3303 156.677 61.6077 166.397 65.3597 175.319L65.3592 175.32Z" fill="white"/>
</g>
<mask id="mask2_689_1870" style="mask-type:luminance" maskUnits="userSpaceOnUse" x="73" y="54" width="135" height="62">
<path fill-rule="evenodd" clip-rule="evenodd" d="M207.714 108.999L75.9245 115.27L73.3232 60.6048L205.114 54.3342L207.714 108.999Z" fill="url(#paint2_linear_689_1870)"/>
</mask>
<g mask="url(#mask2_689_1870)">
<path fill-rule="evenodd" clip-rule="evenodd" d="M147.537 111.671C160.444 104.396 173.269 98.1312 185.316 93.1217C190.527 90.955 198.109 87.8495 206.393 85.2507C189.945 67.226 165.89 56.3906 139.612 57.6411C112.894 58.9121 89.6544 72.4059 75.0293 92.4542C77.8126 92.0809 80.632 91.8166 83.4888 91.6807C107.474 90.5393 129.849 98.1413 147.537 111.671Z" fill="white"/>
</g>
<mask id="mask3_689_1870" style="mask-type:luminance" maskUnits="userSpaceOnUse" x="60" y="78" width="151" height="98">
<path fill-rule="evenodd" clip-rule="evenodd" d="M210.551 168.634L64.5104 175.583L60.2295 85.6115L206.27 78.6626L210.551 168.634Z" fill="url(#paint3_linear_689_1870)"/>
</mask>
<g mask="url(#mask3_689_1870)">
<path fill-rule="evenodd" clip-rule="evenodd" d="M65.3587 175.352C97.0459 140.01 145.44 109.703 185.316 93.1216C190.527 90.955 198.109 87.8495 206.393 85.2507C204.44 83.1101 202.378 81.0722 200.219 79.1421C193.856 81.5013 187.663 84.2158 181.495 87.0533C140.027 106.129 94.1594 138.243 64.6016 173.488C64.847 174.113 65.0991 174.734 65.3587 175.352Z" fill="#DCDBDB"/>
</g>
<defs>
<linearGradient id="paint0_linear_689_1870" x1="19.1722" y1="189.352" x2="313.551" y2="91.0698" gradientUnits="userSpaceOnUse">
<stop stop-color="white"/>
<stop offset="1" stop-color="white" stop-opacity="0"/>
</linearGradient>
<linearGradient id="paint1_linear_689_1870" x1="-100.815" y1="271.445" x2="210.655" y2="53.653" gradientUnits="userSpaceOnUse">
<stop stop-color="white"/>
<stop offset="1" stop-color="white" stop-opacity="0"/>
</linearGradient>
<linearGradient id="paint2_linear_689_1870" x1="241.865" y1="-33.2992" x2="89.3851" y2="144.437" gradientUnits="userSpaceOnUse">
<stop stop-color="white"/>
<stop offset="1" stop-color="white" stop-opacity="0"/>
</linearGradient>
<linearGradient id="paint3_linear_689_1870" x1="-14.5112" y1="231.596" x2="284.943" y2="22.972" gradientUnits="userSpaceOnUse">
<stop stop-color="white"/>
<stop offset="1" stop-color="white" stop-opacity="0"/>
</linearGradient>
</defs>
</svg>
