<svg width="1280" height="874" viewBox="0 0 1280 874" fill="none" xmlns="http://www.w3.org/2000/svg">
<g opacity="0.8" clip-path="url(#clip0_236_3985)">
<g filter="url(#filter0_f_236_3985)">
<ellipse cx="422.937" cy="247.245" rx="422.937" ry="247.245" transform="matrix(-0.92259 0.385783 -0.285576 -0.958356 1137.61 406.898)" fill="#8FC2E1"/>
</g>
<g filter="url(#filter1_f_236_3985)">
<ellipse cx="450.919" cy="289.34" rx="450.919" ry="289.34" transform="matrix(-0.979747 0.200238 -0.152576 -0.988292 1642.16 504.439)" fill="#02ADFF"/>
</g>
<g filter="url(#filter2_f_236_3985)">
<ellipse cx="519.247" cy="285.501" rx="519.247" ry="285.501" transform="matrix(-0.989606 -0.143807 0.291806 -0.956478 1705.16 613.494)" fill="#0B3447"/>
</g>
<g filter="url(#filter3_f_236_3985)">
<ellipse cx="834.754" cy="188.694" rx="834.754" ry="188.694" transform="matrix(-0.979334 0.202251 -0.200305 -0.979734 1614.08 375.271)" fill="url(#paint0_linear_236_3985)"/>
</g>
<g filter="url(#filter4_f_236_3985)">
<path d="M347.249 648.484C228.906 668.861 124.842 679.152 43.0905 678.562C-38.6615 677.973 -95.9147 666.518 -124.249 645.082C-152.584 623.647 -151.243 592.803 -120.329 554.934C-89.415 517.064 -29.7552 473.181 54.045 426.671L490.566 388.667C462.717 404.124 442.89 418.708 432.616 431.293C422.342 443.878 421.896 454.129 431.313 461.252C440.73 468.376 459.757 472.183 486.926 472.379C514.095 472.575 548.679 469.155 588.008 462.383L347.249 648.484Z" fill="url(#paint1_linear_236_3985)"/>
</g>
<g style="mix-blend-mode:darken" opacity="0.25" filter="url(#filter5_f_236_3985)">
<ellipse cx="995.505" cy="193.581" rx="995.505" ry="193.581" transform="matrix(-0.974936 0.222484 -0.120679 -0.992691 1589.79 404.681)" fill="url(#paint2_linear_236_3985)"/>
</g>
</g>
<defs>
<filter id="filter0_f_236_3985" x="-58.6505" y="-293.46" width="1470.91" height="1253.14" filterUnits="userSpaceOnUse" color-interpolation-filters="sRGB">
<feFlood flood-opacity="0" result="BackgroundImageFix"/>
<feBlend mode="normal" in="SourceGraphic" in2="BackgroundImageFix" result="shape"/>
<feGaussianBlur stdDeviation="169.426" result="effect1_foregroundBlur_236_3985"/>
</filter>
<filter id="filter1_f_236_3985" x="373.351" y="-330.023" width="1565.74" height="1277.6" filterUnits="userSpaceOnUse" color-interpolation-filters="sRGB">
<feFlood flood-opacity="0" result="BackgroundImageFix"/>
<feBlend mode="normal" in="SourceGraphic" in2="BackgroundImageFix" result="shape"/>
<feGaussianBlur stdDeviation="169.426" result="effect1_foregroundBlur_236_3985"/>
</filter>
<filter id="filter2_f_236_3985" x="415.132" y="-356.277" width="1718.98" height="1244.05" filterUnits="userSpaceOnUse" color-interpolation-filters="sRGB">
<feFlood flood-opacity="0" result="BackgroundImageFix"/>
<feBlend mode="normal" in="SourceGraphic" in2="BackgroundImageFix" result="shape"/>
<feGaussianBlur stdDeviation="169.426" result="effect1_foregroundBlur_236_3985"/>
</filter>
<filter id="filter3_f_236_3985" x="-195.149" y="-26.6719" width="1907.87" height="771.805" filterUnits="userSpaceOnUse" color-interpolation-filters="sRGB">
<feFlood flood-opacity="0" result="BackgroundImageFix"/>
<feBlend mode="normal" in="SourceGraphic" in2="BackgroundImageFix" result="shape"/>
<feGaussianBlur stdDeviation="67.7704" result="effect1_foregroundBlur_236_3985"/>
</filter>
<filter id="filter4_f_236_3985" x="-313.978" y="219.241" width="1071.41" height="628.771" filterUnits="userSpaceOnUse" color-interpolation-filters="sRGB">
<feFlood flood-opacity="0" result="BackgroundImageFix"/>
<feBlend mode="normal" in="SourceGraphic" in2="BackgroundImageFix" result="shape"/>
<feGaussianBlur stdDeviation="84.7131" result="effect1_foregroundBlur_236_3985"/>
</filter>
<filter id="filter5_f_236_3985" x="-544.393" y="-28.6608" width="2280.53" height="925.318" filterUnits="userSpaceOnUse" color-interpolation-filters="sRGB">
<feFlood flood-opacity="0" result="BackgroundImageFix"/>
<feBlend mode="normal" in="SourceGraphic" in2="BackgroundImageFix" result="shape"/>
<feGaussianBlur stdDeviation="84.7131" result="effect1_foregroundBlur_236_3985"/>
</filter>
<linearGradient id="paint0_linear_236_3985" x1="834.754" y1="2.05856e-05" x2="912.892" y2="337.341" gradientUnits="userSpaceOnUse">
<stop stop-color="#FF0000" stop-opacity="0"/>
<stop offset="1" stop-color="#FDB833"/>
</linearGradient>
<linearGradient id="paint1_linear_236_3985" x1="760.713" y1="550.887" x2="654.26" y2="188.826" gradientUnits="userSpaceOnUse">
<stop stop-color="#F8ED8C" stop-opacity="0"/>
<stop offset="1" stop-color="#FFF7B1"/>
</linearGradient>
<linearGradient id="paint2_linear_236_3985" x1="945.203" y1="43.893" x2="997.039" y2="386.931" gradientUnits="userSpaceOnUse">
<stop/>
<stop offset="1" stop-opacity="0"/>
</linearGradient>
<clipPath id="clip0_236_3985">
<rect width="1280" height="874" fill="white" transform="matrix(1 0 0 -1 0 874)"/>
</clipPath>
</defs>
</svg>
